IBM Plex Mono-Bold.ufo
<glyph name="exclam" format="2">
  <advance width="600"/>
  <unicode hex="0021"/>
  <outline>
    <contour>
      <point x="324" y="243" type="line"/>
      <point x="381" y="495" type="line"/>
      <point x="381" y="698" type="line"/>
      <point x="219" y="698" type="line"/>
      <point x="219" y="495" type="line"/>
      <point x="276" y="243" type="line"/>
    </contour>
    <contour>
      <point x="300" y="-12" type="curve" smooth="yes"/>
      <point x="371" y="-12"/>
      <point x="398" y="23"/>
      <point x="398" y="66" type="curve" smooth="yes"/>
      <point x="398" y="98" type="line" smooth="yes"/>
      <point x="398" y="140"/>
      <point x="371" y="175"/>
      <point x="300" y="175" type="curve" smooth="yes"/>
      <point x="229" y="175"/>
      <point x="202" y="140"/>
      <point x="202" y="98" type="curve" smooth="yes"/>
      <point x="202" y="66" type="line" smooth="yes"/>
      <point x="202" y="23"/>
      <point x="229" y="-12"/>
    </contour>
  </outline>
</glyph>
<glyph name="numbersign" format="2">
  <advance width="600"/>
  <unicode hex="0023"/>
  <outline>
    <contour>
      <point x="83" y="0" type="line"/>
      <point x="200" y="0" type="line"/>
      <point x="323" y="698" type="line"/>
      <point x="206" y="698" type="line"/>
      <point x="172" y="504" type="line"/>
      <point x="47" y="504" type="line"/>
      <point x="47" y="394" type="line"/>
      <point x="152" y="394" type="line"/>
      <point x="137" y="304" type="line"/>
      <point x="9" y="304" type="line"/>
      <point x="9" y="194" type="line"/>
      <point x="117" y="194" type="line"/>
    </contour>
    <contour>
      <point x="277" y="0" type="line"/>
      <point x="394" y="0" type="line"/>
      <point x="428" y="194" type="line"/>
      <point x="553" y="194" type="line"/>
      <point x="553" y="304" type="line"/>
      <point x="448" y="304" type="line"/>
      <point x="463" y="394" type="line"/>
      <point x="591" y="394" type="line"/>
      <point x="591" y="504" type="line"/>
      <point x="483" y="504" type="line"/>
      <point x="517" y="698" type="line"/>
      <point x="400" y="698" type="line"/>
    </contour>
  </outline>
</glyph>
<glyph name="ampersand" format="2">
  <advance width="600"/>
  <unicode hex="0026"/>
  <outline>
    <contour>
      <point x="207" y="-12" type="curve" smooth="yes"/>
      <point x="289" y="-12"/>
      <point x="345" y="29"/>
      <point x="354" y="97" type="curve"/>
      <point x="361" y="97" type="line"/>
      <point x="441" y="0" type="line"/>
      <point x="599" y="0" type="line"/>
      <point x="469" y="158" type="line"/>
      <point x="490" y="205"/>
      <point x="503" y="250"/>
      <point x="510" y="292" type="curve"/>
      <point x="580" y="292" type="line"/>
      <point x="580" y="402" type="line"/>
      <point x="402" y="402" type="line"/>
      <point x="402" y="358"/>
      <point x="399" y="288"/>
      <point x="391" y="243" type="curve"/>
      <point x="385" y="243" type="line"/>
      <point x="337" y="317" type="line"/>
      <point x="280" y="389" type="line" smooth="yes"/>
      <point x="217" y="469"/>
      <point x="197" y="492"/>
      <point x="197" y="530" type="curve" smooth="yes"/>
      <point x="197" y="535" type="line" smooth="yes"/>
      <point x="197" y="573"/>
      <point x="224" y="600"/>
      <point x="264" y="600" type="curve" smooth="yes"/>
      <point x="304" y="600"/>
      <point x="337" y="574"/>
      <point x="351" y="531" type="curve"/>
      <point x="453" y="586" type="line"/>
      <point x="432" y="650"/>
      <point x="362" y="710"/>
      <point x="262" y="710" type="curve" smooth="yes"/>
      <point x="150" y="710"/>
      <point x="67" y="634"/>
      <point x="67" y="534" type="curve" smooth="yes"/>
      <point x="67" y="483"/>
      <point x="89" y="440"/>
      <point x="132" y="381" type="curve"/>
      <point x="55" y="336"/>
      <point x="14" y="274"/>
      <point x="14" y="190" type="curve" smooth="yes"/>
      <point x="14" y="82"/>
      <point x="82" y="-12"/>
    </contour>
    <contour>
      <point x="244" y="101" type="curve" smooth="yes"/>
      <point x="187" y="101"/>
      <point x="150" y="135"/>
      <point x="150" y="198" type="curve"/>
      <point x="150" y="200" type="line" smooth="yes"/>
      <point x="150" y="238"/>
      <point x="158" y="272"/>
      <point x="192" y="305" type="curve"/>
      <point x="321" y="141" type="line"/>
      <point x="303" y="111"/>
      <point x="274" y="101"/>
    </contour>
  </outline>
</glyph>
<glyph name="quotesingle" format="2">
  <advance width="600"/>
  <unicode hex="0027"/>
  <outline>
    <contour>
      <point x="366" y="414" type="line"/>
      <point x="366" y="740" type="line"/>
      <point x="234" y="740" type="line"/>
      <point x="234" y="414" type="line"/>
    </contour>
  </outline>
</glyph>
<glyph name="parenleft" format="2">
  <advance width="600"/>
  <unicode hex="0028"/>
  <outline>
    <contour>
      <point x="174" y="311" type="curve" smooth="yes"/>
      <point x="174" y="116"/>
      <point x="269" y="-54"/>
      <point x="382" y="-138" type="curve"/>
      <point x="530" y="-138" type="line"/>
      <point x="406" y="-53"/>
      <point x="298" y="93"/>
      <point x="298" y="260" type="curve" smooth="yes"/>
      <point x="298" y="362" type="line" smooth="yes"/>
      <point x="298" y="529"/>
      <point x="406" y="675"/>
      <point x="530" y="760" type="curve"/>
      <point x="382" y="760" type="line"/>
      <point x="269" y="676"/>
      <point x="174" y="506"/>
    </contour>
  </outline>
</glyph>
<glyph name="parenright" format="2">
  <advance width="600"/>
  <unicode hex="0029"/>
  <outline>
    <contour>
      <point x="426" y="311" type="curve" smooth="yes"/>
      <point x="426" y="506"/>
      <point x="331" y="676"/>
      <point x="218" y="760" type="curve"/>
      <point x="70" y="760" type="line"/>
      <point x="194" y="675"/>
      <point x="302" y="529"/>
      <point x="302" y="362" type="curve" smooth="yes"/>
      <point x="302" y="260" type="line" smooth="yes"/>
      <point x="302" y="93"/>
      <point x="194" y="-53"/>
      <point x="70" y="-138" type="curve"/>
      <point x="218" y="-138" type="line"/>
      <point x="331" y="-54"/>
      <point x="426" y="116"/>
    </contour>
  </outline>
</glyph>
<glyph name="asterisk" format="2">
  <advance width="600"/>
  <unicode hex="002A"/>
  <outline>
    <contour>
      <point x="300" y="200" type="line"/>
      <point x="409" y="51" type="line"/>
      <point x="513" y="120" type="line"/>
      <point x="399" y="270" type="line"/>
      <point x="570" y="328" type="line"/>
      <point x="531" y="443" type="line"/>
      <point x="364" y="382" type="line"/>
      <point x="364" y="559" type="line"/>
      <point x="236" y="559" type="line"/>
      <point x="236" y="382" type="line"/>
      <point x="69" y="443" type="line"/>
      <point x="30" y="328" type="line"/>
      <point x="201" y="270" type="line"/>
      <point x="87" y="120" type="line"/>
      <point x="191" y="51" type="line"/>
    </contour>
  </outline>
</glyph>
<glyph name="plus" format="2">
  <advance width="600"/>
  <unicode hex="002B"/>
  <outline>
    <contour>
      <point x="364" y="62" type="line"/>
      <point x="364" y="246" type="line"/>
      <point x="538" y="246" type="line"/>
      <point x="538" y="364" type="line"/>
      <point x="364" y="364" type="line"/>
      <point x="364" y="548" type="line"/>
      <point x="236" y="548" type="line"/>
      <point x="236" y="364" type="line"/>
      <point x="62" y="364" type="line"/>
      <point x="62" y="246" type="line"/>
      <point x="236" y="246" type="line"/>
      <point x="236" y="62" type="line"/>
    </contour>
  </outline>
</glyph>
<glyph name="comma" format="2">
  <advance width="600"/>
  <unicode hex="002C"/>
  <outline>
    <contour>
      <point x="170" y="-151" type="line"/>
      <point x="280" y="-151" type="line"/>
      <point x="417" y="174" type="line"/>
      <point x="227" y="174" type="line"/>
    </contour>
  </outline>
</glyph>
<glyph name="hyphen" format="2">
  <advance width="600"/>
  <unicode hex="002D"/>
  <outline>
    <contour>
      <point x="460" y="234" type="line"/>
      <point x="460" y="376" type="line"/>
      <point x="140" y="376" type="line"/>
      <point x="140" y="234" type="line"/>
    </contour>
  </outline>
</glyph>
<glyph name="period" format="2">
  <advance width="600"/>
  <unicode hex="002E"/>
  <outline>
    <contour>
      <point x="300" y="-12" type="curve" smooth="yes"/>
      <point x="375" y="-12"/>
      <point x="405" y="26"/>
      <point x="405" y="71" type="curve" smooth="yes"/>
      <point x="405" y="106" type="line"/>
      <point x="405" y="151"/>
      <point x="375" y="189"/>
      <point x="300" y="189" type="curve" smooth="yes"/>
      <point x="225" y="189"/>
      <point x="195" y="151"/>
      <point x="195" y="106" type="curve" smooth="yes"/>
      <point x="195" y="71" type="line" smooth="yes"/>
      <point x="195" y="26"/>
      <point x="225" y="-12"/>
    </contour>
  </outline>
</glyph>
<glyph name="two" format="2">
  <advance width="600"/>
  <unicode hex="0032"/>
  <outline>
    <contour>
      <point x="555" y="126" type="line"/>
      <point x="219" y="126" type="line"/>
      <point x="352" y="229" type="line" smooth="yes"/>
      <point x="457" y="309"/>
      <point x="540" y="384"/>
      <point x="540" y="500" type="curve" smooth="yes"/>
      <point x="540" y="621"/>
      <point x="452" y="710"/>
      <point x="299" y="710" type="curve" smooth="yes"/>
      <point x="151" y="710"/>
      <point x="69" y="628"/>
      <point x="38" y="532" type="curve"/>
      <point x="169" y="482" type="line"/>
      <point x="184" y="535"/>
      <point x="217" y="580"/>
      <point x="284" y="580" type="curve" smooth="yes"/>
      <point x="342" y="580"/>
      <point x="380" y="549"/>
      <point x="380" y="491" type="curve" smooth="yes"/>
      <point x="380" y="481" type="line" smooth="yes"/>
      <point x="380" y="428"/>
      <point x="349" y="385"/>
      <point x="273" y="320" type="curve" smooth="yes"/>
      <point x="53" y="137" type="line"/>
      <point x="53" y="0" type="line"/>
      <point x="555" y="0" type="line"/>
    </contour>
  </outline>
</glyph>
<glyph name="four" format="2">
  <advance width="600"/>
  <unicode hex="0034"/>
  <outline>
    <contour>
      <point x="483" y="0" type="line"/>
      <point x="483" y="134" type="line"/>
      <point x="573" y="134" type="line"/>
      <point x="573" y="250" type="line"/>
      <point x="483" y="250" type="line"/>
      <point x="483" y="698" type="line"/>
      <point x="303" y="698" type="line"/>
      <point x="25" y="262" type="line"/>
      <point x="25" y="134" type="line"/>
      <point x="339" y="134" type="line"/>
      <point x="339" y="0" type="line"/>
    </contour>
    <contour>
      <point x="330" y="543" type="line"/>
      <point x="339" y="543" type="line"/>
      <point x="339" y="250" type="line"/>
      <point x="146" y="250" type="line"/>
    </contour>
  </outline>
</glyph>
<glyph name="seven" format="2">
  <advance width="600"/>
  <unicode hex="0037"/>
  <outline>
    <contour>
      <point x="322" y="0" type="line"/>
      <point x="553" y="568" type="line"/>
      <point x="553" y="698" type="line"/>
      <point x="51" y="698" type="line"/>
      <point x="51" y="449" type="line"/>
      <point x="178" y="449" type="line"/>
      <point x="178" y="576" type="line"/>
      <point x="404" y="576" type="line"/>
      <point x="164" y="0" type="line"/>
    </contour>
  </outline>
</glyph>
<glyph name="eight" format="2">
  <advance width="600"/>
  <unicode hex="0038"/>
  <outline>
    <contour>
      <point x="300" y="-12" type="curve" smooth="yes"/>
      <point x="468" y="-12"/>
      <point x="564" y="74"/>
      <point x="564" y="192" type="curve" smooth="yes"/>
      <point x="564" y="282"/>
      <point x="506" y="338"/>
      <point x="425" y="360" type="curve"/>
      <point x="425" y="368" type="line"/>
      <point x="494" y="393"/>
      <point x="543" y="445"/>
      <point x="543" y="526" type="curve" smooth="yes"/>
      <point x="543" y="633"/>
      <point x="456" y="710"/>
      <point x="300" y="710" type="curve" smooth="yes"/>
      <point x="144" y="710"/>
      <point x="57" y="633"/>
      <point x="57" y="526" type="curve" smooth="yes"/>
      <point x="57" y="445"/>
      <point x="106" y="393"/>
      <point x="175" y="368" type="curve"/>
      <point x="175" y="360" type="line"/>
      <point x="94" y="338"/>
      <point x="36" y="282"/>
      <point x="36" y="192" type="curve" smooth="yes"/>
      <point x="36" y="74"/>
      <point x="132" y="-12"/>
    </contour>
    <contour>
      <point x="300" y="103" type="curve" smooth="yes"/>
      <point x="231" y="103"/>
      <point x="193" y="138"/>
      <point x="193" y="192" type="curve" smooth="yes"/>
      <point x="193" y="212" type="line" smooth="yes"/>
      <point x="193" y="267"/>
      <point x="230" y="301"/>
      <point x="300" y="301" type="curve" smooth="yes"/>
      <point x="370" y="301"/>
      <point x="407" y="267"/>
      <point x="407" y="212" type="curve" smooth="yes"/>
      <point x="407" y="192" type="line" smooth="yes"/>
      <point x="407" y="138"/>
      <point x="369" y="103"/>
    </contour>
    <contour>
      <point x="300" y="411" type="curve" smooth="yes"/>
      <point x="234" y="411"/>
      <point x="198" y="444"/>
      <point x="198" y="496" type="curve" smooth="yes"/>
      <point x="198" y="511" type="line" smooth="yes"/>
      <point x="198" y="563"/>
      <point x="235" y="595"/>
      <point x="300" y="595" type="curve" smooth="yes"/>
      <point x="365" y="595"/>
      <point x="402" y="563"/>
      <point x="402" y="511" type="curve" smooth="yes"/>
      <point x="402" y="496" type="line" smooth="yes"/>
      <point x="402" y="444"/>
      <point x="366" y="411"/>
    </contour>
  </outline>
</glyph>
<glyph name="less" format="2">
  <advance width="600"/>
  <unicode hex="003C"/>
  <outline>
    <contour>
      <point x="515" y="6" type="line"/>
      <point x="515" y="144" type="line"/>
      <point x="218" y="301" type="line"/>
      <point x="218" y="309" type="line"/>
      <point x="515" y="466" type="line"/>
      <point x="515" y="604" type="line"/>
      <point x="85" y="374" type="line"/>
      <point x="85" y="236" type="line"/>
    </contour>
  </outline>
</glyph>
<glyph name="equal" format="2">
  <advance width="600"/>
  <unicode hex="003D"/>
  <outline>
    <contour>
      <point x="538" y="361" type="line"/>
      <point x="538" y="479" type="line"/>
      <point x="62" y="479" type="line"/>
      <point x="62" y="361" type="line"/>
    </contour>
    <contour>
      <point x="538" y="131" type="line"/>
      <point x="538" y="249" type="line"/>
      <point x="62" y="249" type="line"/>
      <point x="62" y="131" type="line"/>
    </contour>
  </outline>
</glyph>
<glyph name="at" format="2">
  <advance width="600"/>
  <unicode hex="0040"/>
  <outline>
    <contour>
      <point x="446" y="-17" type="line"/>
      <point x="341" y="-17" type="line" smooth="yes"/>
      <point x="203" y="-17"/>
      <point x="150" y="74"/>
      <point x="150" y="229" type="curve" smooth="yes"/>
      <point x="150" y="358" type="line" smooth="yes"/>
      <point x="150" y="559"/>
      <point x="209" y="615"/>
      <point x="307" y="615" type="curve" smooth="yes"/>
      <point x="390" y="615"/>
      <point x="446" y="576"/>
      <point x="446" y="463" type="curve" smooth="yes"/>
      <point x="446" y="436" type="line"/>
      <point x="439" y="436" type="line"/>
      <point x="424" y="485"/>
      <point x="391" y="509"/>
      <point x="345" y="509" type="curve" smooth="yes"/>
      <point x="267" y="509"/>
      <point x="221" y="442"/>
      <point x="221" y="294" type="curve" smooth="yes"/>
      <point x="221" y="146"/>
      <point x="267" y="79"/>
      <point x="345" y="79" type="curve" smooth="yes"/>
      <point x="391" y="79"/>
      <point x="424" y="103"/>
      <point x="439" y="152" type="curve"/>
      <point x="446" y="152" type="line"/>
      <point x="446" y="91" type="line"/>
      <point x="553" y="91" type="line"/>
      <point x="553" y="463" type="line" smooth="yes"/>
      <point x="553" y="602"/>
      <point x="474" y="710"/>
      <point x="301" y="710" type="curve" smooth="yes"/>
      <point x="132" y="710"/>
      <point x="38" y="608"/>
      <point x="38" y="305" type="curve" smooth="yes"/>
      <point x="38" y="24"/>
      <point x="119" y="-113"/>
      <point x="341" y="-113" type="curve" smooth="yes"/>
      <point x="446" y="-113" type="line"/>
    </contour>
    <contour>
      <point x="389" y="165" type="curve" smooth="yes"/>
      <point x="353" y="165"/>
      <point x="333" y="187"/>
      <point x="333" y="261" type="curve"/>
      <point x="333" y="327" type="line" smooth="yes"/>
      <point x="333" y="401"/>
      <point x="353" y="423"/>
      <point x="389" y="423" type="curve" smooth="yes"/>
      <point x="426" y="423"/>
      <point x="446" y="400"/>
      <point x="446" y="364" type="curve" smooth="yes"/>
      <point x="446" y="224" type="line" smooth="yes"/>
      <point x="446" y="188"/>
      <point x="426" y="165"/>
    </contour>
  </outline>
</glyph>
<glyph name="A" format="2">
  <advance width="600"/>
  <unicode hex="0041"/>
  <anchor x="300.0" y="0.0" name="bottom"/>
  <anchor x="595.0" y="0.0" name="bottomright"/>
  <anchor x="300.0" y="698.0" name="top"/>
  <outline>
    <contour>
      <point x="595" y="0" type="line"/>
      <point x="406" y="698" type="line"/>
      <point x="194" y="698" type="line"/>
      <point x="5" y="0" type="line"/>
      <point x="157" y="0" type="line"/>
      <point x="200" y="168" type="line"/>
      <point x="391" y="168" type="line"/>
      <point x="435" y="0" type="line"/>
    </contour>
    <contour>
      <point x="368" y="289" type="line"/>
      <point x="224" y="289" type="line"/>
      <point x="292" y="553" type="line"/>
      <point x="300" y="553" type="line"/>
    </contour>
  </outline>
</glyph>
<glyph name="B" format="2">
  <advance width="600"/>
  <unicode hex="0042"/>
  <anchor x="300.0" y="0.0" name="bottom"/>
  <anchor x="295.0" y="698.0" name="top"/>
  <outline>
    <contour>
      <point x="77" y="0" type="line"/>
      <point x="345" y="0" type="line" smooth="yes"/>
      <point x="477" y="0"/>
      <point x="556" y="75"/>
      <point x="556" y="192" type="curve" smooth="yes"/>
      <point x="556" y="286"/>
      <point x="506" y="338"/>
      <point x="420" y="359" type="curve"/>
      <point x="420" y="365" type="line"/>
      <point x="493" y="386"/>
      <point x="534" y="433"/>
      <point x="534" y="512" type="curve" smooth="yes"/>
      <point x="534" y="626"/>
      <point x="458" y="698"/>
      <point x="322" y="698" type="curve" smooth="yes"/>
      <point x="77" y="698" type="line"/>
    </contour>
    <contour>
      <point x="223" y="105" type="line"/>
      <point x="223" y="302" type="line"/>
      <point x="299" y="302" type="line" smooth="yes"/>
      <point x="370" y="302"/>
      <point x="403" y="281"/>
      <point x="403" y="218" type="curve" smooth="yes"/>
      <point x="403" y="189" type="line" smooth="yes"/>
      <point x="403" y="125"/>
      <point x="370" y="105"/>
      <point x="299" y="105" type="curve" smooth="yes"/>
    </contour>
    <contour>
      <point x="223" y="402" type="line"/>
      <point x="223" y="593" type="line"/>
      <point x="280" y="593" type="line" smooth="yes"/>
      <point x="350" y="593"/>
      <point x="381" y="574"/>
      <point x="381" y="513" type="curve" smooth="yes"/>
      <point x="381" y="483" type="line" smooth="yes"/>
      <point x="381" y="422"/>
      <point x="350" y="402"/>
      <point x="280" y="402" type="curve" smooth="yes"/>
    </contour>
  </outline>
</glyph>
<glyph name="C" format="2">
  <advance width="600"/>
  <unicode hex="0043"/>
  <anchor x="303.0" y="0.0" name="bottom"/>
  <anchor x="312.0" y="698.0" name="top"/>
  <outline>
    <contour>
      <point x="316" y="-12" type="curve" smooth="yes"/>
      <point x="460" y="-12"/>
      <point x="535" y="67"/>
      <point x="563" y="189" type="curve"/>
      <point x="423" y="223" type="line"/>
      <point x="408" y="157"/>
      <point x="383" y="109"/>
      <point x="313" y="109" type="curve" smooth="yes"/>
      <point x="232" y="109"/>
      <point x="201" y="177"/>
      <point x="201" y="288" type="curve" smooth="yes"/>
      <point x="201" y="410" type="line"/>
      <point x="201" y="521"/>
      <point x="232" y="589"/>
      <point x="313" y="589" type="curve" smooth="yes"/>
      <point x="383" y="589"/>
      <point x="408" y="541"/>
      <point x="423" y="475" type="curve"/>
      <point x="563" y="509" type="line"/>
      <point x="535" y="631"/>
      <point x="460" y="710"/>
      <point x="316" y="710" type="curve" smooth="yes"/>
      <point x="129" y="710"/>
      <point x="41" y="578"/>
      <point x="41" y="349" type="curve" smooth="yes"/>
      <point x="41" y="120"/>
      <point x="129" y="-12"/>
    </contour>
  </outline>
</glyph>
<glyph name="D" format="2">
  <advance width="600"/>
  <unicode hex="0044"/>
  <anchor x="278.0" y="0.0" name="bottom"/>
  <anchor x="278.0" y="698.0" name="top"/>
  <outline>
    <contour>
      <point x="64" y="0" type="line"/>
      <point x="289" y="0" type="line"/>
      <point x="476" y="0"/>
      <point x="566" y="125"/>
      <point x="566" y="349" type="curve" smooth="yes"/>
      <point x="566" y="573"/>
      <point x="476" y="698"/>
      <point x="289" y="698" type="curve" smooth="yes"/>
      <point x="64" y="698" type="line"/>
    </contour>
    <contour>
      <point x="212" y="118" type="line"/>
      <point x="212" y="580" type="line"/>
      <point x="279" y="580" type="line" smooth="yes"/>
      <point x="368" y="580"/>
      <point x="408" y="521"/>
      <point x="408" y="413" type="curve" smooth="yes"/>
      <point x="408" y="286" type="line"/>
      <point x="408" y="177"/>
      <point x="368" y="118"/>
      <point x="279" y="118" type="curve" smooth="yes"/>
    </contour>
  </outline>
</glyph>
<glyph name="E" format="2">
  <advance width="600"/>
  <unicode hex="0045"/>
  <anchor x="303.0" y="0.0" name="bottom"/>
  <anchor x="526.0" y="0.0" name="bottomright"/>
  <anchor x="303.0" y="698.0" name="top"/>
  <outline>
    <contour>
      <point x="526" y="0" type="line"/>
      <point x="526" y="123" type="line"/>
      <point x="230" y="123" type="line"/>
      <point x="230" y="292" type="line"/>
      <point x="516" y="292" type="line"/>
      <point x="516" y="415" type="line"/>
      <point x="230" y="415" type="line"/>
      <point x="230" y="575" type="line"/>
      <point x="526" y="575" type="line"/>
      <point x="526" y="698" type="line"/>
      <point x="80" y="698" type="line"/>
      <point x="80" y="0" type="line"/>
    </contour>
  </outline>
</glyph>
<glyph name="F" format="2">
  <advance width="600"/>
  <unicode hex="0046"/>
  <anchor x="151.0" y="0.0" name="bottom"/>
  <anchor x="311.0" y="698.0" name="top"/>
  <outline>
    <contour>
      <point x="230" y="0" type="line"/>
      <point x="230" y="292" type="line"/>
      <point x="510" y="292" type="line"/>
      <point x="510" y="415" type="line"/>
      <point x="230" y="415" type="line"/>
      <point x="230" y="575" type="line"/>
      <point x="543" y="575" type="line"/>
      <point x="543" y="698" type="line"/>
      <point x="80" y="698" type="line"/>
      <point x="80" y="0" type="line"/>
    </contour>
  </outline>
</glyph>
<glyph name="G" format="2">
  <advance width="600"/>
  <unicode hex="0047"/>
  <anchor x="298.0" y="0.0" name="bottom"/>
  <anchor x="301.0" y="698.0" name="top"/>
  <outline>
    <contour>
      <point x="411" y="0" type="line"/>
      <point x="545" y="0" type="line"/>
      <point x="545" y="373" type="line"/>
      <point x="292" y="373" type="line"/>
      <point x="292" y="267" type="line"/>
      <point x="411" y="267" type="line"/>
      <point x="411" y="216" type="line" smooth="yes"/>
      <point x="411" y="154"/>
      <point x="377" y="109"/>
      <point x="310" y="109" type="curve" smooth="yes"/>
      <point x="223" y="109"/>
      <point x="194" y="183"/>
      <point x="194" y="296" type="curve" smooth="yes"/>
      <point x="194" y="410" type="line" smooth="yes"/>
      <point x="194" y="522"/>
      <point x="222" y="589"/>
      <point x="298" y="589" type="curve" smooth="yes"/>
      <point x="367" y="589"/>
      <point x="390" y="534"/>
      <point x="405" y="475" type="curve"/>
      <point x="545" y="509" type="line"/>
      <point x="517" y="629"/>
      <point x="445" y="710"/>
      <point x="301" y="710" type="curve" smooth="yes"/>
      <point x="120" y="710"/>
      <point x="35" y="580"/>
      <point x="35" y="343" type="curve" smooth="yes"/>
      <point x="35" y="121"/>
      <point x="109" y="-12"/>
      <point x="246" y="-12" type="curve" smooth="yes"/>
      <point x="332" y="-12"/>
      <point x="379" y="41"/>
      <point x="402" y="99" type="curve"/>
      <point x="411" y="99" type="line"/>
    </contour>
  </outline>
</glyph>
<glyph name="H" format="2">
  <advance width="600"/>
  <unicode hex="0048"/>
  <anchor x="300.0" y="0.0" name="bottom"/>
  <anchor x="300.0" y="698.0" name="top"/>
  <outline>
    <contour>
      <point x="388" y="0" type="line"/>
      <point x="539" y="0" type="line"/>
      <point x="539" y="698" type="line"/>
      <point x="388" y="698" type="line"/>
      <point x="388" y="415" type="line"/>
      <point x="212" y="415" type="line"/>
      <point x="212" y="698" type="line"/>
      <point x="61" y="698" type="line"/>
      <point x="61" y="0" type="line"/>
      <point x="212" y="0" type="line"/>
      <point x="212" y="292" type="line"/>
      <point x="388" y="292" type="line"/>
    </contour>
  </outline>
</glyph>
<glyph name="I" format="2">
  <advance width="600"/>
  <unicode hex="0049"/>
  <anchor x="300.0" y="0.0" name="bottom"/>
  <anchor x="525.0" y="0.0" name="bottomright"/>
  <anchor x="300.0" y="698.0" name="top"/>
  <outline>
    <contour>
      <point x="525" y="0" type="line"/>
      <point x="525" y="111" type="line"/>
      <point x="375" y="111" type="line"/>
      <point x="375" y="587" type="line"/>
      <point x="525" y="587" type="line"/>
      <point x="525" y="698" type="line"/>
      <point x="75" y="698" type="line"/>
      <point x="75" y="587" type="line"/>
      <point x="225" y="587" type="line"/>
      <point x="225" y="111" type="line"/>
      <point x="75" y="111" type="line"/>
      <point x="75" y="0" type="line"/>
    </contour>
  </outline>
</glyph>
<glyph name="J" format="2">
  <advance width="600"/>
  <unicode hex="004A"/>
  <anchor x="275.0" y="0.0" name="bottom"/>
  <anchor x="321.0" y="698.0" name="top"/>
  <outline>
    <contour>
      <point x="129" y="698" type="line"/>
      <point x="129" y="575" type="line"/>
      <point x="359" y="575" type="line"/>
      <point x="359" y="210" type="line" smooth="yes"/>
      <point x="359" y="142"/>
      <point x="329" y="110"/>
      <point x="278" y="110" type="curve" smooth="yes"/>
      <point x="218" y="110"/>
      <point x="191" y="152"/>
      <point x="180" y="211" type="curve"/>
      <point x="38" y="182" type="line"/>
      <point x="60" y="66"/>
      <point x="135" y="-12"/>
      <point x="278" y="-12" type="curve" smooth="yes"/>
      <point x="420" y="-12"/>
      <point x="511" y="69"/>
      <point x="511" y="195" type="curve" smooth="yes"/>
      <point x="511" y="698" type="line"/>
    </contour>
  </outline>
</glyph>
<glyph name="K" format="2">
  <advance width="600"/>
  <unicode hex="004B"/>
  <anchor x="325.0" y="0.0" name="bottom"/>
  <anchor x="317.0" y="698.0" name="top"/>
  <outline>
    <contour>
      <point x="434" y="0" type="line"/>
      <point x="603" y="0" type="line"/>
      <point x="384" y="403" type="line"/>
      <point x="593" y="698" type="line"/>
      <point x="425" y="698" type="line"/>
      <point x="302" y="522" type="line"/>
      <point x="226" y="406" type="line"/>
      <point x="218" y="406" type="line"/>
      <point x="218" y="698" type="line"/>
      <point x="68" y="698" type="line"/>
      <point x="68" y="0" type="line"/>
      <point x="218" y="0" type="line"/>
      <point x="218" y="204" type="line"/>
      <point x="280" y="291" type="line"/>
    </contour>
  </outline>
</glyph>
<glyph name="L" format="2">
  <advance width="600"/>
  <unicode hex="004C"/>
  <anchor x="317.0" y="0.0" name="bottom"/>
  <anchor x="167.0" y="698.0" name="top"/>
  <anchor x="320.0" y="740.0" name="topright"/>
  <outline>
    <contour>
      <point x="543" y="0" type="line"/>
      <point x="543" y="123" type="line"/>
      <point x="243" y="123" type="line"/>
      <point x="243" y="698" type="line"/>
      <point x="92" y="698" type="line"/>
      <point x="92" y="0" type="line"/>
    </contour>
  </outline>
</glyph>
<glyph name="M" format="2">
  <advance width="600"/>
  <unicode hex="004D"/>
  <anchor x="300.0" y="0.0" name="bottom"/>
  <anchor x="300.0" y="698.0" name="top"/>
  <outline>
    <contour>
      <point x="431" y="0" type="line"/>
      <point x="561" y="0" type="line"/>
      <point x="561" y="698" type="line"/>
      <point x="396" y="698" type="line"/>
      <point x="310" y="463" type="line"/>
      <point x="302" y="463" type="line"/>
      <point x="216" y="698" type="line"/>
      <point x="39" y="698" type="line"/>
      <point x="39" y="0" type="line"/>
      <point x="169" y="0" type="line"/>
      <point x="169" y="311" type="line"/>
      <point x="161" y="506" type="line"/>
      <point x="170" y="506" type="line"/>
      <point x="300" y="147" type="line"/>
      <point x="430" y="506" type="line"/>
      <point x="439" y="506" type="line"/>
      <point x="431" y="311" type="line"/>
    </contour>
  </outline>
</glyph>
<glyph name="N" format="2">
  <advance width="600"/>
  <unicode hex="004E"/>
  <anchor x="300.0" y="0.0" name="bottom"/>
  <anchor x="300.0" y="698.0" name="top"/>
  <outline>
    <contour>
      <point x="359" y="0" type="line"/>
      <point x="539" y="0" type="line"/>
      <point x="539" y="698" type="line"/>
      <point x="411" y="698" type="line"/>
      <point x="411" y="234" type="line"/>
      <point x="400" y="234" type="line"/>
      <point x="241" y="698" type="line"/>
      <point x="61" y="698" type="line"/>
      <point x="61" y="0" type="line"/>
      <point x="189" y="0" type="line"/>
      <point x="189" y="464" type="line"/>
      <point x="200" y="464" type="line"/>
    </contour>
  </outline>
</glyph>
<glyph name="Q" format="2">
  <advance width="600"/>
  <unicode hex="0051"/>
  <anchor x="300.0" y="698.0" name="top"/>
  <outline>
    <contour>
      <point x="526" y="-84" type="line"/>
      <point x="365" y="-84" type="line"/>
      <point x="365" y="-6" type="line"/>
      <point x="507" y="22"/>
      <point x="573" y="149"/>
      <point x="573" y="349" type="curve" smooth="yes"/>
      <point x="573" y="577"/>
      <point x="487" y="710"/>
      <point x="300" y="710" type="curve" smooth="yes"/>
      <point x="113" y="710"/>
      <point x="27" y="577"/>
      <point x="27" y="349" type="curve" smooth="yes"/>
      <point x="27" y="149"/>
      <point x="93" y="22"/>
      <point x="235" y="-6" type="curve"/>
      <point x="235" y="-47" type="line" smooth="yes"/>
      <point x="235" y="-134"/>
      <point x="276" y="-191"/>
      <point x="384" y="-191" type="curve" smooth="yes"/>
      <point x="526" y="-191" type="line"/>
    </contour>
    <contour>
      <point x="300" y="109" type="curve" smooth="yes"/>
      <point x="215" y="109"/>
      <point x="187" y="176"/>
      <point x="187" y="288" type="curve" smooth="yes"/>
      <point x="187" y="410" type="line" smooth="yes"/>
      <point x="187" y="522"/>
      <point x="215" y="589"/>
      <point x="300" y="589" type="curve" smooth="yes"/>
      <point x="385" y="589"/>
      <point x="413" y="522"/>
      <point x="413" y="410" type="curve" smooth="yes"/>
      <point x="413" y="289" type="line" smooth="yes"/>
      <point x="413" y="176"/>
      <point x="385" y="109"/>
    </contour>
  </outline>
</glyph>
<glyph name="R" format="2">
  <advance width="600"/>
  <unicode hex="0052"/>
  <anchor x="315.0" y="0.0" name="bottom"/>
  <anchor x="304.0" y="698.0" name="top"/>
  <outline>
    <contour>
      <point x="224" y="259" type="line"/>
      <point x="293" y="259" type="line"/>
      <point x="410" y="0" type="line"/>
      <point x="574" y="0" type="line"/>
      <point x="437" y="279" type="line"/>
      <point x="515" y="301"/>
      <point x="560" y="378"/>
      <point x="560" y="476" type="curve" smooth="yes"/>
      <point x="560" y="611"/>
      <point x="483" y="698"/>
      <point x="346" y="698" type="curve" smooth="yes"/>
      <point x="76" y="698" type="line"/>
      <point x="76" y="0" type="line"/>
      <point x="224" y="0" type="line"/>
    </contour>
    <contour>
      <point x="224" y="375" type="line"/>
      <point x="224" y="577" type="line"/>
      <point x="310" y="577" type="line" smooth="yes"/>
      <point x="380" y="577"/>
      <point x="404" y="552"/>
      <point x="404" y="491" type="curve" smooth="yes"/>
      <point x="404" y="461" type="line" smooth="yes"/>
      <point x="404" y="400"/>
      <point x="380" y="375"/>
      <point x="310" y="375" type="curve" smooth="yes"/>
    </contour>
  </outline>
</glyph>
<glyph name="T" format="2">
  <advance width="600"/>
  <unicode hex="0054"/>
  <anchor x="300.0" y="0.0" name="bottom"/>
  <anchor x="300.0" y="698.0" name="top"/>
  <outline>
    <contour>
      <point x="576" y="575" type="line"/>
      <point x="576" y="698" type="line"/>
      <point x="24" y="698" type="line"/>
      <point x="24" y="575" type="line"/>
      <point x="225" y="575" type="line"/>
      <point x="225" y="0" type="line"/>
      <point x="375" y="0" type="line"/>
      <point x="375" y="575" type="line"/>
    </contour>
  </outline>
</glyph>
<glyph name="U" format="2">
  <advance width="600"/>
  <unicode hex="0055"/>
  <anchor x="300.0" y="0.0" name="bottom"/>
  <anchor x="404.0" y="0.0" name="bottomright"/>
  <anchor x="300.0" y="698.0" name="top"/>
  <outline>
    <contour>
      <point x="55" y="698" type="line"/>
      <point x="55" y="276" type="line" smooth="yes"/>
      <point x="55" y="85"/>
      <point x="97" y="-12"/>
      <point x="300" y="-12" type="curve" smooth="yes"/>
      <point x="503" y="-12"/>
      <point x="545" y="85"/>
      <point x="545" y="276" type="curve" smooth="yes"/>
      <point x="545" y="698" type="line"/>
      <point x="395" y="698" type="line"/>
      <point x="395" y="256" type="line" smooth="yes"/>
      <point x="395" y="167"/>
      <point x="388" y="109"/>
      <point x="300" y="109" type="curve" smooth="yes"/>
      <point x="212" y="109"/>
      <point x="205" y="167"/>
      <point x="205" y="256" type="curve" smooth="yes"/>
      <point x="205" y="698" type="line"/>
    </contour>
  </outline>
</glyph>
<glyph name="V" format="2">
  <advance width="600"/>
  <unicode hex="0056"/>
  <anchor x="300.0" y="0.0" name="bottom"/>
  <anchor x="300.0" y="698.0" name="top"/>
  <outline>
    <contour>
      <point x="406" y="0" type="line"/>
      <point x="591" y="698" type="line"/>
      <point x="432" y="698" type="line"/>
      <point x="349" y="343" type="line"/>
      <point x="307" y="142" type="line"/>
      <point x="299" y="142" type="line"/>
      <point x="258" y="343" type="line"/>
      <point x="176" y="698" type="line"/>
      <point x="9" y="698" type="line"/>
      <point x="194" y="0" type="line"/>
    </contour>
  </outline>
</glyph>
<glyph name="W" format="2">
  <advance width="600"/>
  <unicode hex="0057"/>
  <anchor x="300.0" y="0.0" name="bottom"/>
  <anchor x="300.0" y="698.0" name="top"/>
  <outline>
    <contour>
      <point x="244" y="0" type="line"/>
      <point x="295" y="385" type="line"/>
      <point x="305" y="385" type="line"/>
      <point x="356" y="0" type="line"/>
      <point x="546" y="0" type="line"/>
      <point x="589" y="698" type="line"/>
      <point x="465" y="698" type="line"/>
      <point x="445" y="276" type="line"/>
      <point x="439" y="148" type="line"/>
      <point x="430" y="148" type="line"/>
      <point x="370" y="546" type="line"/>
      <point x="235" y="546" type="line"/>
      <point x="175" y="148" type="line"/>
      <point x="166" y="148" type="line"/>
      <point x="160" y="280" type="line"/>
      <point x="140" y="698" type="line"/>
      <point x="11" y="698" type="line"/>
      <point x="54" y="0" type="line"/>
    </contour>
  </outline>
</glyph>
<glyph name="X" format="2">
  <advance width="600"/>
  <unicode hex="0058"/>
  <anchor x="300.0" y="0.0" name="bottom"/>
  <anchor x="300.0" y="698.0" name="top"/>
  <outline>
    <contour>
      <point x="395" y="359" type="line"/>
      <point x="578" y="698" type="line"/>
      <point x="421" y="698" type="line"/>
      <point x="361" y="587" type="line"/>
      <point x="309" y="475" type="line"/>
      <point x="301" y="475" type="line"/>
      <point x="250" y="587" type="line"/>
      <point x="193" y="698" type="line"/>
      <point x="22" y="698" type="line"/>
      <point x="205" y="361" type="line"/>
      <point x="9" y="0" type="line"/>
      <point x="166" y="0" type="line"/>
      <point x="240" y="139" type="line"/>
      <point x="290" y="249" type="line"/>
      <point x="299" y="249" type="line"/>
      <point x="348" y="139" type="line"/>
      <point x="420" y="0" type="line"/>
      <point x="591" y="0" type="line"/>
    </contour>
  </outline>
</glyph>
<glyph name="Y" format="2">
  <advance width="600"/>
  <unicode hex="0059"/>
  <anchor x="300.0" y="0.0" name="bottom"/>
  <anchor x="300.0" y="698.0" name="top"/>
  <outline>
    <contour>
      <point x="375" y="0" type="line"/>
      <point x="375" y="247" type="line"/>
      <point x="596" y="698" type="line"/>
      <point x="435" y="698" type="line"/>
      <point x="361" y="536" type="line"/>
      <point x="307" y="399" type="line"/>
      <point x="299" y="399" type="line"/>
      <point x="245" y="536" type="line"/>
      <point x="171" y="698" type="line"/>
      <point x="4" y="698" type="line"/>
      <point x="225" y="247" type="line"/>
      <point x="225" y="0" type="line"/>
    </contour>
  </outline>
</glyph>
<glyph name="Z" format="2">
  <advance width="600"/>
  <unicode hex="005A"/>
  <anchor x="299.0" y="0.0" name="bottom"/>
  <anchor x="300.0" y="698.0" name="top"/>
  <outline>
    <contour>
      <point x="551" y="123" type="line"/>
      <point x="216" y="123" type="line"/>
      <point x="541" y="567" type="line"/>
      <point x="541" y="698" type="line"/>
      <point x="58" y="698" type="line"/>
      <point x="58" y="575" type="line"/>
      <point x="373" y="575" type="line"/>
      <point x="48" y="131" type="line"/>
      <point x="48" y="0" type="line"/>
      <point x="551" y="0" type="line"/>
    </contour>
  </outline>
</glyph>
<glyph name="bracketleft" format="2">
  <advance width="600"/>
  <unicode hex="005B"/>
  <outline>
    <contour>
      <point x="507" y="-138" type="line"/>
      <point x="507" y="-39" type="line"/>
      <point x="302" y="-39" type="line"/>
      <point x="302" y="661" type="line"/>
      <point x="507" y="661" type="line"/>
      <point x="507" y="760" type="line"/>
      <point x="183" y="760" type="line"/>
      <point x="183" y="-138" type="line"/>
    </contour>
  </outline>
</glyph>
<glyph name="bracketright" format="2">
  <advance width="600"/>
  <unicode hex="005D"/>
  <outline>
    <contour>
      <point x="93" y="760" type="line"/>
      <point x="93" y="661" type="line"/>
      <point x="298" y="661" type="line"/>
      <point x="298" y="-39" type="line"/>
      <point x="93" y="-39" type="line"/>
      <point x="93" y="-138" type="line"/>
      <point x="417" y="-138" type="line"/>
      <point x="417" y="760" type="line"/>
    </contour>
  </outline>
</glyph>
<glyph name="asciicircum" format="2">
  <advance width="600"/>
  <unicode hex="005E"/>
  <outline>
    <contour>
      <point x="573" y="293" type="line"/>
      <point x="379" y="698" type="line"/>
      <point x="222" y="698" type="line"/>
      <point x="27" y="293" type="line"/>
      <point x="138" y="239" type="line"/>
      <point x="291" y="562" type="line"/>
      <point x="303" y="562" type="line"/>
      <point x="456" y="239" type="line"/>
    </contour>
  </outline>
</glyph>
<glyph name="underscore" format="2">
  <advance width="600"/>
  <unicode hex="005F"/>
  <outline>
    <contour>
      <point x="540" y="-192" type="line"/>
      <point x="540" y="-71" type="line"/>
      <point x="60" y="-71" type="line"/>
      <point x="60" y="-192" type="line"/>
    </contour>
  </outline>
</glyph>
<glyph name="grave" format="2">
  <advance width="600"/>
  <unicode hex="0060"/>
  <anchor x="300.0" y="516.0" name="_top"/>
  <outline>
    <contour>
      <point x="284" y="570" type="line"/>
      <point x="372" y="613" type="line"/>
      <point x="273" y="807" type="line"/>
      <point x="150" y="746" type="line"/>
    </contour>
  </outline>
</glyph>
<glyph name="a" format="2">
  <advance width="600"/>
  <unicode hex="0061"/>
  <anchor x="292.0" y="0.0" name="bottom"/>
  <anchor x="572.0" y="0.0" name="bottomright"/>
  <anchor x="292.0" y="516.0" name="top"/>
  <outline>
    <contour>
      <point x="572" y="0" type="line"/>
      <point x="572" y="107" type="line"/>
      <point x="515" y="107" type="line"/>
      <point x="515" y="333" type="line" smooth="yes"/>
      <point x="515" y="463"/>
      <point x="431" y="528"/>
      <point x="290" y="528" type="curve" smooth="yes"/>
      <point x="175" y="528"/>
      <point x="100" y="485"/>
      <point x="66" y="427" type="curve"/>
      <point x="147" y="355" type="line"/>
      <point x="175" y="393"/>
      <point x="211" y="420"/>
      <point x="273" y="420" type="curve" smooth="yes"/>
      <point x="341" y="420"/>
      <point x="367" y="388"/>
      <point x="367" y="327" type="curve" smooth="yes"/>
      <point x="367" y="301" type="line"/>
      <point x="284" y="301" type="line" smooth="yes"/>
      <point x="133" y="301"/>
      <point x="52" y="250"/>
      <point x="52" y="142" type="curve" smooth="yes"/>
      <point x="52" y="45"/>
      <point x="118" y="-12"/>
      <point x="218" y="-12" type="curve" smooth="yes"/>
      <point x="297" y="-12"/>
      <point x="357" y="24"/>
      <point x="375" y="91" type="curve"/>
      <point x="380" y="91" type="line"/>
      <point x="386" y="33"/>
      <point x="426" y="0"/>
      <point x="487" y="0" type="curve" smooth="yes"/>
    </contour>
    <contour>
      <point x="274" y="85" type="curve" smooth="yes"/>
      <point x="227" y="85"/>
      <point x="197" y="104"/>
      <point x="197" y="140" type="curve" smooth="yes"/>
      <point x="197" y="160" type="line" smooth="yes"/>
      <point x="197" y="200"/>
      <point x="229" y="221"/>
      <point x="288" y="221" type="curve" smooth="yes"/>
      <point x="367" y="221" type="line"/>
      <point x="367" y="159" type="line" smooth="yes"/>
      <point x="367" y="111"/>
      <point x="326" y="85"/>
    </contour>
  </outline>
</glyph>
<glyph name="b" format="2">
  <advance width="600"/>
  <unicode hex="0062"/>
  <anchor x="310.0" y="0.0" name="bottom"/>
  <outline>
    <contour>
      <point x="59" y="0" type="line"/>
      <point x="207" y="0" type="line"/>
      <point x="207" y="94" type="line"/>
      <point x="214" y="94" type="line"/>
      <point x="240" y="32"/>
      <point x="284" y="-12"/>
      <point x="367" y="-12" type="curve" smooth="yes"/>
      <point x="481" y="-12"/>
      <point x="561" y="71"/>
      <point x="561" y="258" type="curve" smooth="yes"/>
      <point x="561" y="445"/>
      <point x="481" y="528"/>
      <point x="367" y="528" type="curve" smooth="yes"/>
      <point x="284" y="528"/>
      <point x="240" y="484"/>
      <point x="214" y="422" type="curve"/>
      <point x="207" y="422" type="line"/>
      <point x="207" y="740" type="line"/>
      <point x="59" y="740" type="line"/>
    </contour>
    <contour>
      <point x="303" y="103" type="curve" smooth="yes"/>
      <point x="251" y="103"/>
      <point x="207" y="128"/>
      <point x="207" y="182" type="curve"/>
      <point x="207" y="334" type="line"/>
      <point x="207" y="388"/>
      <point x="251" y="413"/>
      <point x="303" y="413" type="curve" smooth="yes"/>
      <point x="369" y="413"/>
      <point x="407" y="370"/>
      <point x="407" y="298" type="curve" smooth="yes"/>
      <point x="407" y="218" type="line"/>
      <point x="407" y="146"/>
      <point x="369" y="103"/>
    </contour>
  </outline>
</glyph>
<glyph name="d" format="2">
  <advance width="600"/>
  <unicode hex="0064"/>
  <anchor x="290.0" y="0.0" name="bottom"/>
  <anchor x="592.0" y="740.0" name="topright"/>
  <outline>
    <contour>
      <point x="393" y="0" type="line"/>
      <point x="541" y="0" type="line"/>
      <point x="541" y="740" type="line"/>
      <point x="393" y="740" type="line"/>
      <point x="393" y="422" type="line"/>
      <point x="386" y="422" type="line"/>
      <point x="360" y="484"/>
      <point x="316" y="528"/>
      <point x="233" y="528" type="curve" smooth="yes"/>
      <point x="119" y="528"/>
      <point x="39" y="445"/>
      <point x="39" y="258" type="curve" smooth="yes"/>
      <point x="39" y="71"/>
      <point x="119" y="-12"/>
      <point x="233" y="-12" type="curve" smooth="yes"/>
      <point x="316" y="-12"/>
      <point x="360" y="32"/>
      <point x="386" y="94" type="curve"/>
      <point x="393" y="94" type="line"/>
    </contour>
    <contour>
      <point x="297" y="103" type="curve" smooth="yes"/>
      <point x="231" y="103"/>
      <point x="193" y="146"/>
      <point x="193" y="218" type="curve" smooth="yes"/>
      <point x="193" y="298" type="line"/>
      <point x="193" y="370"/>
      <point x="231" y="413"/>
      <point x="297" y="413" type="curve" smooth="yes"/>
      <point x="349" y="413"/>
      <point x="393" y="388"/>
      <point x="393" y="334" type="curve"/>
      <point x="393" y="182" type="line"/>
      <point x="393" y="128"/>
      <point x="349" y="103"/>
    </contour>
  </outline>
</glyph>
<glyph name="e" format="2">
  <advance width="600"/>
  <unicode hex="0065"/>
  <anchor x="306.0" y="0.0" name="bottom"/>
  <anchor x="409.0" y="0.0" name="bottomright"/>
  <anchor x="301.0" y="516.0" name="top"/>
  <outline>
    <contour>
      <point x="314" y="-12" type="curve" smooth="yes"/>
      <point x="425" y="-12"/>
      <point x="495" y="30"/>
      <point x="535" y="79" type="curve"/>
      <point x="455" y="166" type="line"/>
      <point x="423" y="128"/>
      <point x="380" y="102"/>
      <point x="319" y="102" type="curve" smooth="yes"/>
      <point x="240" y="102"/>
      <point x="197" y="147"/>
      <point x="197" y="213" type="curve" smooth="yes"/>
      <point x="197" y="222" type="line"/>
      <point x="550" y="222" type="line"/>
      <point x="550" y="266" type="line" smooth="yes"/>
      <point x="550" y="427"/>
      <point x="455" y="528"/>
      <point x="301" y="528" type="curve" smooth="yes"/>
      <point x="146" y="528"/>
      <point x="50" y="425"/>
      <point x="50" y="256" type="curve" smooth="yes"/>
      <point x="50" y="91"/>
      <point x="141" y="-12"/>
    </contour>
    <contour>
      <point x="302" y="422" type="curve" smooth="yes"/>
      <point x="366" y="422"/>
      <point x="405" y="380"/>
      <point x="405" y="313" type="curve" smooth="yes"/>
      <point x="405" y="305" type="line"/>
      <point x="197" y="305" type="line"/>
      <point x="197" y="313" type="line" smooth="yes"/>
      <point x="197" y="379"/>
      <point x="238" y="422"/>
    </contour>
  </outline>
</glyph>
<glyph name="f" format="2">
  <advance width="600"/>
  <unicode hex="0066"/>
  <anchor x="297.0" y="0.0" name="bottom"/>
  <outline>
    <contour>
      <point x="71" y="0" type="line"/>
      <point x="533" y="0" type="line"/>
      <point x="533" y="115" type="line"/>
      <point x="371" y="115" type="line"/>
      <point x="371" y="401" type="line"/>
      <point x="556" y="401" type="line"/>
      <point x="556" y="516" type="line"/>
      <point x="371" y="516" type="line"/>
      <point x="371" y="625" type="line"/>
      <point x="556" y="625" type="line"/>
      <point x="556" y="740" type="line"/>
      <point x="381" y="740" type="line" smooth="yes"/>
      <point x="273" y="740"/>
      <point x="223" y="678"/>
      <point x="223" y="591" type="curve" smooth="yes"/>
      <point x="223" y="516" type="line"/>
      <point x="61" y="516" type="line"/>
      <point x="61" y="401" type="line"/>
      <point x="223" y="401" type="line"/>
      <point x="223" y="115" type="line"/>
      <point x="71" y="115" type="line"/>
    </contour>
  </outline>
</glyph>
<glyph name="h" format="2">
  <advance width="600"/>
  <unicode hex="0068"/>
  <anchor x="302.0" y="0.0" name="bottom"/>
  <anchor x="139.0" y="698.0" name="top"/>
  <outline>
    <contour>
      <point x="65" y="0" type="line"/>
      <point x="213" y="0" type="line"/>
      <point x="213" y="339" type="line"/>
      <point x="213" y="389"/>
      <point x="258" y="414"/>
      <point x="304" y="414" type="curve" smooth="yes"/>
      <point x="362" y="414"/>
      <point x="391" y="379"/>
      <point x="391" y="314" type="curve" smooth="yes"/>
      <point x="391" y="0" type="line"/>
      <point x="539" y="0" type="line"/>
      <point x="539" y="334" type="line" smooth="yes"/>
      <point x="539" y="459"/>
      <point x="470" y="528"/>
      <point x="371" y="528" type="curve" smooth="yes"/>
      <point x="288" y="528"/>
      <point x="242" y="480"/>
      <point x="219" y="422" type="curve"/>
      <point x="213" y="422" type="line"/>
      <point x="213" y="740" type="line"/>
      <point x="65" y="740" type="line"/>
    </contour>
  </outline>
</glyph>
<glyph name="j" format="2">
  <advance width="600"/>
  <unicode hex="006A"/>
  <outline>
    <contour>
      <point x="92" y="-200" type="line"/>
      <point x="281" y="-200" type="line" smooth="yes"/>
      <point x="387" y="-200"/>
      <point x="438" y="-138"/>
      <point x="438" y="-51" type="curve" smooth="yes"/>
      <point x="438" y="516" type="line"/>
      <point x="90" y="516" type="line"/>
      <point x="90" y="401" type="line"/>
      <point x="290" y="401" type="line"/>
      <point x="290" y="-85" type="line"/>
      <point x="92" y="-85" type="line"/>
    </contour>
    <contour>
      <point x="364" y="582" type="curve" smooth="yes"/>
      <point x="429" y="582"/>
      <point x="453" y="613"/>
      <point x="453" y="652" type="curve" smooth="yes"/>
      <point x="453" y="681" type="line" smooth="yes"/>
      <point x="453" y="721"/>
      <point x="429" y="751"/>
      <point x="364" y="751" type="curve" smooth="yes"/>
      <point x="298" y="751"/>
      <point x="275" y="721"/>
      <point x="275" y="681" type="curve" smooth="yes"/>
      <point x="275" y="652" type="line" smooth="yes"/>
      <point x="275" y="613"/>
      <point x="298" y="582"/>
    </contour>
  </outline>
</glyph>
<glyph name="k" format="2">
  <advance width="600"/>
  <unicode hex="006B"/>
  <anchor x="308.0" y="0.0" name="bottom"/>
  <outline>
    <contour>
      <point x="65" y="0" type="line"/>
      <point x="213" y="0" type="line"/>
      <point x="213" y="179" type="line"/>
      <point x="262" y="228" type="line"/>
      <point x="412" y="0" type="line"/>
      <point x="588" y="0" type="line"/>
      <point x="367" y="312" type="line"/>
      <point x="567" y="516" type="line"/>
      <point x="397" y="516" type="line"/>
      <point x="289" y="401" type="line"/>
      <point x="220" y="320" type="line"/>
      <point x="213" y="320" type="line"/>
      <point x="213" y="740" type="line"/>
      <point x="65" y="740" type="line"/>
    </contour>
  </outline>
</glyph>
<glyph name="l" format="2">
  <advance width="600"/>
  <unicode hex="006C"/>
  <anchor x="300.0" y="0.0" name="bottom"/>
  <anchor x="300.0" y="698.0" name="top"/>
  <anchor x="437.0" y="740.0" name="topright"/>
  <outline>
    <contour>
      <point x="68" y="0" type="line"/>
      <point x="532" y="0" type="line"/>
      <point x="532" y="115" type="line"/>
      <point x="374" y="115" type="line"/>
      <point x="374" y="740" type="line"/>
      <point x="68" y="740" type="line"/>
      <point x="68" y="625" type="line"/>
      <point x="226" y="625" type="line"/>
      <point x="226" y="115" type="line"/>
      <point x="68" y="115" type="line"/>
    </contour>
  </outline>
</glyph>
<glyph name="m" format="2">
  <advance width="600"/>
  <unicode hex="006D"/>
  <anchor x="300.0" y="0.0" name="bottom"/>
  <anchor x="300.0" y="516.0" name="top"/>
  <outline>
    <contour>
      <point x="149" y="0" type="line"/>
      <point x="149" y="368" type="line"/>
      <point x="149" y="403"/>
      <point x="170" y="419"/>
      <point x="197" y="419" type="curve" smooth="yes"/>
      <point x="223" y="419"/>
      <point x="240" y="402"/>
      <point x="240" y="354" type="curve" smooth="yes"/>
      <point x="240" y="0" type="line"/>
      <point x="360" y="0" type="line"/>
      <point x="360" y="368" type="line"/>
      <point x="360" y="403"/>
      <point x="381" y="419"/>
      <point x="406" y="419" type="curve" smooth="yes"/>
      <point x="433" y="419"/>
      <point x="451" y="402"/>
      <point x="451" y="354" type="curve" smooth="yes"/>
      <point x="451" y="0" type="line"/>
      <point x="570" y="0" type="line"/>
      <point x="570" y="369" type="line" smooth="yes"/>
      <point x="570" y="475"/>
      <point x="534" y="528"/>
      <point x="462" y="528" type="curve" smooth="yes"/>
      <point x="398" y="528"/>
      <point x="369" y="487"/>
      <point x="352" y="440" type="curve"/>
      <point x="346" y="440" type="line"/>
      <point x="335" y="497"/>
      <point x="303" y="528"/>
      <point x="254" y="528" type="curve" smooth="yes"/>
      <point x="199" y="528"/>
      <point x="172" y="488"/>
      <point x="156" y="440" type="curve"/>
      <point x="149" y="440" type="line"/>
      <point x="149" y="516" type="line"/>
      <point x="30" y="516" type="line"/>
      <point x="30" y="0" type="line"/>
    </contour>
  </outline>
</glyph>
<glyph name="n" format="2">
  <advance width="600"/>
  <unicode hex="006E"/>
  <anchor x="302.0" y="0.0" name="bottom"/>
  <anchor x="302.0" y="516.0" name="top"/>
  <outline>
    <contour>
      <point x="213" y="0" type="line"/>
      <point x="213" y="339" type="line"/>
      <point x="213" y="389"/>
      <point x="258" y="414"/>
      <point x="304" y="414" type="curve" smooth="yes"/>
      <point x="362" y="414"/>
      <point x="391" y="379"/>
      <point x="391" y="314" type="curve" smooth="yes"/>
      <point x="391" y="0" type="line"/>
      <point x="539" y="0" type="line"/>
      <point x="539" y="334" type="line" smooth="yes"/>
      <point x="539" y="459"/>
      <point x="470" y="528"/>
      <point x="371" y="528" type="curve" smooth="yes"/>
      <point x="288" y="528"/>
      <point x="242" y="480"/>
      <point x="219" y="422" type="curve"/>
      <point x="213" y="422" type="line"/>
      <point x="213" y="516" type="line"/>
      <point x="65" y="516" type="line"/>
      <point x="65" y="0" type="line"/>
    </contour>
  </outline>
</glyph>
<glyph name="o" format="2">
  <advance width="600"/>
  <unicode hex="006F"/>
  <anchor x="300.0" y="0.0" name="bottom"/>
  <anchor x="300.0" y="516.0" name="top"/>
  <outline>
    <contour>
      <point x="300" y="-12" type="curve" smooth="yes"/>
      <point x="461" y="-12"/>
      <point x="559" y="91"/>
      <point x="559" y="258" type="curve" smooth="yes"/>
      <point x="559" y="425"/>
      <point x="461" y="528"/>
      <point x="300" y="528" type="curve" smooth="yes"/>
      <point x="139" y="528"/>
      <point x="41" y="425"/>
      <point x="41" y="258" type="curve" smooth="yes"/>
      <point x="41" y="91"/>
      <point x="139" y="-12"/>
    </contour>
    <contour>
      <point x="300" y="98" type="curve" smooth="yes"/>
      <point x="234" y="98"/>
      <point x="194" y="141"/>
      <point x="194" y="217" type="curve" smooth="yes"/>
      <point x="194" y="299" type="line"/>
      <point x="194" y="375"/>
      <point x="234" y="418"/>
      <point x="300" y="418" type="curve" smooth="yes"/>
      <point x="366" y="418"/>
      <point x="406" y="375"/>
      <point x="406" y="299" type="curve" smooth="yes"/>
      <point x="406" y="217" type="line" smooth="yes"/>
      <point x="406" y="141"/>
      <point x="366" y="98"/>
    </contour>
  </outline>
</glyph>
<glyph name="p" format="2">
  <advance width="600"/>
  <unicode hex="0070"/>
  <anchor x="310.0" y="516.0" name="top"/>
  <outline>
    <contour>
      <point x="59" y="-200" type="line"/>
      <point x="207" y="-200" type="line"/>
      <point x="207" y="94" type="line"/>
      <point x="214" y="94" type="line"/>
      <point x="240" y="32"/>
      <point x="284" y="-12"/>
      <point x="367" y="-12" type="curve" smooth="yes"/>
      <point x="481" y="-12"/>
      <point x="561" y="71"/>
      <point x="561" y="258" type="curve" smooth="yes"/>
      <point x="561" y="445"/>
      <point x="481" y="528"/>
      <point x="367" y="528" type="curve" smooth="yes"/>
      <point x="284" y="528"/>
      <point x="240" y="484"/>
      <point x="214" y="422" type="curve"/>
      <point x="207" y="422" type="line"/>
      <point x="207" y="516" type="line"/>
      <point x="59" y="516" type="line"/>
    </contour>
    <contour>
      <point x="303" y="103" type="curve" smooth="yes"/>
      <point x="251" y="103"/>
      <point x="207" y="128"/>
      <point x="207" y="182" type="curve"/>
      <point x="207" y="334" type="line"/>
      <point x="207" y="388"/>
      <point x="251" y="413"/>
      <point x="303" y="413" type="curve" smooth="yes"/>
      <point x="369" y="413"/>
      <point x="407" y="370"/>
      <point x="407" y="298" type="curve" smooth="yes"/>
      <point x="407" y="218" type="line"/>
      <point x="407" y="146"/>
      <point x="369" y="103"/>
    </contour>
  </outline>
</glyph>
<glyph name="q" format="2">
  <advance width="600"/>
  <unicode hex="0071"/>
  <anchor x="290.0" y="516.0" name="top"/>
  <outline>
    <contour>
      <point x="393" y="-200" type="line"/>
      <point x="541" y="-200" type="line"/>
      <point x="541" y="516" type="line"/>
      <point x="393" y="516" type="line"/>
      <point x="393" y="422" type="line"/>
      <point x="386" y="422" type="line"/>
      <point x="360" y="484"/>
      <point x="316" y="528"/>
      <point x="233" y="528" type="curve" smooth="yes"/>
      <point x="119" y="528"/>
      <point x="39" y="445"/>
      <point x="39" y="258" type="curve" smooth="yes"/>
      <point x="39" y="71"/>
      <point x="119" y="-12"/>
      <point x="233" y="-12" type="curve" smooth="yes"/>
      <point x="316" y="-12"/>
      <point x="360" y="32"/>
      <point x="386" y="94" type="curve"/>
      <point x="393" y="94" type="line"/>
    </contour>
    <contour>
      <point x="297" y="103" type="curve" smooth="yes"/>
      <point x="231" y="103"/>
      <point x="193" y="146"/>
      <point x="193" y="218" type="curve" smooth="yes"/>
      <point x="193" y="298" type="line"/>
      <point x="193" y="370"/>
      <point x="231" y="413"/>
      <point x="297" y="413" type="curve" smooth="yes"/>
      <point x="349" y="413"/>
      <point x="393" y="388"/>
      <point x="393" y="334" type="curve"/>
      <point x="393" y="182" type="line"/>
      <point x="393" y="128"/>
      <point x="349" y="103"/>
    </contour>
  </outline>
</glyph>
<glyph name="t" format="2">
  <advance width="600"/>
  <unicode hex="0074"/>
  <anchor x="361.0" y="0.0" name="bottom"/>
  <anchor x="396.0" y="780.0" name="topright"/>
  <outline>
    <contour>
      <point x="531" y="0" type="line"/>
      <point x="531" y="115" type="line"/>
      <point x="330" y="115" type="line"/>
      <point x="330" y="401" type="line"/>
      <point x="531" y="401" type="line"/>
      <point x="531" y="516" type="line"/>
      <point x="330" y="516" type="line"/>
      <point x="330" y="698" type="line"/>
      <point x="194" y="698" type="line"/>
      <point x="194" y="577" type="line" smooth="yes"/>
      <point x="194" y="531"/>
      <point x="177" y="516"/>
      <point x="133" y="516" type="curve" smooth="yes"/>
      <point x="42" y="516" type="line"/>
      <point x="42" y="401" type="line"/>
      <point x="182" y="401" type="line"/>
      <point x="182" y="149" type="line" smooth="yes"/>
      <point x="182" y="62"/>
      <point x="233" y="0"/>
      <point x="340" y="0" type="curve" smooth="yes"/>
    </contour>
  </outline>
</glyph>
<glyph name="u" format="2">
  <advance width="600"/>
  <unicode hex="0075"/>
  <anchor x="298.0" y="0.0" name="bottom"/>
  <anchor x="535.0" y="0.0" name="bottomright"/>
  <anchor x="298.0" y="516.0" name="top"/>
  <outline>
    <contour>
      <point x="387" y="0" type="line"/>
      <point x="535" y="0" type="line"/>
      <point x="535" y="516" type="line"/>
      <point x="387" y="516" type="line"/>
      <point x="387" y="177" type="line" smooth="yes"/>
      <point x="387" y="127"/>
      <point x="342" y="102"/>
      <point x="296" y="102" type="curve" smooth="yes"/>
      <point x="238" y="102"/>
      <point x="209" y="137"/>
      <point x="209" y="202" type="curve" smooth="yes"/>
      <point x="209" y="516" type="line"/>
      <point x="61" y="516" type="line"/>
      <point x="61" y="182" type="line" smooth="yes"/>
      <point x="61" y="57"/>
      <point x="130" y="-12"/>
      <point x="229" y="-12" type="curve" smooth="yes"/>
      <point x="312" y="-12"/>
      <point x="358" y="36"/>
      <point x="381" y="94" type="curve"/>
      <point x="387" y="94" type="line"/>
    </contour>
  </outline>
</glyph>
<glyph name="v" format="2">
  <advance width="600"/>
  <unicode hex="0076"/>
  <anchor x="300.0" y="0.0" name="bottom"/>
  <anchor x="300.0" y="516.0" name="top"/>
  <outline>
    <contour>
      <point x="388" y="0" type="line"/>
      <point x="573" y="516" type="line"/>
      <point x="423" y="516" type="line"/>
      <point x="356" y="295" type="line"/>
      <point x="307" y="123" type="line"/>
      <point x="299" y="123" type="line"/>
      <point x="250" y="295" type="line"/>
      <point x="183" y="516" type="line"/>
      <point x="27" y="516" type="line"/>
      <point x="212" y="0" type="line"/>
    </contour>
  </outline>
</glyph>
<glyph name="w" format="2">
  <advance width="600"/>
  <unicode hex="0077"/>
  <anchor x="300.0" y="0.0" name="bottom"/>
  <anchor x="300.0" y="516.0" name="top"/>
  <outline>
    <contour>
      <point x="68" y="0" type="line"/>
      <point x="244" y="0" type="line"/>
      <point x="295" y="356" type="line"/>
      <point x="305" y="356" type="line"/>
      <point x="356" y="0" type="line"/>
      <point x="532" y="0" type="line"/>
      <point x="593" y="516" type="line"/>
      <point x="476" y="516" type="line"/>
      <point x="438" y="98" type="line"/>
      <point x="428" y="98" type="line"/>
      <point x="368" y="516" type="line"/>
      <point x="238" y="516" type="line"/>
      <point x="177" y="98" type="line"/>
      <point x="167" y="98" type="line"/>
      <point x="130" y="516" type="line"/>
      <point x="7" y="516" type="line"/>
    </contour>
  </outline>
</glyph>
<glyph name="x" format="2">
  <advance width="600"/>
  <unicode hex="0078"/>
  <anchor x="300.0" y="0.0" name="bottom"/>
  <anchor x="300.0" y="516.0" name="top"/>
  <outline>
    <contour>
      <point x="179" y="0" type="line"/>
      <point x="245" y="97" type="line"/>
      <point x="289" y="166" type="line"/>
      <point x="297" y="166" type="line"/>
      <point x="342" y="97" type="line"/>
      <point x="407" y="0" type="line"/>
      <point x="577" y="0" type="line"/>
      <point x="384" y="270" type="line"/>
      <point x="564" y="516" type="line"/>
      <point x="409" y="516" type="line"/>
      <point x="353" y="433" type="line"/>
      <point x="310" y="366" type="line"/>
      <point x="302" y="366" type="line"/>
      <point x="260" y="433" type="line"/>
      <point x="205" y="516" type="line"/>
      <point x="36" y="516" type="line"/>
      <point x="216" y="262" type="line"/>
      <point x="23" y="0" type="line"/>
    </contour>
  </outline>
</glyph>
<glyph name="z" format="2">
  <advance width="600"/>
  <unicode hex="007A"/>
  <anchor x="300.0" y="0.0" name="bottom"/>
  <anchor x="300.0" y="516.0" name="top"/>
  <outline>
    <contour>
      <point x="534" y="0" type="line"/>
      <point x="534" y="115" type="line"/>
      <point x="237" y="115" type="line"/>
      <point x="524" y="393" type="line"/>
      <point x="524" y="516" type="line"/>
      <point x="76" y="516" type="line"/>
      <point x="76" y="401" type="line"/>
      <point x="353" y="401" type="line"/>
      <point x="66" y="123" type="line"/>
      <point x="66" y="0" type="line"/>
    </contour>
  </outline>
</glyph>
<glyph name="bar" format="2">
  <advance width="600"/>
  <unicode hex="007C"/>
  <outline>
    <contour>
      <point x="363" y="-138" type="line"/>
      <point x="363" y="760" type="line"/>
      <point x="237" y="760" type="line"/>
      <point x="237" y="-138" type="line"/>
    </contour>
  </outline>
</glyph>
<glyph name="cent" format="2">
  <advance width="600"/>
  <unicode hex="00A2"/>
  <outline>
    <contour>
      <point x="372" y="-114" type="line"/>
      <point x="372" y="-8" type="line"/>
      <point x="457" y="5"/>
      <point x="512" y="51"/>
      <point x="543" y="114" type="curve"/>
      <point x="438" y="173" type="line"/>
      <point x="422" y="143"/>
      <point x="397" y="116"/>
      <point x="363" y="104" type="curve"/>
      <point x="363" y="411" type="line"/>
      <point x="394" y="398"/>
      <point x="415" y="372"/>
      <point x="428" y="344" type="curve"/>
      <point x="535" y="402" type="line"/>
      <point x="505" y="465"/>
      <point x="454" y="511"/>
      <point x="372" y="524" type="curve"/>
      <point x="372" y="630" type="line"/>
      <point x="258" y="630" type="line"/>
      <point x="258" y="522" type="line"/>
      <point x="134" y="499"/>
      <point x="60" y="402"/>
      <point x="60" y="258" type="curve" smooth="yes"/>
      <point x="60" y="114"/>
      <point x="133" y="17"/>
      <point x="258" y="-6" type="curve"/>
      <point x="258" y="-114" type="line"/>
    </contour>
    <contour>
      <point x="202" y="216" type="curve" smooth="yes"/>
      <point x="202" y="300" type="line" smooth="yes"/>
      <point x="202" y="353"/>
      <point x="225" y="393"/>
      <point x="268" y="410" type="curve"/>
      <point x="268" y="106" type="line"/>
      <point x="224" y="124"/>
      <point x="202" y="164"/>
    </contour>
  </outline>
</glyph>
<glyph name="sterling" format="2">
  <advance width="600"/>
  <unicode hex="00A3"/>
  <outline>
    <contour>
      <point x="553" y="0" type="line"/>
      <point x="553" y="128" type="line"/>
      <point x="224" y="128" type="line"/>
      <point x="224" y="137" type="line"/>
      <point x="260" y="156"/>
      <point x="302" y="194"/>
      <point x="302" y="262" type="curve" smooth="yes"/>
      <point x="302" y="269" type="line"/>
      <point x="442" y="269" type="line"/>
      <point x="442" y="379" type="line"/>
      <point x="267" y="379" type="line"/>
      <point x="253" y="411"/>
      <point x="239" y="443"/>
      <point x="239" y="480" type="curve" smooth="yes"/>
      <point x="239" y="544"/>
      <point x="278" y="581"/>
      <point x="340" y="581" type="curve" smooth="yes"/>
      <point x="395" y="581"/>
      <point x="429" y="552"/>
      <point x="460" y="512" type="curve"/>
      <point x="559" y="605" type="line"/>
      <point x="508" y="672"/>
      <point x="436" y="710"/>
      <point x="335" y="710" type="curve" smooth="yes"/>
      <point x="186" y="710"/>
      <point x="86" y="627"/>
      <point x="86" y="504" type="curve" smooth="yes"/>
      <point x="86" y="456"/>
      <point x="101" y="416"/>
      <point x="117" y="379" type="curve"/>
      <point x="46" y="379" type="line"/>
      <point x="46" y="269" type="line"/>
      <point x="153" y="269" type="line"/>
      <point x="154" y="265"/>
      <point x="154" y="261"/>
      <point x="154" y="257" type="curve" smooth="yes"/>
      <point x="154" y="201"/>
      <point x="122" y="159"/>
      <point x="69" y="136" type="curve"/>
      <point x="69" y="0" type="line"/>
    </contour>
  </outline>
</glyph>
<glyph name="yen" format="2">
  <advance width="600"/>
  <unicode hex="00A5"/>
  <outline>
    <contour>
      <point x="56" y="0" type="line"/>
      <point x="544" y="0" type="line"/>
      <point x="544" y="113" type="line"/>
      <point x="371" y="113" type="line"/>
      <point x="371" y="221" type="line"/>
      <point x="544" y="221" type="line"/>
      <point x="544" y="334" type="line"/>
      <point x="441" y="334" type="line"/>
      <point x="600" y="698" type="line"/>
      <point x="449" y="698" type="line"/>
      <point x="307" y="334" type="line"/>
      <point x="297" y="334" type="line"/>
      <point x="156" y="698" type="line"/>
      <point x="0" y="698" type="line"/>
      <point x="160" y="334" type="line"/>
      <point x="56" y="334" type="line"/>
      <point x="56" y="221" type="line"/>
      <point x="229" y="221" type="line"/>
      <point x="229" y="113" type="line"/>
      <point x="56" y="113" type="line"/>
    </contour>
  </outline>
</glyph>
<glyph name="section" format="2">
  <advance width="600"/>
  <unicode hex="00A7"/>
  <outline>
    <contour>
      <point x="511" y="3" type="curve" smooth="yes"/>
      <point x="511" y="59"/>
      <point x="487" y="108"/>
      <point x="432" y="143" type="curve"/>
      <point x="432" y="159" type="line"/>
      <point x="507" y="190"/>
      <point x="542" y="239"/>
      <point x="542" y="296" type="curve" smooth="yes"/>
      <point x="542" y="355"/>
      <point x="503" y="415"/>
      <point x="388" y="446" type="curve" smooth="yes"/>
      <point x="310" y="467" type="line" smooth="yes"/>
      <point x="249" y="483"/>
      <point x="221" y="501"/>
      <point x="221" y="537" type="curve" smooth="yes"/>
      <point x="221" y="578"/>
      <point x="259" y="605"/>
      <point x="317" y="605" type="curve" smooth="yes"/>
      <point x="367" y="605"/>
      <point x="411" y="585"/>
      <point x="446" y="550" type="curve"/>
      <point x="519" y="638" type="line"/>
      <point x="461" y="691"/>
      <point x="387" y="710"/>
      <point x="318" y="710" type="curve" smooth="yes"/>
      <point x="187" y="710"/>
      <point x="96" y="640"/>
      <point x="96" y="531" type="curve" smooth="yes"/>
      <point x="96" y="475"/>
      <point x="120" y="426"/>
      <point x="175" y="391" type="curve"/>
      <point x="175" y="375" type="line"/>
      <point x="100" y="344"/>
      <point x="65" y="295"/>
      <point x="65" y="238" type="curve" smooth="yes"/>
      <point x="65" y="179"/>
      <point x="104" y="119"/>
      <point x="219" y="88" type="curve" smooth="yes"/>
      <point x="297" y="67" type="line" smooth="yes"/>
      <point x="358" y="51"/>
      <point x="386" y="33"/>
      <point x="386" y="-3" type="curve" smooth="yes"/>
      <point x="386" y="-44"/>
      <point x="348" y="-71"/>
      <point x="290" y="-71" type="curve" smooth="yes"/>
      <point x="240" y="-71"/>
      <point x="196" y="-51"/>
      <point x="161" y="-16" type="curve"/>
      <point x="88" y="-104" type="line"/>
      <point x="146" y="-157"/>
      <point x="220" y="-176"/>
      <point x="289" y="-176" type="curve" smooth="yes"/>
      <point x="420" y="-176"/>
      <point x="511" y="-106"/>
    </contour>
    <contour>
      <point x="419" y="252" type="curve" smooth="yes"/>
      <point x="419" y="221"/>
      <point x="405" y="194"/>
      <point x="381" y="168" type="curve"/>
      <point x="371" y="172"/>
      <point x="360" y="176"/>
      <point x="348" y="179" type="curve" smooth="yes"/>
      <point x="271" y="200" type="line" smooth="yes"/>
      <point x="205" y="218"/>
      <point x="188" y="248"/>
      <point x="188" y="282" type="curve" smooth="yes"/>
      <point x="188" y="313"/>
      <point x="202" y="340"/>
      <point x="226" y="366" type="curve"/>
      <point x="236" y="362"/>
      <point x="247" y="358"/>
      <point x="259" y="355" type="curve" smooth="yes"/>
      <point x="336" y="334" type="line" smooth="yes"/>
      <point x="402" y="316"/>
      <point x="419" y="286"/>
    </contour>
  </outline>
</glyph>
<glyph name="dieresis" format="2">
  <advance width="600"/>
  <unicode hex="00A8"/>
  <anchor x="300.0" y="516.0" name="_top"/>
  <outline>
    <contour>
      <point x="190" y="591" type="curve" smooth="yes"/>
      <point x="250" y="591"/>
      <point x="271" y="619"/>
      <point x="271" y="654" type="curve" smooth="yes"/>
      <point x="271" y="680" type="line" smooth="yes"/>
      <point x="271" y="715"/>
      <point x="250" y="742"/>
      <point x="190" y="742" type="curve" smooth="yes"/>
      <point x="131" y="742"/>
      <point x="110" y="715"/>
      <point x="110" y="680" type="curve" smooth="yes"/>
      <point x="110" y="654" type="line" smooth="yes"/>
      <point x="110" y="619"/>
      <point x="131" y="591"/>
    </contour>
    <contour>
      <point x="410" y="591" type="curve" smooth="yes"/>
      <point x="469" y="591"/>
      <point x="490" y="619"/>
      <point x="490" y="654" type="curve" smooth="yes"/>
      <point x="490" y="680" type="line" smooth="yes"/>
      <point x="490" y="715"/>
      <point x="469" y="742"/>
      <point x="410" y="742" type="curve" smooth="yes"/>
      <point x="350" y="742"/>
      <point x="329" y="715"/>
      <point x="329" y="680" type="curve" smooth="yes"/>
      <point x="329" y="654" type="line" smooth="yes"/>
      <point x="329" y="619"/>
      <point x="350" y="591"/>
    </contour>
  </outline>
</glyph>
<glyph name="ordfeminine" format="2">
  <advance width="600"/>
  <unicode hex="00AA"/>
  <outline>
    <contour>
      <point x="489" y="340" type="line"/>
      <point x="489" y="415" type="line"/>
      <point x="449" y="415" type="line"/>
      <point x="449" y="573" type="line" smooth="yes"/>
      <point x="449" y="664"/>
      <point x="390" y="710"/>
      <point x="292" y="710" type="curve" smooth="yes"/>
      <point x="211" y="710"/>
      <point x="159" y="680"/>
      <point x="135" y="639" type="curve"/>
      <point x="191" y="589" type="line"/>
      <point x="211" y="615"/>
      <point x="236" y="634"/>
      <point x="280" y="634" type="curve" smooth="yes"/>
      <point x="327" y="634"/>
      <point x="345" y="612"/>
      <point x="345" y="569" type="curve" smooth="yes"/>
      <point x="345" y="551" type="line"/>
      <point x="287" y="551" type="line" smooth="yes"/>
      <point x="182" y="551"/>
      <point x="125" y="515"/>
      <point x="125" y="440" type="curve" smooth="yes"/>
      <point x="125" y="372"/>
      <point x="171" y="332"/>
      <point x="241" y="332" type="curve" smooth="yes"/>
      <point x="296" y="332"/>
      <point x="338" y="357"/>
      <point x="351" y="404" type="curve"/>
      <point x="355" y="404" type="line"/>
      <point x="359" y="363"/>
      <point x="387" y="340"/>
      <point x="429" y="340" type="curve" smooth="yes"/>
    </contour>
    <contour>
      <point x="345" y="495" type="line"/>
      <point x="345" y="452" type="line" smooth="yes"/>
      <point x="345" y="418"/>
      <point x="317" y="400"/>
      <point x="280" y="400" type="curve" smooth="yes"/>
      <point x="247" y="400"/>
      <point x="226" y="413"/>
      <point x="226" y="438" type="curve" smooth="yes"/>
      <point x="226" y="452" type="line" smooth="yes"/>
      <point x="226" y="480"/>
      <point x="249" y="495"/>
      <point x="290" y="495" type="curve" smooth="yes"/>
    </contour>
  </outline>
</glyph>
<glyph name="logicalnot" format="2">
  <advance width="600"/>
  <unicode hex="00AC"/>
  <outline>
    <contour>
      <point x="522" y="54" type="line"/>
      <point x="522" y="364" type="line"/>
      <point x="62" y="364" type="line"/>
      <point x="62" y="246" type="line"/>
      <point x="401" y="246" type="line"/>
      <point x="401" y="54" type="line"/>
    </contour>
  </outline>
</glyph>
<glyph name="macron" format="2">
  <advance width="600"/>
  <unicode hex="00AF"/>
  <anchor x="300.0" y="516.0" name="_top"/>
  <outline>
    <contour>
      <point x="147" y="615" type="line"/>
      <point x="453" y="615" type="line"/>
      <point x="453" y="718" type="line"/>
      <point x="147" y="718" type="line"/>
    </contour>
  </outline>
</glyph>
<glyph name="degree" format="2">
  <advance width="600"/>
  <unicode hex="00B0"/>
  <outline>
    <contour>
      <point x="300" y="334" type="curve" smooth="yes"/>
      <point x="406" y="334"/>
      <point x="488" y="415"/>
      <point x="488" y="522" type="curve" smooth="yes"/>
      <point x="488" y="629"/>
      <point x="406" y="710"/>
      <point x="300" y="710" type="curve" smooth="yes"/>
      <point x="194" y="710"/>
      <point x="112" y="629"/>
      <point x="112" y="522" type="curve" smooth="yes"/>
      <point x="112" y="415"/>
      <point x="194" y="334"/>
    </contour>
    <contour>
      <point x="300" y="429" type="curve" smooth="yes"/>
      <point x="248" y="429"/>
      <point x="214" y="470"/>
      <point x="214" y="522" type="curve" smooth="yes"/>
      <point x="214" y="574"/>
      <point x="248" y="615"/>
      <point x="300" y="615" type="curve" smooth="yes"/>
      <point x="352" y="615"/>
      <point x="386" y="574"/>
      <point x="386" y="522" type="curve" smooth="yes"/>
      <point x="386" y="470"/>
      <point x="352" y="429"/>
    </contour>
  </outline>
</glyph>
<glyph name="plusminus" format="2">
  <advance width="600"/>
  <unicode hex="00B1"/>
  <outline>
    <contour>
      <point x="364" y="184" type="line"/>
      <point x="364" y="350" type="line"/>
      <point x="538" y="350" type="line"/>
      <point x="538" y="468" type="line"/>
      <point x="364" y="468" type="line"/>
      <point x="364" y="634" type="line"/>
      <point x="236" y="634" type="line"/>
      <point x="236" y="468" type="line"/>
      <point x="62" y="468" type="line"/>
      <point x="62" y="350" type="line"/>
      <point x="236" y="350" type="line"/>
      <point x="236" y="184" type="line"/>
    </contour>
    <contour>
      <point x="538" y="0" type="line"/>
      <point x="538" y="119" type="line"/>
      <point x="62" y="119" type="line"/>
      <point x="62" y="0" type="line"/>
    </contour>
  </outline>
</glyph>
<glyph name="twosuperior" format="2">
  <advance width="600"/>
  <unicode hex="00B2"/>
  <outline>
    <contour>
      <point x="450" y="412" type="line"/>
      <point x="273" y="412" type="line"/>
      <point x="332" y="445" type="line" smooth="yes"/>
      <point x="391" y="478"/>
      <point x="446" y="522"/>
      <point x="446" y="590" type="curve" smooth="yes"/>
      <point x="446" y="656"/>
      <point x="394" y="704"/>
      <point x="304" y="704" type="curve" smooth="yes"/>
      <point x="220" y="704"/>
      <point x="169" y="662"/>
      <point x="150" y="606" type="curve"/>
      <point x="239" y="573" type="line"/>
      <point x="246" y="597"/>
      <point x="261" y="618"/>
      <point x="294" y="618" type="curve" smooth="yes"/>
      <point x="313" y="618"/>
      <point x="337" y="611"/>
      <point x="337" y="584" type="curve" smooth="yes"/>
      <point x="337" y="583" type="line" smooth="yes"/>
      <point x="337" y="553"/>
      <point x="320" y="538"/>
      <point x="270" y="500" type="curve" smooth="yes"/>
      <point x="161" y="417" type="line"/>
      <point x="161" y="329" type="line"/>
      <point x="450" y="329" type="line"/>
    </contour>
  </outline>
</glyph>
<glyph name="mu" format="2">
  <advance width="600"/>
  <unicode hex="00B5"/>
  <outline>
    <contour>
      <point x="213" y="-200" type="line"/>
      <point x="213" y="-103" type="line"/>
      <point x="184" y="30" type="line"/>
      <point x="190" y="30" type="line"/>
      <point x="212" y="-3"/>
      <point x="237" y="-12"/>
      <point x="263" y="-12" type="curve" smooth="yes"/>
      <point x="327" y="-12"/>
      <point x="365" y="40"/>
      <point x="381" y="94" type="curve"/>
      <point x="387" y="94" type="line"/>
      <point x="387" y="0" type="line"/>
      <point x="535" y="0" type="line"/>
      <point x="535" y="516" type="line"/>
      <point x="387" y="516" type="line"/>
      <point x="387" y="177" type="line" smooth="yes"/>
      <point x="387" y="127"/>
      <point x="343" y="102"/>
      <point x="298" y="102" type="curve" smooth="yes"/>
      <point x="241" y="102"/>
      <point x="213" y="140"/>
      <point x="213" y="212" type="curve" smooth="yes"/>
      <point x="213" y="516" type="line"/>
      <point x="65" y="516" type="line"/>
      <point x="65" y="-200" type="line"/>
    </contour>
  </outline>
</glyph>
<glyph name="paragraph" format="2">
  <advance width="600"/>
  <unicode hex="00B6"/>
  <outline>
    <contour>
      <point x="245" y="-149" type="line"/>
      <point x="364" y="-149" type="line"/>
      <point x="364" y="582" type="line"/>
      <point x="433" y="582" type="line"/>
      <point x="433" y="-149" type="line"/>
      <point x="552" y="-149" type="line"/>
      <point x="552" y="698" type="line"/>
      <point x="245" y="698" type="line" smooth="yes"/>
      <point x="121" y="698"/>
      <point x="20" y="603"/>
      <point x="20" y="472" type="curve" smooth="yes"/>
      <point x="20" y="341"/>
      <point x="121" y="246"/>
      <point x="245" y="246" type="curve"/>
    </contour>
  </outline>
</glyph>
<glyph name="periodcentered" format="2">
  <advance width="600"/>
  <unicode hex="00B7"/>
  <outline>
    <contour>
      <point x="300" y="204" type="curve" smooth="yes"/>
      <point x="375" y="204"/>
      <point x="405" y="242"/>
      <point x="405" y="287" type="curve" smooth="yes"/>
      <point x="405" y="322" type="line" smooth="yes"/>
      <point x="405" y="367"/>
      <point x="375" y="405"/>
      <point x="300" y="405" type="curve" smooth="yes"/>
      <point x="225" y="405"/>
      <point x="195" y="367"/>
      <point x="195" y="322" type="curve" smooth="yes"/>
      <point x="195" y="287" type="line" smooth="yes"/>
      <point x="195" y="242"/>
      <point x="225" y="204"/>
    </contour>
  </outline>
</glyph>
<glyph name="onesuperior" format="2">
  <advance width="600"/>
  <unicode hex="00B9"/>
  <outline>
    <contour>
      <point x="463" y="329" type="line"/>
      <point x="463" y="408" type="line"/>
      <point x="382" y="408" type="line"/>
      <point x="382" y="698" type="line"/>
      <point x="232" y="698" type="line"/>
      <point x="147" y="583" type="line"/>
      <point x="214" y="535" type="line"/>
      <point x="275" y="618" type="line"/>
      <point x="281" y="618" type="line"/>
      <point x="281" y="408" type="line"/>
      <point x="188" y="408" type="line"/>
      <point x="188" y="329" type="line"/>
    </contour>
  </outline>
</glyph>
<glyph name="ordmasculine" format="2">
  <advance width="600"/>
  <unicode hex="00BA"/>
  <outline>
    <contour>
      <point x="300" y="332" type="curve" smooth="yes"/>
      <point x="413" y="332"/>
      <point x="481" y="404"/>
      <point x="481" y="521" type="curve" smooth="yes"/>
      <point x="481" y="638"/>
      <point x="413" y="710"/>
      <point x="300" y="710" type="curve" smooth="yes"/>
      <point x="187" y="710"/>
      <point x="119" y="638"/>
      <point x="119" y="521" type="curve" smooth="yes"/>
      <point x="119" y="404"/>
      <point x="187" y="332"/>
    </contour>
    <contour>
      <point x="300" y="409" type="curve" smooth="yes"/>
      <point x="254" y="409"/>
      <point x="226" y="439"/>
      <point x="226" y="492" type="curve" smooth="yes"/>
      <point x="226" y="550" type="line" smooth="yes"/>
      <point x="226" y="603"/>
      <point x="254" y="633"/>
      <point x="300" y="633" type="curve" smooth="yes"/>
      <point x="346" y="633"/>
      <point x="374" y="603"/>
      <point x="374" y="550" type="curve" smooth="yes"/>
      <point x="374" y="492" type="line" smooth="yes"/>
      <point x="374" y="439"/>
      <point x="346" y="409"/>
    </contour>
  </outline>
</glyph>
<glyph name="AE" format="2">
  <advance width="600"/>
  <unicode hex="00C6"/>
  <anchor x="364.0" y="698.0" name="top"/>
  <outline>
    <contour>
      <point x="279" y="0" type="line"/>
      <point x="572" y="0" type="line"/>
      <point x="572" y="111" type="line"/>
      <point x="417" y="111" type="line"/>
      <point x="417" y="298" type="line"/>
      <point x="562" y="298" type="line"/>
      <point x="562" y="409" type="line"/>
      <point x="417" y="409" type="line"/>
      <point x="417" y="587" type="line"/>
      <point x="572" y="587" type="line"/>
      <point x="572" y="698" type="line"/>
      <point x="155" y="698" type="line"/>
      <point x="-4" y="0" type="line"/>
      <point x="142" y="0" type="line"/>
      <point x="175" y="168" type="line"/>
      <point x="279" y="168" type="line"/>
    </contour>
    <contour>
      <point x="279" y="594" type="line"/>
      <point x="279" y="279" type="line"/>
      <point x="197" y="279" type="line"/>
      <point x="257" y="594" type="line"/>
    </contour>
  </outline>
</glyph>
<glyph name="multiply" format="2">
  <advance width="600"/>
  <unicode hex="00D7"/>
  <outline>
    <contour>
      <point x="445" y="75" type="line"/>
      <point x="530" y="160" type="line"/>
      <point x="385" y="305" type="line"/>
      <point x="530" y="450" type="line"/>
      <point x="445" y="535" type="line"/>
      <point x="300" y="390" type="line"/>
      <point x="155" y="535" type="line"/>
      <point x="70" y="450" type="line"/>
      <point x="215" y="305" type="line"/>
      <point x="70" y="160" type="line"/>
      <point x="155" y="75" type="line"/>
      <point x="300" y="220" type="line"/>
    </contour>
  </outline>
</glyph>
<glyph name="Thorn" format="2">
  <advance width="600"/>
  <unicode hex="00DE"/>
  <outline>
    <contour>
      <point x="227" y="0" type="line"/>
      <point x="227" y="133" type="line"/>
      <point x="341" y="133" type="line" smooth="yes"/>
      <point x="479" y="133"/>
      <point x="555" y="221"/>
      <point x="555" y="355" type="curve" smooth="yes"/>
      <point x="555" y="489"/>
      <point x="479" y="577"/>
      <point x="341" y="577" type="curve" smooth="yes"/>
      <point x="227" y="577" type="line"/>
      <point x="227" y="698" type="line"/>
      <point x="76" y="698" type="line"/>
      <point x="76" y="0" type="line"/>
    </contour>
    <contour>
      <point x="227" y="456" type="line"/>
      <point x="304" y="456" type="line" smooth="yes"/>
      <point x="374" y="456"/>
      <point x="398" y="431"/>
      <point x="398" y="370" type="curve" smooth="yes"/>
      <point x="398" y="340" type="line"/>
      <point x="398" y="279"/>
      <point x="374" y="254"/>
      <point x="304" y="254" type="curve" smooth="yes"/>
      <point x="227" y="254" type="line"/>
    </contour>
  </outline>
</glyph>
<glyph name="ccedilla" format="2">
  <advance width="600"/>
  <unicode hex="00E7"/>
  <anchor x="314.0" y="516.0" name="top"/>
  <outline>
    <contour>
      <point x="320" y="528" type="curve" smooth="yes"/>
      <point x="159" y="528"/>
      <point x="60" y="425"/>
      <point x="60" y="258" type="curve" smooth="yes"/>
      <point x="60" y="111"/>
      <point x="136" y="14"/>
      <point x="265" y="-7" type="curve"/>
      <point x="251" y="-74" type="line"/>
      <point x="272" y="-76" type="line" smooth="yes"/>
      <point x="334" y="-82"/>
      <point x="347" y="-101"/>
      <point x="347" y="-116" type="curve" smooth="yes"/>
      <point x="347" y="-133"/>
      <point x="328" y="-141"/>
      <point x="303" y="-141" type="curve" smooth="yes"/>
      <point x="272" y="-141"/>
      <point x="250" y="-128"/>
      <point x="237" y="-112" type="curve"/>
      <point x="191" y="-168" type="line"/>
      <point x="208" y="-188"/>
      <point x="246" y="-212"/>
      <point x="315" y="-212" type="curve" smooth="yes"/>
      <point x="383" y="-212"/>
      <point x="447" y="-189"/>
      <point x="447" y="-121" type="curve" smooth="yes"/>
      <point x="447" y="-72"/>
      <point x="414" y="-52"/>
      <point x="374" y="-52" type="curve" smooth="yes"/>
      <point x="358" y="-52"/>
      <point x="342" y="-55"/>
      <point x="326" y="-59" type="curve"/>
      <point x="322" y="-55" type="line"/>
      <point x="331" y="-12" type="line"/>
      <point x="440" y="-9"/>
      <point x="507" y="41"/>
      <point x="543" y="114" type="curve"/>
      <point x="431" y="178" type="line"/>
      <point x="409" y="136"/>
      <point x="379" y="106"/>
      <point x="322" y="106" type="curve" smooth="yes"/>
      <point x="252" y="106"/>
      <point x="214" y="148"/>
      <point x="214" y="216" type="curve" smooth="yes"/>
      <point x="214" y="300" type="line" smooth="yes"/>
      <point x="214" y="368"/>
      <point x="253" y="410"/>
      <point x="320" y="410" type="curve" smooth="yes"/>
      <point x="375" y="410"/>
      <point x="403" y="380"/>
      <point x="421" y="340" type="curve"/>
      <point x="535" y="402" type="line"/>
      <point x="499" y="477"/>
      <point x="433" y="528"/>
    </contour>
  </outline>
</glyph>
<glyph name="eth" format="2">
  <advance width="600"/>
  <unicode hex="00F0"/>
  <outline>
    <contour>
      <point x="433" y="753" type="line"/>
      <point x="348" y="703" type="line"/>
      <point x="331" y="716"/>
      <point x="314" y="729"/>
      <point x="297" y="740" type="curve"/>
      <point x="71" y="740" type="line"/>
      <point x="130" y="709"/>
      <point x="185" y="674"/>
      <point x="233" y="636" type="curve"/>
      <point x="151" y="588" type="line"/>
      <point x="202" y="528" type="line"/>
      <point x="294" y="582" type="line"/>
      <point x="350" y="528"/>
      <point x="390" y="469"/>
      <point x="408" y="408" type="curve"/>
      <point x="399" y="404" type="line"/>
      <point x="367" y="463"/>
      <point x="317" y="500"/>
      <point x="242" y="500" type="curve" smooth="yes"/>
      <point x="120" y="500"/>
      <point x="40" y="402"/>
      <point x="40" y="253" type="curve" smooth="yes"/>
      <point x="40" y="89"/>
      <point x="138" y="-12"/>
      <point x="303" y="-12" type="curve" smooth="yes"/>
      <point x="457" y="-12"/>
      <point x="561" y="75"/>
      <point x="561" y="278" type="curve" smooth="yes"/>
      <point x="561" y="440"/>
      <point x="495" y="560"/>
      <point x="408" y="649" type="curve"/>
      <point x="483" y="693" type="line"/>
    </contour>
    <contour>
      <point x="302" y="98" type="curve" smooth="yes"/>
      <point x="236" y="98"/>
      <point x="193" y="141"/>
      <point x="193" y="217" type="curve" smooth="yes"/>
      <point x="193" y="271" type="line" smooth="yes"/>
      <point x="193" y="346"/>
      <point x="233" y="388"/>
      <point x="301" y="388" type="curve" smooth="yes"/>
      <point x="366" y="388"/>
      <point x="408" y="349"/>
      <point x="408" y="273" type="curve" smooth="yes"/>
      <point x="408" y="217" type="line" smooth="yes"/>
      <point x="408" y="141"/>
      <point x="368" y="98"/>
    </contour>
  </outline>
</glyph>
<glyph name="divide" format="2">
  <advance width="600"/>
  <unicode hex="00F7"/>
  <outline>
    <contour>
      <point x="538" y="246" type="line"/>
      <point x="538" y="364" type="line"/>
      <point x="62" y="364" type="line"/>
      <point x="62" y="246" type="line"/>
    </contour>
    <contour>
      <point x="300" y="29" type="curve" smooth="yes"/>
      <point x="363" y="29"/>
      <point x="388" y="59"/>
      <point x="388" y="98" type="curve" smooth="yes"/>
      <point x="388" y="122" type="line" smooth="yes"/>
      <point x="388" y="160"/>
      <point x="363" y="191"/>
      <point x="300" y="191" type="curve" smooth="yes"/>
      <point x="237" y="191"/>
      <point x="212" y="160"/>
      <point x="212" y="122" type="curve" smooth="yes"/>
      <point x="212" y="98" type="line" smooth="yes"/>
      <point x="212" y="59"/>
      <point x="237" y="29"/>
    </contour>
    <contour>
      <point x="300" y="419" type="curve" smooth="yes"/>
      <point x="363" y="419"/>
      <point x="388" y="450"/>
      <point x="388" y="488" type="curve" smooth="yes"/>
      <point x="388" y="512" type="line" smooth="yes"/>
      <point x="388" y="551"/>
      <point x="363" y="581"/>
      <point x="300" y="581" type="curve" smooth="yes"/>
      <point x="237" y="581"/>
      <point x="212" y="551"/>
      <point x="212" y="512" type="curve" smooth="yes"/>
      <point x="212" y="488" type="line" smooth="yes"/>
      <point x="212" y="450"/>
      <point x="237" y="419"/>
    </contour>
  </outline>
</glyph>
<glyph name="Aogonek" format="2">
  <advance width="600"/>
  <unicode hex="0104"/>
  <anchor x="300.0" y="0.0" name="bottom"/>
  <anchor x="300.0" y="698.0" name="top"/>
  <outline>
    <contour>
      <point x="5" y="0" type="line"/>
      <point x="157" y="0" type="line"/>
      <point x="200" y="168" type="line"/>
      <point x="391" y="168" type="line"/>
      <point x="435" y="0" type="line"/>
      <point x="498" y="0" type="line"/>
      <point x="500" y="-4" type="line"/>
      <point x="426" y="-38"/>
      <point x="381" y="-71"/>
      <point x="381" y="-127" type="curve" smooth="yes"/>
      <point x="381" y="-191"/>
      <point x="439" y="-212"/>
      <point x="505" y="-212" type="curve" smooth="yes"/>
      <point x="568" y="-212"/>
      <point x="610" y="-193"/>
      <point x="627" y="-161" type="curve"/>
      <point x="574" y="-110" type="line"/>
      <point x="560" y="-126"/>
      <point x="543" y="-138"/>
      <point x="519" y="-138" type="curve" smooth="yes"/>
      <point x="499" y="-138"/>
      <point x="481" y="-130"/>
      <point x="481" y="-105" type="curve" smooth="yes"/>
      <point x="481" y="-81"/>
      <point x="497" y="-60"/>
      <point x="595" y="0" type="curve"/>
      <point x="406" y="698" type="line"/>
      <point x="194" y="698" type="line"/>
    </contour>
    <contour>
      <point x="368" y="289" type="line"/>
      <point x="224" y="289" type="line"/>
      <point x="292" y="553" type="line"/>
      <point x="300" y="553" type="line"/>
    </contour>
  </outline>
</glyph>
<glyph name="aogonek" format="2">
  <advance width="600"/>
  <unicode hex="0105"/>
  <anchor x="292.0" y="0.0" name="bottom"/>
  <anchor x="292.0" y="516.0" name="top"/>
  <outline>
    <contour>
      <point x="572" y="107" type="line"/>
      <point x="515" y="107" type="line"/>
      <point x="515" y="333" type="line" smooth="yes"/>
      <point x="515" y="463"/>
      <point x="431" y="528"/>
      <point x="290" y="528" type="curve" smooth="yes"/>
      <point x="175" y="528"/>
      <point x="100" y="485"/>
      <point x="66" y="427" type="curve"/>
      <point x="147" y="355" type="line"/>
      <point x="175" y="393"/>
      <point x="211" y="420"/>
      <point x="273" y="420" type="curve" smooth="yes"/>
      <point x="341" y="420"/>
      <point x="367" y="388"/>
      <point x="367" y="327" type="curve" smooth="yes"/>
      <point x="367" y="301" type="line"/>
      <point x="284" y="301" type="line" smooth="yes"/>
      <point x="133" y="301"/>
      <point x="52" y="250"/>
      <point x="52" y="142" type="curve" smooth="yes"/>
      <point x="52" y="45"/>
      <point x="118" y="-12"/>
      <point x="218" y="-12" type="curve" smooth="yes"/>
      <point x="297" y="-12"/>
      <point x="357" y="24"/>
      <point x="375" y="91" type="curve"/>
      <point x="380" y="91" type="line"/>
      <point x="385" y="36"/>
      <point x="420" y="4"/>
      <point x="475" y="0" type="curve"/>
      <point x="477" y="-4" type="line"/>
      <point x="403" y="-38"/>
      <point x="358" y="-71"/>
      <point x="358" y="-127" type="curve" smooth="yes"/>
      <point x="358" y="-191"/>
      <point x="416" y="-212"/>
      <point x="482" y="-212" type="curve" smooth="yes"/>
      <point x="545" y="-212"/>
      <point x="587" y="-193"/>
      <point x="604" y="-161" type="curve"/>
      <point x="551" y="-110" type="line"/>
      <point x="537" y="-126"/>
      <point x="520" y="-138"/>
      <point x="496" y="-138" type="curve" smooth="yes"/>
      <point x="476" y="-138"/>
      <point x="458" y="-130"/>
      <point x="458" y="-105" type="curve" smooth="yes"/>
      <point x="458" y="-81"/>
      <point x="474" y="-60"/>
      <point x="572" y="0" type="curve"/>
    </contour>
    <contour>
      <point x="367" y="221" type="line"/>
      <point x="367" y="159" type="line" smooth="yes"/>
      <point x="367" y="111"/>
      <point x="326" y="85"/>
      <point x="273" y="85" type="curve" smooth="yes"/>
      <point x="227" y="85"/>
      <point x="197" y="104"/>
      <point x="197" y="140" type="curve" smooth="yes"/>
      <point x="197" y="160" type="line" smooth="yes"/>
      <point x="197" y="200"/>
      <point x="229" y="221"/>
      <point x="288" y="221" type="curve" smooth="yes"/>
    </contour>
  </outline>
</glyph>
<glyph name="dcaron" format="2">
  <advance width="600"/>
  <unicode hex="010F"/>
  <outline>
    <contour>
      <point x="185" y="-12" type="curve" smooth="yes"/>
      <point x="254" y="-12"/>
      <point x="286" y="31"/>
      <point x="306" y="93" type="curve"/>
      <point x="314" y="93" type="line"/>
      <point x="314" y="0" type="line"/>
      <point x="455" y="0" type="line"/>
      <point x="455" y="740" type="line"/>
      <point x="314" y="740" type="line"/>
      <point x="314" y="423" type="line"/>
      <point x="306" y="423" type="line"/>
      <point x="286" y="485"/>
      <point x="254" y="528"/>
      <point x="185" y="528" type="curve" smooth="yes"/>
      <point x="86" y="528"/>
      <point x="27" y="443"/>
      <point x="27" y="258" type="curve" smooth="yes"/>
      <point x="27" y="73"/>
      <point x="86" y="-12"/>
    </contour>
    <contour>
      <point x="244" y="97" type="curve" smooth="yes"/>
      <point x="200" y="97"/>
      <point x="174" y="127"/>
      <point x="174" y="200" type="curve" smooth="yes"/>
      <point x="174" y="316" type="line" smooth="yes"/>
      <point x="174" y="389"/>
      <point x="200" y="419"/>
      <point x="244" y="419" type="curve" smooth="yes"/>
      <point x="285" y="419"/>
      <point x="314" y="392"/>
      <point x="314" y="336" type="curve" smooth="yes"/>
      <point x="314" y="180" type="line" smooth="yes"/>
      <point x="314" y="124"/>
      <point x="285" y="97"/>
    </contour>
    <contour>
      <point x="506" y="529" type="line"/>
      <point x="583" y="529" type="line"/>
      <point x="637" y="740" type="line"/>
      <point x="508" y="740" type="line"/>
    </contour>
  </outline>
</glyph>
<glyph name="dcroat" format="2">
  <advance width="600"/>
  <unicode hex="0111"/>
  <outline>
    <contour>
      <point x="393" y="0" type="line"/>
      <point x="541" y="0" type="line"/>
      <point x="541" y="580" type="line"/>
      <point x="596" y="580" type="line"/>
      <point x="596" y="690" type="line"/>
      <point x="541" y="690" type="line"/>
      <point x="541" y="740" type="line"/>
      <point x="393" y="740" type="line"/>
      <point x="393" y="690" type="line"/>
      <point x="253" y="690" type="line"/>
      <point x="253" y="580" type="line"/>
      <point x="393" y="580" type="line"/>
      <point x="393" y="422" type="line"/>
      <point x="386" y="422" type="line"/>
      <point x="360" y="484"/>
      <point x="316" y="528"/>
      <point x="233" y="528" type="curve" smooth="yes"/>
      <point x="119" y="528"/>
      <point x="39" y="445"/>
      <point x="39" y="258" type="curve" smooth="yes"/>
      <point x="39" y="71"/>
      <point x="119" y="-12"/>
      <point x="233" y="-12" type="curve" smooth="yes"/>
      <point x="316" y="-12"/>
      <point x="360" y="32"/>
      <point x="386" y="94" type="curve"/>
      <point x="393" y="94" type="line"/>
    </contour>
    <contour>
      <point x="297" y="103" type="curve" smooth="yes"/>
      <point x="231" y="103"/>
      <point x="193" y="146"/>
      <point x="193" y="218" type="curve" smooth="yes"/>
      <point x="193" y="298" type="line"/>
      <point x="193" y="370"/>
      <point x="231" y="413"/>
      <point x="297" y="413" type="curve" smooth="yes"/>
      <point x="349" y="413"/>
      <point x="393" y="388"/>
      <point x="393" y="334" type="curve" smooth="yes"/>
      <point x="393" y="182" type="line" smooth="yes"/>
      <point x="393" y="128"/>
      <point x="349" y="103"/>
    </contour>
  </outline>
</glyph>
<glyph name="eogonek" format="2">
  <advance width="600"/>
  <unicode hex="0119"/>
  <anchor x="306.0" y="0.0" name="bottom"/>
  <anchor x="301.0" y="516.0" name="top"/>
  <outline>
    <contour>
      <point x="363" y="-212" type="curve" smooth="yes"/>
      <point x="426" y="-212"/>
      <point x="468" y="-193"/>
      <point x="485" y="-161" type="curve"/>
      <point x="432" y="-110" type="line"/>
      <point x="418" y="-126"/>
      <point x="401" y="-138"/>
      <point x="377" y="-138" type="curve" smooth="yes"/>
      <point x="357" y="-138"/>
      <point x="339" y="-130"/>
      <point x="339" y="-105" type="curve" smooth="yes"/>
      <point x="339" y="-77"/>
      <point x="361" y="-62"/>
      <point x="432" y="-7" type="curve" smooth="yes"/>
      <point x="488" y="36"/>
      <point x="511" y="53"/>
      <point x="535" y="79" type="curve"/>
      <point x="455" y="166" type="line"/>
      <point x="423" y="128"/>
      <point x="380" y="102"/>
      <point x="319" y="102" type="curve" smooth="yes"/>
      <point x="240" y="102"/>
      <point x="197" y="147"/>
      <point x="197" y="213" type="curve" smooth="yes"/>
      <point x="197" y="222" type="line"/>
      <point x="550" y="222" type="line"/>
      <point x="550" y="266" type="line" smooth="yes"/>
      <point x="550" y="427"/>
      <point x="455" y="528"/>
      <point x="301" y="528" type="curve" smooth="yes"/>
      <point x="146" y="528"/>
      <point x="50" y="425"/>
      <point x="50" y="257" type="curve" smooth="yes"/>
      <point x="50" y="84"/>
      <point x="151" y="-12"/>
      <point x="305" y="-12" type="curve" smooth="yes"/>
      <point x="327" y="-12"/>
      <point x="345" y="-10"/>
      <point x="355" y="-7" type="curve"/>
      <point x="357" y="-12" type="line"/>
      <point x="284" y="-43"/>
      <point x="239" y="-74"/>
      <point x="239" y="-128" type="curve" smooth="yes"/>
      <point x="239" y="-191"/>
      <point x="298" y="-212"/>
    </contour>
    <contour>
      <point x="197" y="305" type="line"/>
      <point x="197" y="313" type="line" smooth="yes"/>
      <point x="197" y="379"/>
      <point x="238" y="422"/>
      <point x="302" y="422" type="curve" smooth="yes"/>
      <point x="366" y="422"/>
      <point x="405" y="380"/>
      <point x="405" y="313" type="curve" smooth="yes"/>
      <point x="405" y="305" type="line"/>
    </contour>
  </outline>
</glyph>
<glyph name="Hbar" format="2">
  <advance width="600"/>
  <unicode hex="0126"/>
  <outline>
    <contour>
      <point x="388" y="0" type="line"/>
      <point x="539" y="0" type="line"/>
      <point x="539" y="507" type="line"/>
      <point x="594" y="507" type="line"/>
      <point x="594" y="620" type="line"/>
      <point x="539" y="620" type="line"/>
      <point x="539" y="698" type="line"/>
      <point x="388" y="698" type="line"/>
      <point x="388" y="613" type="line"/>
      <point x="212" y="613" type="line"/>
      <point x="212" y="698" type="line"/>
      <point x="61" y="698" type="line"/>
      <point x="61" y="620" type="line"/>
      <point x="6" y="620" type="line"/>
      <point x="6" y="507" type="line"/>
      <point x="61" y="507" type="line"/>
      <point x="61" y="0" type="line"/>
      <point x="212" y="0" type="line"/>
      <point x="212" y="292" type="line"/>
      <point x="388" y="292" type="line"/>
    </contour>
    <contour>
      <point x="212" y="415" type="line"/>
      <point x="212" y="514" type="line"/>
      <point x="388" y="514" type="line"/>
      <point x="388" y="415" type="line"/>
    </contour>
  </outline>
</glyph>
<glyph name="hbar" format="2">
  <advance width="600"/>
  <unicode hex="0127"/>
  <outline>
    <contour>
      <point x="213" y="0" type="line"/>
      <point x="213" y="339" type="line" smooth="yes"/>
      <point x="213" y="389"/>
      <point x="258" y="414"/>
      <point x="304" y="414" type="curve" smooth="yes"/>
      <point x="362" y="414"/>
      <point x="391" y="379"/>
      <point x="391" y="314" type="curve" smooth="yes"/>
      <point x="391" y="0" type="line"/>
      <point x="539" y="0" type="line"/>
      <point x="539" y="334" type="line" smooth="yes"/>
      <point x="539" y="459"/>
      <point x="470" y="528"/>
      <point x="371" y="528" type="curve" smooth="yes"/>
      <point x="288" y="528"/>
      <point x="242" y="480"/>
      <point x="219" y="422" type="curve"/>
      <point x="213" y="422" type="line"/>
      <point x="213" y="580" type="line"/>
      <point x="353" y="580" type="line"/>
      <point x="353" y="690" type="line"/>
      <point x="213" y="690" type="line"/>
      <point x="213" y="740" type="line"/>
      <point x="65" y="740" type="line"/>
      <point x="65" y="690" type="line"/>
      <point x="9" y="690" type="line"/>
      <point x="9" y="580" type="line"/>
      <point x="65" y="580" type="line"/>
      <point x="65" y="0" type="line"/>
    </contour>
  </outline>
</glyph>
<glyph name="iogonek" format="2">
  <advance width="600"/>
  <unicode hex="012F"/>
  <anchor x="332.0" y="0.0" name="bottom"/>
  <outline>
    <contour>
      <point x="468" y="-212" type="curve" smooth="yes"/>
      <point x="531" y="-212"/>
      <point x="573" y="-193"/>
      <point x="590" y="-161" type="curve"/>
      <point x="537" y="-110" type="line"/>
      <point x="523" y="-126"/>
      <point x="506" y="-138"/>
      <point x="482" y="-138" type="curve" smooth="yes"/>
      <point x="462" y="-138"/>
      <point x="444" y="-130"/>
      <point x="444" y="-105" type="curve" smooth="yes"/>
      <point x="444" y="-81"/>
      <point x="460" y="-60"/>
      <point x="558" y="0" type="curve"/>
      <point x="558" y="115" type="line"/>
      <point x="406" y="115" type="line"/>
      <point x="406" y="516" type="line"/>
      <point x="94" y="516" type="line"/>
      <point x="94" y="401" type="line"/>
      <point x="258" y="401" type="line"/>
      <point x="258" y="115" type="line"/>
      <point x="94" y="115" type="line"/>
      <point x="94" y="0" type="line"/>
      <point x="462" y="0" type="line"/>
      <point x="463" y="-4" type="line"/>
      <point x="389" y="-38"/>
      <point x="344" y="-71"/>
      <point x="344" y="-127" type="curve" smooth="yes"/>
      <point x="344" y="-191"/>
      <point x="402" y="-212"/>
    </contour>
    <contour>
      <point x="332" y="582" type="curve" smooth="yes"/>
      <point x="398" y="582"/>
      <point x="421" y="613"/>
      <point x="421" y="652" type="curve" smooth="yes"/>
      <point x="421" y="681" type="line" smooth="yes"/>
      <point x="421" y="721"/>
      <point x="398" y="751"/>
      <point x="332" y="751" type="curve" smooth="yes"/>
      <point x="266" y="751"/>
      <point x="243" y="721"/>
      <point x="243" y="681" type="curve" smooth="yes"/>
      <point x="243" y="652" type="line" smooth="yes"/>
      <point x="243" y="613"/>
      <point x="266" y="582"/>
    </contour>
  </outline>
</glyph>
<glyph name="dotlessi" format="2">
  <advance width="600"/>
  <unicode hex="0131"/>
  <anchor x="332.0" y="0.0" name="bottom"/>
  <anchor x="558.0" y="0.0" name="bottomright"/>
  <anchor x="332.0" y="516.0" name="top"/>
  <outline>
    <contour>
      <point x="94" y="0" type="line"/>
      <point x="558" y="0" type="line"/>
      <point x="558" y="115" type="line"/>
      <point x="406" y="115" type="line"/>
      <point x="406" y="516" type="line"/>
      <point x="94" y="516" type="line"/>
      <point x="94" y="401" type="line"/>
      <point x="258" y="401" type="line"/>
      <point x="258" y="115" type="line"/>
      <point x="94" y="115" type="line"/>
    </contour>
  </outline>
</glyph>
<glyph name="IJ" format="2">
  <advance width="600"/>
  <unicode hex="0132"/>
  <outline>
    <contour>
      <point x="375" y="698" type="line"/>
      <point x="375" y="210" type="line" smooth="yes"/>
      <point x="375" y="142"/>
      <point x="345" y="110"/>
      <point x="294" y="110" type="curve" smooth="yes"/>
      <point x="234" y="110"/>
      <point x="209" y="154"/>
      <point x="198" y="213" type="curve"/>
      <point x="52" y="181" type="line"/>
      <point x="73" y="69"/>
      <point x="148" y="-12"/>
      <point x="293" y="-12" type="curve" smooth="yes"/>
      <point x="437" y="-12"/>
      <point x="525" y="69"/>
      <point x="525" y="195" type="curve" smooth="yes"/>
      <point x="525" y="698" type="line"/>
    </contour>
    <contour>
      <point x="63" y="309" type="line"/>
      <point x="213" y="309" type="line"/>
      <point x="213" y="698" type="line"/>
      <point x="63" y="698" type="line"/>
    </contour>
  </outline>
</glyph>
<glyph name="ij" format="2">
  <advance width="600"/>
  <unicode hex="0133"/>
  <outline>
    <contour>
      <point x="74" y="0" type="line"/>
      <point x="222" y="0" type="line"/>
      <point x="222" y="516" type="line"/>
      <point x="74" y="516" type="line"/>
    </contour>
    <contour>
      <point x="222" y="-200" type="line"/>
      <point x="368" y="-200" type="line" smooth="yes"/>
      <point x="475" y="-200"/>
      <point x="526" y="-138"/>
      <point x="526" y="-51" type="curve" smooth="yes"/>
      <point x="526" y="516" type="line"/>
      <point x="378" y="516" type="line"/>
      <point x="378" y="-85" type="line"/>
      <point x="222" y="-85" type="line"/>
    </contour>
    <contour>
      <point x="148" y="582" type="curve" smooth="yes"/>
      <point x="215" y="582"/>
      <point x="238" y="613"/>
      <point x="238" y="652" type="curve" smooth="yes"/>
      <point x="238" y="681" type="line" smooth="yes"/>
      <point x="238" y="721"/>
      <point x="215" y="751"/>
      <point x="148" y="751" type="curve" smooth="yes"/>
      <point x="82" y="751"/>
      <point x="59" y="721"/>
      <point x="59" y="681" type="curve" smooth="yes"/>
      <point x="59" y="652" type="line" smooth="yes"/>
      <point x="59" y="613"/>
      <point x="82" y="582"/>
    </contour>
    <contour>
      <point x="452" y="582" type="curve" smooth="yes"/>
      <point x="518" y="582"/>
      <point x="541" y="613"/>
      <point x="541" y="652" type="curve" smooth="yes"/>
      <point x="541" y="681" type="line" smooth="yes"/>
      <point x="541" y="721"/>
      <point x="518" y="751"/>
      <point x="452" y="751" type="curve" smooth="yes"/>
      <point x="385" y="751"/>
      <point x="362" y="721"/>
      <point x="362" y="681" type="curve" smooth="yes"/>
      <point x="362" y="652" type="line" smooth="yes"/>
      <point x="362" y="613"/>
      <point x="385" y="582"/>
    </contour>
  </outline>
</glyph>
<glyph name="kgreenlandic" format="2">
  <advance width="600"/>
  <unicode hex="0138"/>
  <anchor x="308.0" y="0.0" name="bottom"/>
  <outline>
    <contour>
      <point x="412" y="0" type="line"/>
      <point x="588" y="0" type="line"/>
      <point x="367" y="312" type="line"/>
      <point x="567" y="516" type="line"/>
      <point x="397" y="516" type="line"/>
      <point x="289" y="401" type="line"/>
      <point x="220" y="308" type="line"/>
      <point x="213" y="308" type="line"/>
      <point x="213" y="516" type="line"/>
      <point x="65" y="516" type="line"/>
      <point x="65" y="0" type="line"/>
      <point x="213" y="0" type="line"/>
      <point x="213" y="179" type="line"/>
      <point x="262" y="228" type="line"/>
    </contour>
  </outline>
</glyph>
<glyph name="Lslash" format="2">
  <advance width="600"/>
  <unicode hex="0141"/>
  <outline>
    <contour>
      <point x="543" y="123" type="line"/>
      <point x="255" y="123" type="line"/>
      <point x="255" y="289" type="line"/>
      <point x="439" y="350" type="line"/>
      <point x="439" y="463" type="line"/>
      <point x="255" y="402" type="line"/>
      <point x="255" y="698" type="line"/>
      <point x="104" y="698" type="line"/>
      <point x="104" y="357" type="line"/>
      <point x="33" y="334" type="line"/>
      <point x="33" y="221" type="line"/>
      <point x="104" y="244" type="line"/>
      <point x="104" y="0" type="line"/>
      <point x="543" y="0" type="line"/>
    </contour>
  </outline>
</glyph>
<glyph name="lslash" format="2">
  <advance width="600"/>
  <unicode hex="0142"/>
  <outline>
    <contour>
      <point x="68" y="0" type="line"/>
      <point x="532" y="0" type="line"/>
      <point x="532" y="115" type="line"/>
      <point x="374" y="115" type="line"/>
      <point x="374" y="301" type="line"/>
      <point x="503" y="343" type="line"/>
      <point x="503" y="452" type="line"/>
      <point x="374" y="410" type="line"/>
      <point x="374" y="740" type="line"/>
      <point x="68" y="740" type="line"/>
      <point x="68" y="625" type="line"/>
      <point x="226" y="625" type="line"/>
      <point x="226" y="365" type="line"/>
      <point x="97" y="323" type="line"/>
      <point x="97" y="214" type="line"/>
      <point x="226" y="256" type="line"/>
      <point x="226" y="115" type="line"/>
      <point x="68" y="115" type="line"/>
    </contour>
  </outline>
</glyph>
<glyph name="napostrophe" format="2">
  <advance width="600"/>
  <unicode hex="0149"/>
  <outline>
    <contour>
      <point x="111" y="0" type="line"/>
      <point x="251" y="0" type="line"/>
      <point x="251" y="339" type="line"/>
      <point x="251" y="393"/>
      <point x="291" y="420"/>
      <point x="333" y="420" type="curve" smooth="yes"/>
      <point x="383" y="420"/>
      <point x="409" y="382"/>
      <point x="409" y="314" type="curve" smooth="yes"/>
      <point x="409" y="0" type="line"/>
      <point x="549" y="0" type="line"/>
      <point x="549" y="342" type="line" smooth="yes"/>
      <point x="549" y="467"/>
      <point x="489" y="528"/>
      <point x="400" y="528" type="curve" smooth="yes"/>
      <point x="321" y="528"/>
      <point x="278" y="480"/>
      <point x="257" y="422" type="curve"/>
      <point x="251" y="422" type="line"/>
      <point x="251" y="516" type="line"/>
      <point x="111" y="516" type="line"/>
    </contour>
    <contour>
      <point x="0" y="529" type="line"/>
      <point x="69" y="529" type="line"/>
      <point x="135" y="740" type="line"/>
      <point x="6" y="740" type="line"/>
    </contour>
  </outline>
</glyph>
<glyph name="Eng" format="2">
  <advance width="600"/>
  <unicode hex="014A"/>
  <anchor x="300.0" y="698.0" name="top"/>
  <outline>
    <contour>
      <point x="189" y="0" type="line"/>
      <point x="189" y="464" type="line"/>
      <point x="200" y="464" type="line"/>
      <point x="359" y="0" type="line"/>
      <point x="402" y="0" type="line"/>
      <point x="402" y="-90" type="line"/>
      <point x="189" y="-90" type="line"/>
      <point x="189" y="-200" type="line"/>
      <point x="382" y="-200" type="line" smooth="yes"/>
      <point x="488" y="-200"/>
      <point x="539" y="-138"/>
      <point x="539" y="-51" type="curve" smooth="yes"/>
      <point x="539" y="698" type="line"/>
      <point x="411" y="698" type="line"/>
      <point x="411" y="234" type="line"/>
      <point x="400" y="234" type="line"/>
      <point x="241" y="698" type="line"/>
      <point x="61" y="698" type="line"/>
      <point x="61" y="0" type="line"/>
    </contour>
  </outline>
</glyph>
<glyph name="eng" format="2">
  <advance width="600"/>
  <unicode hex="014B"/>
  <anchor x="302.0" y="516.0" name="top"/>
  <outline>
    <contour>
      <point x="213" y="-200" type="line"/>
      <point x="382" y="-200" type="line" smooth="yes"/>
      <point x="489" y="-200"/>
      <point x="539" y="-138"/>
      <point x="539" y="-51" type="curve" smooth="yes"/>
      <point x="539" y="334" type="line" smooth="yes"/>
      <point x="539" y="459"/>
      <point x="470" y="528"/>
      <point x="371" y="528" type="curve" smooth="yes"/>
      <point x="288" y="528"/>
      <point x="242" y="480"/>
      <point x="219" y="422" type="curve"/>
      <point x="213" y="422" type="line"/>
      <point x="213" y="516" type="line"/>
      <point x="65" y="516" type="line"/>
      <point x="65" y="0" type="line"/>
      <point x="213" y="0" type="line"/>
      <point x="213" y="339" type="line"/>
      <point x="213" y="389"/>
      <point x="258" y="414"/>
      <point x="304" y="414" type="curve" smooth="yes"/>
      <point x="362" y="414"/>
      <point x="391" y="379"/>
      <point x="391" y="314" type="curve" smooth="yes"/>
      <point x="391" y="-85" type="line"/>
      <point x="213" y="-85" type="line"/>
    </contour>
  </outline>
</glyph>
<glyph name="OE" format="2">
  <advance width="600"/>
  <unicode hex="0152"/>
  <outline>
    <contour>
      <point x="586" y="0" type="line"/>
      <point x="586" y="111" type="line"/>
      <point x="431" y="111" type="line"/>
      <point x="431" y="298" type="line"/>
      <point x="576" y="298" type="line"/>
      <point x="576" y="409" type="line"/>
      <point x="431" y="409" type="line"/>
      <point x="431" y="587" type="line"/>
      <point x="586" y="587" type="line"/>
      <point x="586" y="698" type="line"/>
      <point x="277" y="698" type="line" smooth="yes"/>
      <point x="97" y="698"/>
      <point x="10" y="573"/>
      <point x="10" y="349" type="curve" smooth="yes"/>
      <point x="10" y="125"/>
      <point x="97" y="0"/>
      <point x="277" y="0" type="curve" smooth="yes"/>
    </contour>
    <contour>
      <point x="287" y="111" type="line" smooth="yes"/>
      <point x="197" y="111"/>
      <point x="156" y="172"/>
      <point x="156" y="290" type="curve" smooth="yes"/>
      <point x="156" y="408" type="line" smooth="yes"/>
      <point x="156" y="526"/>
      <point x="197" y="587"/>
      <point x="287" y="587" type="curve" smooth="yes"/>
      <point x="293" y="587" type="line"/>
      <point x="293" y="111" type="line"/>
    </contour>
  </outline>
</glyph>
<glyph name="Tcedilla" format="2">
  <advance width="600"/>
  <unicode hex="0162"/>
  <anchor x="300.0" y="698.0" name="top"/>
  <outline>
    <contour>
      <point x="314" y="-212" type="curve" smooth="yes"/>
      <point x="382" y="-212"/>
      <point x="446" y="-189"/>
      <point x="446" y="-121" type="curve" smooth="yes"/>
      <point x="446" y="-72"/>
      <point x="413" y="-52"/>
      <point x="373" y="-52" type="curve" smooth="yes"/>
      <point x="357" y="-52"/>
      <point x="341" y="-55"/>
      <point x="325" y="-59" type="curve"/>
      <point x="321" y="-55" type="line"/>
      <point x="332" y="0" type="line"/>
      <point x="375" y="0" type="line"/>
      <point x="375" y="575" type="line"/>
      <point x="576" y="575" type="line"/>
      <point x="576" y="698" type="line"/>
      <point x="24" y="698" type="line"/>
      <point x="24" y="575" type="line"/>
      <point x="225" y="575" type="line"/>
      <point x="225" y="0" type="line"/>
      <point x="265" y="0" type="line"/>
      <point x="250" y="-74" type="line"/>
      <point x="271" y="-76" type="line" smooth="yes"/>
      <point x="333" y="-82"/>
      <point x="346" y="-101"/>
      <point x="346" y="-116" type="curve" smooth="yes"/>
      <point x="346" y="-133"/>
      <point x="327" y="-141"/>
      <point x="302" y="-141" type="curve" smooth="yes"/>
      <point x="271" y="-141"/>
      <point x="249" y="-128"/>
      <point x="236" y="-112" type="curve"/>
      <point x="190" y="-168" type="line"/>
      <point x="207" y="-188"/>
      <point x="245" y="-212"/>
    </contour>
  </outline>
</glyph>
<glyph name="Tbar" format="2">
  <advance width="600"/>
  <unicode hex="0166"/>
  <anchor x="300.0" y="0.0" name="bottom"/>
  <anchor x="300.0" y="698.0" name="top"/>
  <outline>
    <contour>
      <point x="518" y="282" type="line"/>
      <point x="518" y="396" type="line"/>
      <point x="375" y="396" type="line"/>
      <point x="375" y="575" type="line"/>
      <point x="576" y="575" type="line"/>
      <point x="576" y="698" type="line"/>
      <point x="24" y="698" type="line"/>
      <point x="24" y="575" type="line"/>
      <point x="225" y="575" type="line"/>
      <point x="225" y="396" type="line"/>
      <point x="82" y="396" type="line"/>
      <point x="82" y="282" type="line"/>
      <point x="225" y="282" type="line"/>
      <point x="225" y="0" type="line"/>
      <point x="375" y="0" type="line"/>
      <point x="375" y="282" type="line"/>
    </contour>
  </outline>
</glyph>
<glyph name="tbar" format="2">
  <advance width="600"/>
  <unicode hex="0167"/>
  <anchor x="361.0" y="0.0" name="bottom"/>
  <anchor x="396.0" y="780.0" name="topright"/>
  <outline>
    <contour>
      <point x="531" y="115" type="line"/>
      <point x="330" y="115" type="line"/>
      <point x="330" y="212" type="line"/>
      <point x="481" y="212" type="line"/>
      <point x="481" y="317" type="line"/>
      <point x="330" y="317" type="line"/>
      <point x="330" y="401" type="line"/>
      <point x="531" y="401" type="line"/>
      <point x="531" y="516" type="line"/>
      <point x="330" y="516" type="line"/>
      <point x="330" y="698" type="line"/>
      <point x="194" y="698" type="line"/>
      <point x="194" y="577" type="line" smooth="yes"/>
      <point x="194" y="531"/>
      <point x="177" y="516"/>
      <point x="133" y="516" type="curve" smooth="yes"/>
      <point x="42" y="516" type="line"/>
      <point x="42" y="401" type="line"/>
      <point x="182" y="401" type="line"/>
      <point x="182" y="317" type="line"/>
      <point x="94" y="317" type="line"/>
      <point x="94" y="212" type="line"/>
      <point x="182" y="212" type="line"/>
      <point x="182" y="149" type="line" smooth="yes"/>
      <point x="182" y="62"/>
      <point x="233" y="0"/>
      <point x="340" y="0" type="curve" smooth="yes"/>
      <point x="531" y="0" type="line"/>
    </contour>
  </outline>
</glyph>
<glyph name="Uogonek" format="2">
  <advance width="600"/>
  <unicode hex="0172"/>
  <anchor x="300.0" y="0.0" name="bottom"/>
  <anchor x="300.0" y="698.0" name="top"/>
  <outline>
    <contour>
      <point x="55" y="698" type="line"/>
      <point x="55" y="276" type="line" smooth="yes"/>
      <point x="55" y="88"/>
      <point x="97" y="-12"/>
      <point x="294" y="-12" type="curve" smooth="yes"/>
      <point x="314" y="-12"/>
      <point x="324" y="-11"/>
      <point x="335" y="-9" type="curve"/>
      <point x="337" y="-14" type="line"/>
      <point x="261" y="-47"/>
      <point x="218" y="-75"/>
      <point x="218" y="-128" type="curve" smooth="yes"/>
      <point x="218" y="-190"/>
      <point x="275" y="-212"/>
      <point x="342" y="-212" type="curve" smooth="yes"/>
      <point x="405" y="-212"/>
      <point x="447" y="-193"/>
      <point x="464" y="-161" type="curve"/>
      <point x="411" y="-110" type="line"/>
      <point x="397" y="-126"/>
      <point x="380" y="-138"/>
      <point x="356" y="-138" type="curve" smooth="yes"/>
      <point x="337" y="-138"/>
      <point x="318" y="-130"/>
      <point x="318" y="-105" type="curve" smooth="yes"/>
      <point x="318" y="-82"/>
      <point x="333" y="-70"/>
      <point x="430" y="-1" type="curve" smooth="yes"/>
      <point x="540" y="77"/>
      <point x="545" y="149"/>
      <point x="545" y="276" type="curve" smooth="yes"/>
      <point x="545" y="698" type="line"/>
      <point x="395" y="698" type="line"/>
      <point x="395" y="256" type="line" smooth="yes"/>
      <point x="395" y="167"/>
      <point x="388" y="109"/>
      <point x="300" y="109" type="curve" smooth="yes"/>
      <point x="212" y="109"/>
      <point x="205" y="167"/>
      <point x="205" y="256" type="curve" smooth="yes"/>
      <point x="205" y="698" type="line"/>
    </contour>
  </outline>
</glyph>
<glyph name="uogonek" format="2">
  <advance width="600"/>
  <unicode hex="0173"/>
  <anchor x="298.0" y="0.0" name="bottom"/>
  <anchor x="298.0" y="516.0" name="top"/>
  <outline>
    <contour>
      <point x="535" y="516" type="line"/>
      <point x="387" y="516" type="line"/>
      <point x="387" y="177" type="line" smooth="yes"/>
      <point x="387" y="127"/>
      <point x="342" y="102"/>
      <point x="296" y="102" type="curve" smooth="yes"/>
      <point x="238" y="102"/>
      <point x="209" y="137"/>
      <point x="209" y="202" type="curve" smooth="yes"/>
      <point x="209" y="516" type="line"/>
      <point x="61" y="516" type="line"/>
      <point x="61" y="182" type="line" smooth="yes"/>
      <point x="61" y="57"/>
      <point x="130" y="-12"/>
      <point x="229" y="-12" type="curve" smooth="yes"/>
      <point x="312" y="-12"/>
      <point x="358" y="36"/>
      <point x="381" y="94" type="curve"/>
      <point x="387" y="94" type="line"/>
      <point x="387" y="0" type="line"/>
      <point x="439" y="0" type="line"/>
      <point x="440" y="-4" type="line"/>
      <point x="366" y="-38"/>
      <point x="321" y="-71"/>
      <point x="321" y="-127" type="curve" smooth="yes"/>
      <point x="321" y="-191"/>
      <point x="379" y="-212"/>
      <point x="445" y="-212" type="curve" smooth="yes"/>
      <point x="508" y="-212"/>
      <point x="550" y="-193"/>
      <point x="567" y="-161" type="curve"/>
      <point x="514" y="-110" type="line"/>
      <point x="500" y="-126"/>
      <point x="483" y="-138"/>
      <point x="459" y="-138" type="curve" smooth="yes"/>
      <point x="439" y="-138"/>
      <point x="421" y="-130"/>
      <point x="421" y="-105" type="curve" smooth="yes"/>
      <point x="421" y="-81"/>
      <point x="437" y="-60"/>
      <point x="535" y="0" type="curve"/>
    </contour>
  </outline>
</glyph>
<glyph name="Schwa" format="2">
  <advance width="600"/>
  <unicode hex="018F"/>
  <outline>
    <contour>
      <point x="300" y="-12" type="curve" smooth="yes"/>
      <point x="487" y="-12"/>
      <point x="573" y="121"/>
      <point x="573" y="349" type="curve" smooth="yes"/>
      <point x="573" y="577"/>
      <point x="488" y="710"/>
      <point x="298" y="710" type="curve" smooth="yes"/>
      <point x="160" y="710"/>
      <point x="75" y="639"/>
      <point x="43" y="514" type="curve"/>
      <point x="173" y="465" type="line"/>
      <point x="190" y="538"/>
      <point x="222" y="590"/>
      <point x="298" y="590" type="curve" smooth="yes"/>
      <point x="389" y="590"/>
      <point x="420" y="517"/>
      <point x="420" y="410" type="curve" smooth="yes"/>
      <point x="420" y="399" type="line"/>
      <point x="27" y="399" type="line"/>
      <point x="27" y="349" type="line" smooth="yes"/>
      <point x="27" y="121"/>
      <point x="113" y="-12"/>
    </contour>
    <contour>
      <point x="300" y="106" type="curve" smooth="yes"/>
      <point x="209" y="106"/>
      <point x="180" y="175"/>
      <point x="180" y="288" type="curve" smooth="yes"/>
      <point x="180" y="291" type="line"/>
      <point x="420" y="291" type="line"/>
      <point x="420" y="288" type="line" smooth="yes"/>
      <point x="420" y="175"/>
      <point x="391" y="106"/>
    </contour>
  </outline>
</glyph>
<glyph name="florin" format="2">
  <advance width="600"/>
  <unicode hex="0192"/>
  <outline>
    <contour>
      <point x="-50" y="-200" type="line"/>
      <point x="134" y="-200" type="line" smooth="yes"/>
      <point x="241" y="-200"/>
      <point x="291" y="-148"/>
      <point x="305" y="-61" type="curve" smooth="yes"/>
      <point x="369" y="323" type="line"/>
      <point x="543" y="323" type="line"/>
      <point x="561" y="438" type="line"/>
      <point x="389" y="438" type="line"/>
      <point x="413" y="583" type="line"/>
      <point x="598" y="583" type="line"/>
      <point x="617" y="698" type="line"/>
      <point x="432" y="698" type="line" smooth="yes"/>
      <point x="324" y="698"/>
      <point x="275" y="646"/>
      <point x="261" y="559" type="curve" smooth="yes"/>
      <point x="241" y="438" type="line"/>
      <point x="77" y="438" type="line"/>
      <point x="58" y="323" type="line"/>
      <point x="221" y="323" type="line"/>
      <point x="153" y="-85" type="line"/>
      <point x="-31" y="-85" type="line"/>
    </contour>
  </outline>
</glyph>
<glyph name="Ohorn" format="2">
  <advance width="600"/>
  <unicode hex="01A0"/>
  <anchor x="300.0" y="0.0" name="bottom"/>
  <anchor x="300.0" y="698.0" name="top"/>
  <outline>
    <contour>
      <point x="593" y="813" type="line"/>
      <point x="469" y="813" type="line"/>
      <point x="469" y="698" type="line"/>
      <point x="389" y="698" type="line"/>
      <point x="363" y="706"/>
      <point x="333" y="710"/>
      <point x="300" y="710" type="curve" smooth="yes"/>
      <point x="113" y="710"/>
      <point x="27" y="577"/>
      <point x="27" y="349" type="curve" smooth="yes"/>
      <point x="27" y="121"/>
      <point x="113" y="-12"/>
      <point x="300" y="-12" type="curve" smooth="yes"/>
      <point x="487" y="-12"/>
      <point x="573" y="121"/>
      <point x="573" y="349" type="curve" smooth="yes"/>
      <point x="573" y="465"/>
      <point x="557" y="555"/>
      <point x="506" y="610" type="curve"/>
      <point x="575" y="614"/>
      <point x="593" y="648"/>
      <point x="593" y="710" type="curve" smooth="yes"/>
    </contour>
    <contour>
      <point x="300" y="109" type="curve" smooth="yes"/>
      <point x="215" y="109"/>
      <point x="187" y="176"/>
      <point x="187" y="288" type="curve" smooth="yes"/>
      <point x="187" y="410" type="line" smooth="yes"/>
      <point x="187" y="522"/>
      <point x="215" y="589"/>
      <point x="300" y="589" type="curve" smooth="yes"/>
      <point x="385" y="589"/>
      <point x="413" y="522"/>
      <point x="413" y="410" type="curve" smooth="yes"/>
      <point x="413" y="289" type="line" smooth="yes"/>
      <point x="413" y="176"/>
      <point x="385" y="109"/>
    </contour>
  </outline>
</glyph>
<glyph name="ohorn" format="2">
  <advance width="600"/>
  <unicode hex="01A1"/>
  <anchor x="300.0" y="0.0" name="bottom"/>
  <anchor x="300.0" y="516.0" name="top"/>
  <outline>
    <contour>
      <point x="459" y="631" type="line"/>
      <point x="459" y="516" type="line"/>
      <point x="389" y="516" type="line"/>
      <point x="362" y="524"/>
      <point x="332" y="528"/>
      <point x="300" y="528" type="curve" smooth="yes"/>
      <point x="139" y="528"/>
      <point x="41" y="425"/>
      <point x="41" y="258" type="curve" smooth="yes"/>
      <point x="41" y="91"/>
      <point x="139" y="-12"/>
      <point x="300" y="-12" type="curve" smooth="yes"/>
      <point x="461" y="-12"/>
      <point x="559" y="91"/>
      <point x="559" y="258" type="curve" smooth="yes"/>
      <point x="559" y="330"/>
      <point x="540" y="386"/>
      <point x="507" y="428" type="curve"/>
      <point x="567" y="434"/>
      <point x="583" y="468"/>
      <point x="583" y="528" type="curve" smooth="yes"/>
      <point x="583" y="631" type="line"/>
    </contour>
    <contour>
      <point x="300" y="98" type="curve" smooth="yes"/>
      <point x="234" y="98"/>
      <point x="194" y="141"/>
      <point x="194" y="217" type="curve" smooth="yes"/>
      <point x="194" y="299" type="line" smooth="yes"/>
      <point x="194" y="375"/>
      <point x="234" y="418"/>
      <point x="300" y="418" type="curve" smooth="yes"/>
      <point x="366" y="418"/>
      <point x="406" y="375"/>
      <point x="406" y="299" type="curve" smooth="yes"/>
      <point x="406" y="217" type="line" smooth="yes"/>
      <point x="406" y="141"/>
      <point x="366" y="98"/>
    </contour>
  </outline>
</glyph>
<glyph name="Uhorn" format="2">
  <advance width="600"/>
  <unicode hex="01AF"/>
  <anchor x="300.0" y="0.0" name="bottom"/>
  <anchor x="300.0" y="698.0" name="top"/>
  <outline>
    <contour>
      <point x="55" y="698" type="line"/>
      <point x="55" y="276" type="line" smooth="yes"/>
      <point x="55" y="85"/>
      <point x="97" y="-12"/>
      <point x="300" y="-12" type="curve" smooth="yes"/>
      <point x="503" y="-12"/>
      <point x="545" y="85"/>
      <point x="545" y="276" type="curve" smooth="yes"/>
      <point x="545" y="614" type="line"/>
      <point x="588" y="626"/>
      <point x="600" y="658"/>
      <point x="600" y="710" type="curve" smooth="yes"/>
      <point x="600" y="813" type="line"/>
      <point x="476" y="813" type="line"/>
      <point x="476" y="698" type="line"/>
      <point x="395" y="698" type="line"/>
      <point x="395" y="256" type="line" smooth="yes"/>
      <point x="395" y="167"/>
      <point x="388" y="109"/>
      <point x="300" y="109" type="curve" smooth="yes"/>
      <point x="212" y="109"/>
      <point x="205" y="167"/>
      <point x="205" y="256" type="curve" smooth="yes"/>
      <point x="205" y="698" type="line"/>
    </contour>
  </outline>
</glyph>
<glyph name="uhorn" format="2">
  <advance width="600"/>
  <unicode hex="01B0"/>
  <anchor x="298.0" y="0.0" name="bottom"/>
  <anchor x="298.0" y="516.0" name="top"/>
  <outline>
    <contour>
      <point x="598" y="631" type="line"/>
      <point x="474" y="631" type="line"/>
      <point x="474" y="516" type="line"/>
      <point x="387" y="516" type="line"/>
      <point x="387" y="177" type="line" smooth="yes"/>
      <point x="387" y="127"/>
      <point x="342" y="102"/>
      <point x="296" y="102" type="curve" smooth="yes"/>
      <point x="238" y="102"/>
      <point x="209" y="137"/>
      <point x="209" y="202" type="curve" smooth="yes"/>
      <point x="209" y="516" type="line"/>
      <point x="61" y="516" type="line"/>
      <point x="61" y="182" type="line" smooth="yes"/>
      <point x="61" y="57"/>
      <point x="130" y="-12"/>
      <point x="229" y="-12" type="curve" smooth="yes"/>
      <point x="312" y="-12"/>
      <point x="358" y="36"/>
      <point x="381" y="94" type="curve"/>
      <point x="387" y="94" type="line"/>
      <point x="387" y="0" type="line"/>
      <point x="535" y="0" type="line"/>
      <point x="535" y="430" type="line"/>
      <point x="584" y="440"/>
      <point x="598" y="473"/>
      <point x="598" y="528" type="curve" smooth="yes"/>
    </contour>
  </outline>
</glyph>
<glyph name="dotlessj" format="2">
  <advance width="600"/>
  <unicode hex="0237"/>
  <anchor x="364.0" y="516.0" name="top"/>
  <outline>
    <contour>
      <point x="92" y="-200" type="line"/>
      <point x="281" y="-200" type="line" smooth="yes"/>
      <point x="387" y="-200"/>
      <point x="438" y="-138"/>
      <point x="438" y="-51" type="curve" smooth="yes"/>
      <point x="438" y="516" type="line"/>
      <point x="90" y="516" type="line"/>
      <point x="90" y="401" type="line"/>
      <point x="290" y="401" type="line"/>
      <point x="290" y="-85" type="line"/>
      <point x="92" y="-85" type="line"/>
    </contour>
  </outline>
</glyph>
<glyph name="schwa" format="2">
  <advance width="600"/>
  <unicode hex="0259"/>
  <outline>
    <contour>
      <point x="50" y="294" type="line"/>
      <point x="50" y="250" type="line" smooth="yes"/>
      <point x="50" y="89"/>
      <point x="145" y="-12"/>
      <point x="299" y="-12" type="curve" smooth="yes"/>
      <point x="454" y="-12"/>
      <point x="550" y="91"/>
      <point x="550" y="260" type="curve" smooth="yes"/>
      <point x="550" y="425"/>
      <point x="459" y="528"/>
      <point x="286" y="528" type="curve" smooth="yes"/>
      <point x="175" y="528"/>
      <point x="105" y="486"/>
      <point x="65" y="437" type="curve"/>
      <point x="145" y="350" type="line"/>
      <point x="177" y="388"/>
      <point x="220" y="414"/>
      <point x="281" y="414" type="curve" smooth="yes"/>
      <point x="360" y="414"/>
      <point x="403" y="369"/>
      <point x="403" y="303" type="curve" smooth="yes"/>
      <point x="403" y="294" type="line"/>
    </contour>
    <contour>
      <point x="195" y="211" type="line"/>
      <point x="403" y="211" type="line"/>
      <point x="403" y="203" type="line" smooth="yes"/>
      <point x="403" y="137"/>
      <point x="362" y="94"/>
      <point x="298" y="94" type="curve" smooth="yes"/>
      <point x="234" y="94"/>
      <point x="195" y="136"/>
      <point x="195" y="203" type="curve" smooth="yes"/>
    </contour>
  </outline>
</glyph>
<glyph name="commaturnedtop" format="2">
  <advance width="600"/>
  <unicode hex="02BB"/>
  <anchor x="300.0" y="516.0" name="_top"/>
  <outline>
    <contour>
      <point x="221" y="579" type="line"/>
      <point x="378" y="579" type="line"/>
      <point x="396" y="794" type="line"/>
      <point x="308" y="794" type="line"/>
    </contour>
  </outline>
</glyph>
<glyph name="circumflex" format="2">
  <advance width="600"/>
  <unicode hex="02C6"/>
  <anchor x="300.0" y="516.0" name="_top"/>
  <outline>
    <contour>
      <point x="238" y="786" type="line"/>
      <point x="106" y="627" type="line"/>
      <point x="177" y="569" type="line"/>
      <point x="298" y="684" type="line"/>
      <point x="419" y="569" type="line"/>
      <point x="494" y="627" type="line"/>
      <point x="362" y="786" type="line"/>
    </contour>
  </outline>
</glyph>
<glyph name="breve" format="2">
  <advance width="600"/>
  <unicode hex="02D8"/>
  <anchor x="300.0" y="516.0" name="_top"/>
  <outline>
    <contour>
      <point x="300" y="570" type="curve" smooth="yes"/>
      <point x="420" y="570"/>
      <point x="469" y="668"/>
      <point x="494" y="740" type="curve"/>
      <point x="411" y="782" type="line"/>
      <point x="390" y="750" type="line" smooth="yes"/>
      <point x="359" y="702"/>
      <point x="339" y="673"/>
      <point x="300" y="673" type="curve" smooth="yes"/>
      <point x="261" y="673"/>
      <point x="241" y="702"/>
      <point x="210" y="750" type="curve" smooth="yes"/>
      <point x="189" y="782" type="line"/>
      <point x="106" y="740" type="line"/>
      <point x="131" y="668"/>
      <point x="180" y="570"/>
    </contour>
  </outline>
</glyph>
<glyph name="dotaccent" format="2">
  <advance width="600"/>
  <unicode hex="02D9"/>
  <anchor x="300.0" y="516.0" name="_top"/>
  <outline>
    <contour>
      <point x="300" y="582" type="curve" smooth="yes"/>
      <point x="366" y="582"/>
      <point x="389" y="613"/>
      <point x="389" y="652" type="curve" smooth="yes"/>
      <point x="389" y="681" type="line" smooth="yes"/>
      <point x="389" y="721"/>
      <point x="366" y="751"/>
      <point x="300" y="751" type="curve" smooth="yes"/>
      <point x="234" y="751"/>
      <point x="211" y="721"/>
      <point x="211" y="681" type="curve" smooth="yes"/>
      <point x="211" y="652" type="line" smooth="yes"/>
      <point x="211" y="613"/>
      <point x="234" y="582"/>
    </contour>
  </outline>
</glyph>
<glyph name="tilde" format="2">
  <advance width="600"/>
  <unicode hex="02DC"/>
  <anchor x="300.0" y="516.0" name="_top"/>
  <outline>
    <contour>
      <point x="376" y="592" type="curve" smooth="yes"/>
      <point x="429" y="592"/>
      <point x="466" y="620"/>
      <point x="490" y="656" type="curve"/>
      <point x="438" y="724" type="line"/>
      <point x="417" y="707"/>
      <point x="402" y="699"/>
      <point x="379" y="699" type="curve" smooth="yes"/>
      <point x="353" y="699"/>
      <point x="330" y="709"/>
      <point x="301" y="721" type="curve" smooth="yes"/>
      <point x="276" y="732"/>
      <point x="254" y="741"/>
      <point x="224" y="741" type="curve" smooth="yes"/>
      <point x="171" y="741"/>
      <point x="134" y="713"/>
      <point x="110" y="677" type="curve"/>
      <point x="162" y="609" type="line"/>
      <point x="183" y="626"/>
      <point x="198" y="634"/>
      <point x="221" y="634" type="curve" smooth="yes"/>
      <point x="247" y="634"/>
      <point x="270" y="624"/>
      <point x="299" y="612" type="curve" smooth="yes"/>
      <point x="324" y="601"/>
      <point x="346" y="592"/>
    </contour>
  </outline>
</glyph>
<glyph name="hungarumlaut" format="2">
  <advance width="600"/>
  <unicode hex="02DD"/>
  <anchor x="300.0" y="516.0" name="_top"/>
  <outline>
    <contour>
      <point x="344" y="746" type="line"/>
      <point x="228" y="803" type="line"/>
      <point x="129" y="609" type="line"/>
      <point x="210" y="570" type="line"/>
    </contour>
    <contour>
      <point x="549" y="746" type="line"/>
      <point x="433" y="803" type="line"/>
      <point x="334" y="609" type="line"/>
      <point x="415" y="570" type="line"/>
    </contour>
  </outline>
</glyph>
<glyph name="hookcomb" format="2">
  <unicode hex="0309"/>
  <anchor x="0.0" y="516.0" name="_top"/>
  <outline>
    <contour>
      <point x="-120" y="687" type="line"/>
      <point x="2" y="687" type="line"/>
      <point x="-39" y="595" type="line"/>
      <point x="36" y="560" type="line"/>
      <point x="64" y="594" type="line" smooth="yes"/>
      <point x="97" y="634"/>
      <point x="121" y="681"/>
      <point x="121" y="720" type="curve" smooth="yes"/>
      <point x="121" y="759"/>
      <point x="98" y="793"/>
      <point x="23" y="793" type="curve" smooth="yes"/>
      <point x="-120" y="793" type="line"/>
    </contour>
  </outline>
</glyph>
<glyph name="horncomb" format="2">
  <unicode hex="031B"/>
  <outline>
    <contour>
      <point x="125" y="631" type="line"/>
      <point x="1" y="631" type="line"/>
      <point x="1" y="516" type="line"/>
      <point x="-125" y="516" type="line"/>
      <point x="-125" y="427" type="line"/>
      <point x="25" y="427" type="line" smooth="yes"/>
      <point x="105" y="427"/>
      <point x="125" y="461"/>
      <point x="125" y="528" type="curve" smooth="yes"/>
    </contour>
  </outline>
</glyph>
<glyph name="dotbelowcomb" format="2">
  <unicode hex="0323"/>
  <anchor x="0.0" y="0.0" name="_bottom"/>
  <outline>
    <contour>
      <point x="0" y="-203" type="curve" smooth="yes"/>
      <point x="59" y="-203"/>
      <point x="81" y="-176"/>
      <point x="81" y="-141" type="curve" smooth="yes"/>
      <point x="81" y="-115" type="line" smooth="yes"/>
      <point x="81" y="-79"/>
      <point x="59" y="-52"/>
      <point x="0" y="-52" type="curve" smooth="yes"/>
      <point x="-59" y="-52"/>
      <point x="-81" y="-79"/>
      <point x="-81" y="-115" type="curve" smooth="yes"/>
      <point x="-81" y="-141" type="line" smooth="yes"/>
      <point x="-81" y="-176"/>
      <point x="-59" y="-203"/>
    </contour>
  </outline>
</glyph>
<glyph name="commabelowcomb" format="2">
  <unicode hex="0326"/>
  <anchor x="0.0" y="0.0" name="_bottom"/>
  <outline>
    <contour>
      <point x="-96" y="-269" type="line"/>
      <point x="-8" y="-269" type="line"/>
      <point x="79" y="-54" type="line"/>
      <point x="-78" y="-54" type="line"/>
    </contour>
  </outline>
</glyph>
<glyph name="circumflexbelowcomb" format="2">
  <unicode hex="032D"/>
  <anchor x="0.0" y="0.0" name="_bottom"/>
  <outline>
    <contour>
      <point x="-62" y="-54" type="line"/>
      <point x="-194" y="-213" type="line"/>
      <point x="-123" y="-271" type="line"/>
      <point x="-2" y="-156" type="line"/>
      <point x="119" y="-271" type="line"/>
      <point x="194" y="-213" type="line"/>
      <point x="62" y="-54" type="line"/>
    </contour>
  </outline>
</glyph>
<glyph name="brevebelowcomb" format="2">
  <unicode hex="032E"/>
  <anchor x="0.0" y="0.0" name="_bottom"/>
  <outline>
    <contour>
      <point x="0" y="-261" type="curve" smooth="yes"/>
      <point x="120" y="-261"/>
      <point x="169" y="-163"/>
      <point x="194" y="-91" type="curve"/>
      <point x="111" y="-49" type="line"/>
      <point x="90" y="-81" type="line" smooth="yes"/>
      <point x="59" y="-129"/>
      <point x="39" y="-158"/>
      <point x="0" y="-158" type="curve" smooth="yes"/>
      <point x="-39" y="-158"/>
      <point x="-59" y="-129"/>
      <point x="-90" y="-81" type="curve" smooth="yes"/>
      <point x="-111" y="-49" type="line"/>
      <point x="-194" y="-91" type="line"/>
      <point x="-169" y="-163"/>
      <point x="-120" y="-261"/>
    </contour>
  </outline>
</glyph>
<glyph name="pi" format="2">
  <advance width="600"/>
  <unicode hex="03C0"/>
  <outline>
    <contour>
      <point x="80" y="0" type="line"/>
      <point x="228" y="0" type="line"/>
      <point x="228" y="401" type="line"/>
      <point x="367" y="401" type="line"/>
      <point x="367" y="149" type="line" smooth="yes"/>
      <point x="367" y="62"/>
      <point x="418" y="0"/>
      <point x="525" y="0" type="curve" smooth="yes"/>
      <point x="575" y="0" type="line"/>
      <point x="575" y="115" type="line"/>
      <point x="515" y="115" type="line"/>
      <point x="515" y="401" type="line"/>
      <point x="575" y="401" type="line"/>
      <point x="575" y="516" type="line"/>
      <point x="20" y="516" type="line"/>
      <point x="20" y="401" type="line"/>
      <point x="80" y="401" type="line"/>
    </contour>
  </outline>
</glyph>
<glyph name="uni0402" format="2">
  <advance width="600"/>
  <unicode hex="0402"/>
  <outline>
    <contour>
      <point x="288" y="-191" type="line"/>
      <point x="422" y="-191" type="line" smooth="yes"/>
      <point x="529" y="-191"/>
      <point x="579" y="-129"/>
      <point x="579" y="-42" type="curve" smooth="yes"/>
      <point x="579" y="219" type="line" smooth="yes"/>
      <point x="579" y="387"/>
      <point x="525" y="444"/>
      <point x="397" y="444" type="curve" smooth="yes"/>
      <point x="355" y="444"/>
      <point x="321" y="434"/>
      <point x="293" y="422" type="curve"/>
      <point x="288" y="422" type="line"/>
      <point x="288" y="575" type="line"/>
      <point x="420" y="575" type="line"/>
      <point x="420" y="698" type="line"/>
      <point x="5" y="698" type="line"/>
      <point x="5" y="575" type="line"/>
      <point x="137" y="575" type="line"/>
      <point x="137" y="0" type="line"/>
      <point x="288" y="0" type="line"/>
      <point x="288" y="306" type="line"/>
      <point x="308" y="316"/>
      <point x="332" y="323"/>
      <point x="358" y="323" type="curve" smooth="yes"/>
      <point x="406" y="323"/>
      <point x="428" y="301"/>
      <point x="428" y="223" type="curve" smooth="yes"/>
      <point x="428" y="-68" type="line"/>
      <point x="288" y="-68" type="line"/>
    </contour>
  </outline>
</glyph>
<glyph name="uni0404" format="2">
  <advance width="600"/>
  <unicode hex="0404"/>
  <outline>
    <contour>
      <point x="378" y="292" type="line"/>
      <point x="378" y="415" type="line"/>
      <point x="195" y="415" type="line"/>
      <point x="196" y="523"/>
      <point x="227" y="589"/>
      <point x="311" y="589" type="curve" smooth="yes"/>
      <point x="387" y="589"/>
      <point x="412" y="541"/>
      <point x="426" y="485" type="curve"/>
      <point x="566" y="519" type="line"/>
      <point x="539" y="631"/>
      <point x="464" y="710"/>
      <point x="314" y="710" type="curve" smooth="yes"/>
      <point x="123" y="710"/>
      <point x="35" y="578"/>
      <point x="35" y="349" type="curve" smooth="yes"/>
      <point x="35" y="120"/>
      <point x="123" y="-12"/>
      <point x="314" y="-12" type="curve" smooth="yes"/>
      <point x="464" y="-12"/>
      <point x="539" y="67"/>
      <point x="566" y="179" type="curve"/>
      <point x="426" y="213" type="line"/>
      <point x="414" y="157"/>
      <point x="387" y="109"/>
      <point x="311" y="109" type="curve" smooth="yes"/>
      <point x="226" y="109"/>
      <point x="195" y="177"/>
      <point x="195" y="288" type="curve" smooth="yes"/>
      <point x="195" y="292" type="line"/>
    </contour>
  </outline>
</glyph>
<glyph name="uni0409" format="2">
  <advance width="600"/>
  <unicode hex="0409"/>
  <outline>
    <contour>
      <point x="258" y="0" type="line"/>
      <point x="413" y="0" type="line" smooth="yes"/>
      <point x="519" y="0"/>
      <point x="595" y="83"/>
      <point x="595" y="223" type="curve" smooth="yes"/>
      <point x="595" y="363"/>
      <point x="519" y="446"/>
      <point x="413" y="446" type="curve" smooth="yes"/>
      <point x="386" y="446" type="line"/>
      <point x="386" y="698" type="line"/>
      <point x="88" y="698" type="line"/>
      <point x="88" y="511" type="line" smooth="yes"/>
      <point x="88" y="228"/>
      <point x="68" y="149"/>
      <point x="34" y="113" type="curve"/>
      <point x="-4" y="113" type="line"/>
      <point x="-4" y="-6" type="line"/>
      <point x="6" y="-6" type="line" smooth="yes"/>
      <point x="52" y="-6"/>
      <point x="93" y="6"/>
      <point x="124" y="37" type="curve" smooth="yes"/>
      <point x="180" y="93"/>
      <point x="204" y="179"/>
      <point x="204" y="501" type="curve" smooth="yes"/>
      <point x="204" y="585" type="line"/>
      <point x="258" y="585" type="line"/>
    </contour>
    <contour>
      <point x="386" y="113" type="line"/>
      <point x="386" y="333" type="line"/>
      <point x="397" y="333" type="line" smooth="yes"/>
      <point x="434" y="333"/>
      <point x="463" y="309"/>
      <point x="463" y="259" type="curve" smooth="yes"/>
      <point x="463" y="187" type="line" smooth="yes"/>
      <point x="463" y="137"/>
      <point x="434" y="113"/>
      <point x="397" y="113" type="curve" smooth="yes"/>
    </contour>
  </outline>
</glyph>
<glyph name="uni040A" format="2">
  <advance width="600"/>
  <unicode hex="040A"/>
  <outline>
    <contour>
      <point x="245" y="0" type="line"/>
      <point x="403" y="0" type="line" smooth="yes"/>
      <point x="519" y="0"/>
      <point x="595" y="83"/>
      <point x="595" y="223" type="curve" smooth="yes"/>
      <point x="595" y="363"/>
      <point x="519" y="446"/>
      <point x="403" y="446" type="curve" smooth="yes"/>
      <point x="373" y="446" type="line"/>
      <point x="373" y="698" type="line"/>
      <point x="245" y="698" type="line"/>
      <point x="245" y="410" type="line"/>
      <point x="156" y="410" type="line"/>
      <point x="156" y="698" type="line"/>
      <point x="28" y="698" type="line"/>
      <point x="28" y="0" type="line"/>
      <point x="156" y="0" type="line"/>
      <point x="156" y="297" type="line"/>
      <point x="245" y="297" type="line"/>
    </contour>
    <contour>
      <point x="373" y="113" type="line"/>
      <point x="373" y="333" type="line"/>
      <point x="387" y="333" type="line" smooth="yes"/>
      <point x="434" y="333"/>
      <point x="463" y="309"/>
      <point x="463" y="259" type="curve" smooth="yes"/>
      <point x="463" y="187" type="line" smooth="yes"/>
      <point x="463" y="137"/>
      <point x="434" y="113"/>
      <point x="387" y="113" type="curve" smooth="yes"/>
    </contour>
  </outline>
</glyph>
<glyph name="uni040B" format="2">
  <advance width="600"/>
  <unicode hex="040B"/>
  <outline>
    <contour>
      <point x="137" y="0" type="line"/>
      <point x="288" y="0" type="line"/>
      <point x="288" y="306" type="line"/>
      <point x="308" y="316"/>
      <point x="332" y="323"/>
      <point x="358" y="323" type="curve" smooth="yes"/>
      <point x="406" y="323"/>
      <point x="428" y="301"/>
      <point x="428" y="223" type="curve" smooth="yes"/>
      <point x="428" y="0" type="line"/>
      <point x="579" y="0" type="line"/>
      <point x="579" y="219" type="line" smooth="yes"/>
      <point x="579" y="387"/>
      <point x="525" y="444"/>
      <point x="397" y="444" type="curve" smooth="yes"/>
      <point x="355" y="444"/>
      <point x="321" y="434"/>
      <point x="293" y="422" type="curve"/>
      <point x="288" y="422" type="line"/>
      <point x="288" y="575" type="line"/>
      <point x="420" y="575" type="line"/>
      <point x="420" y="698" type="line"/>
      <point x="5" y="698" type="line"/>
      <point x="5" y="575" type="line"/>
      <point x="137" y="575" type="line"/>
    </contour>
  </outline>
</glyph>
<glyph name="uni040F" format="2">
  <advance width="600"/>
  <unicode hex="040F"/>
  <outline>
    <contour>
      <point x="229" y="-150" type="line"/>
      <point x="371" y="-150" type="line"/>
      <point x="371" y="0" type="line"/>
      <point x="539" y="0" type="line"/>
      <point x="539" y="698" type="line"/>
      <point x="388" y="698" type="line"/>
      <point x="388" y="123" type="line"/>
      <point x="212" y="123" type="line"/>
      <point x="212" y="698" type="line"/>
      <point x="61" y="698" type="line"/>
      <point x="61" y="0" type="line"/>
      <point x="229" y="0" type="line"/>
    </contour>
  </outline>
</glyph>
<glyph name="uni0411" format="2">
  <advance width="600"/>
  <unicode hex="0411"/>
  <outline>
    <contour>
      <point x="64" y="0" type="line"/>
      <point x="353" y="0" type="line" smooth="yes"/>
      <point x="483" y="0"/>
      <point x="565" y="91"/>
      <point x="565" y="215" type="curve" smooth="yes"/>
      <point x="565" y="341"/>
      <point x="483" y="426"/>
      <point x="353" y="426" type="curve" smooth="yes"/>
      <point x="215" y="426" type="line"/>
      <point x="215" y="575" type="line"/>
      <point x="497" y="575" type="line"/>
      <point x="497" y="698" type="line"/>
      <point x="64" y="698" type="line"/>
    </contour>
    <contour>
      <point x="215" y="118" type="line"/>
      <point x="215" y="308" type="line"/>
      <point x="325" y="308" type="line" smooth="yes"/>
      <point x="380" y="308"/>
      <point x="408" y="284"/>
      <point x="408" y="234" type="curve" smooth="yes"/>
      <point x="408" y="192" type="line" smooth="yes"/>
      <point x="408" y="142"/>
      <point x="380" y="118"/>
      <point x="325" y="118" type="curve" smooth="yes"/>
    </contour>
  </outline>
</glyph>
<glyph name="uni0413" format="2">
  <advance width="600"/>
  <unicode hex="0413"/>
  <anchor x="317.0" y="698.0" name="top"/>
  <outline>
    <contour>
      <point x="107" y="0" type="line"/>
      <point x="258" y="0" type="line"/>
      <point x="258" y="575" type="line"/>
      <point x="528" y="575" type="line"/>
      <point x="528" y="698" type="line"/>
      <point x="107" y="698" type="line"/>
    </contour>
  </outline>
</glyph>
<glyph name="uni0414" format="2">
  <advance width="600"/>
  <unicode hex="0414"/>
  <outline>
    <contour>
      <point x="11" y="-150" type="line"/>
      <point x="149" y="-150" type="line"/>
      <point x="149" y="0" type="line"/>
      <point x="445" y="0" type="line"/>
      <point x="445" y="-150" type="line"/>
      <point x="583" y="-150" type="line"/>
      <point x="583" y="123" type="line"/>
      <point x="516" y="123" type="line"/>
      <point x="516" y="698" type="line"/>
      <point x="141" y="698" type="line"/>
      <point x="141" y="507" type="line" smooth="yes"/>
      <point x="141" y="282"/>
      <point x="107" y="173"/>
      <point x="61" y="123" type="curve"/>
      <point x="11" y="123" type="line"/>
    </contour>
    <contour>
      <point x="371" y="123" type="line"/>
      <point x="210" y="123" type="line"/>
      <point x="248" y="183"/>
      <point x="272" y="288"/>
      <point x="272" y="485" type="curve" smooth="yes"/>
      <point x="272" y="579" type="line"/>
      <point x="371" y="579" type="line"/>
    </contour>
  </outline>
</glyph>
<glyph name="uni0416" format="2">
  <advance width="600"/>
  <unicode hex="0416"/>
  <anchor x="300.0" y="698.0" name="top"/>
  <outline>
    <contour>
      <point x="235" y="0" type="line"/>
      <point x="365" y="0" type="line"/>
      <point x="365" y="297" type="line"/>
      <point x="407" y="297" type="line"/>
      <point x="463" y="0" type="line"/>
      <point x="598" y="0" type="line"/>
      <point x="551" y="249" type="line" smooth="yes"/>
      <point x="539" y="315"/>
      <point x="514" y="347"/>
      <point x="464" y="357" type="curve"/>
      <point x="464" y="363" type="line"/>
      <point x="506" y="375"/>
      <point x="532" y="403"/>
      <point x="544" y="465" type="curve" smooth="yes"/>
      <point x="588" y="698" type="line"/>
      <point x="461" y="698" type="line"/>
      <point x="407" y="410" type="line"/>
      <point x="365" y="410" type="line"/>
      <point x="365" y="698" type="line"/>
      <point x="235" y="698" type="line"/>
      <point x="235" y="410" type="line"/>
      <point x="193" y="410" type="line"/>
      <point x="139" y="698" type="line"/>
      <point x="12" y="698" type="line"/>
      <point x="56" y="465" type="line" smooth="yes"/>
      <point x="68" y="403"/>
      <point x="94" y="375"/>
      <point x="136" y="363" type="curve"/>
      <point x="136" y="357" type="line"/>
      <point x="86" y="347"/>
      <point x="61" y="315"/>
      <point x="49" y="249" type="curve" smooth="yes"/>
      <point x="2" y="0" type="line"/>
      <point x="137" y="0" type="line"/>
      <point x="193" y="297" type="line"/>
      <point x="235" y="297" type="line"/>
    </contour>
  </outline>
</glyph>
<glyph name="uni0418" format="2">
  <advance width="600"/>
  <unicode hex="0418"/>
  <anchor x="300.0" y="698.0" name="top"/>
  <outline>
    <contour>
      <point x="55" y="0" type="line"/>
      <point x="196" y="0" type="line"/>
      <point x="406" y="446" type="line"/>
      <point x="416" y="446" type="line"/>
      <point x="404" y="259" type="line"/>
      <point x="404" y="0" type="line"/>
      <point x="545" y="0" type="line"/>
      <point x="545" y="698" type="line"/>
      <point x="404" y="698" type="line"/>
      <point x="194" y="252" type="line"/>
      <point x="184" y="252" type="line"/>
      <point x="196" y="439" type="line"/>
      <point x="196" y="698" type="line"/>
      <point x="55" y="698" type="line"/>
    </contour>
  </outline>
</glyph>
<glyph name="uni041A" format="2">
  <advance width="600"/>
  <unicode hex="041A"/>
  <anchor x="302.0" y="698.0" name="top"/>
  <outline>
    <contour>
      <point x="61" y="0" type="line"/>
      <point x="212" y="0" type="line"/>
      <point x="212" y="293" type="line"/>
      <point x="300" y="293" type="line"/>
      <point x="376" y="95" type="line" smooth="yes"/>
      <point x="403" y="25"/>
      <point x="440" y="0"/>
      <point x="502" y="0" type="curve" smooth="yes"/>
      <point x="576" y="0" type="line"/>
      <point x="576" y="123" type="line"/>
      <point x="520" y="123" type="line"/>
      <point x="460" y="278" type="line" smooth="yes"/>
      <point x="439" y="332"/>
      <point x="419" y="349"/>
      <point x="383" y="357" type="curve"/>
      <point x="383" y="363" type="line"/>
      <point x="419" y="371"/>
      <point x="441" y="393"/>
      <point x="463" y="449" type="curve" smooth="yes"/>
      <point x="561" y="698" type="line"/>
      <point x="412" y="698" type="line"/>
      <point x="300" y="414" type="line"/>
      <point x="212" y="414" type="line"/>
      <point x="212" y="698" type="line"/>
      <point x="61" y="698" type="line"/>
    </contour>
  </outline>
</glyph>
<glyph name="uni041B" format="2">
  <advance width="600"/>
  <unicode hex="041B"/>
  <outline>
    <contour>
      <point x="399" y="0" type="line"/>
      <point x="550" y="0" type="line"/>
      <point x="550" y="698" type="line"/>
      <point x="150" y="698" type="line"/>
      <point x="150" y="476" type="line" smooth="yes"/>
      <point x="150" y="264"/>
      <point x="123" y="169"/>
      <point x="81" y="123" type="curve"/>
      <point x="12" y="123" type="line"/>
      <point x="12" y="-6" type="line"/>
      <point x="41" y="-6" type="line" smooth="yes"/>
      <point x="111" y="-6"/>
      <point x="155" y="10"/>
      <point x="196" y="51" type="curve" smooth="yes"/>
      <point x="248" y="103"/>
      <point x="289" y="209"/>
      <point x="289" y="455" type="curve" smooth="yes"/>
      <point x="289" y="575" type="line"/>
      <point x="399" y="575" type="line"/>
    </contour>
  </outline>
</glyph>
<glyph name="uni041F" format="2">
  <advance width="600"/>
  <unicode hex="041F"/>
  <outline>
    <contour>
      <point x="61" y="0" type="line"/>
      <point x="212" y="0" type="line"/>
      <point x="212" y="575" type="line"/>
      <point x="388" y="575" type="line"/>
      <point x="388" y="0" type="line"/>
      <point x="539" y="0" type="line"/>
      <point x="539" y="698" type="line"/>
      <point x="61" y="698" type="line"/>
    </contour>
  </outline>
</glyph>
<glyph name="uni0423" format="2">
  <advance width="600"/>
  <unicode hex="0423"/>
  <anchor x="308.0" y="698.0" name="top"/>
  <outline>
    <contour>
      <point x="109" y="0" type="line"/>
      <point x="209" y="0" type="line" smooth="yes"/>
      <point x="292" y="0"/>
      <point x="336" y="30"/>
      <point x="371" y="123" type="curve" smooth="yes"/>
      <point x="589" y="698" type="line"/>
      <point x="437" y="698" type="line"/>
      <point x="349" y="450" type="line"/>
      <point x="317" y="330" type="line"/>
      <point x="314" y="330" type="line"/>
      <point x="277" y="450" type="line"/>
      <point x="175" y="698" type="line"/>
      <point x="16" y="698" type="line"/>
      <point x="246" y="171" type="line"/>
      <point x="227" y="123" type="line"/>
      <point x="109" y="123" type="line"/>
    </contour>
  </outline>
</glyph>
<glyph name="uni0424" format="2">
  <advance width="600"/>
  <unicode hex="0424"/>
  <outline>
    <contour>
      <point x="226" y="-34" type="line"/>
      <point x="374" y="-34" type="line"/>
      <point x="374" y="49" type="line"/>
      <point x="502" y="65"/>
      <point x="576" y="162"/>
      <point x="576" y="348" type="curve" smooth="yes"/>
      <point x="576" y="536"/>
      <point x="504" y="631"/>
      <point x="374" y="647" type="curve"/>
      <point x="374" y="730" type="line"/>
      <point x="226" y="730" type="line"/>
      <point x="226" y="647" type="line"/>
      <point x="98" y="631"/>
      <point x="24" y="534"/>
      <point x="24" y="348" type="curve" smooth="yes"/>
      <point x="24" y="160"/>
      <point x="96" y="65"/>
      <point x="226" y="49" type="curve"/>
    </contour>
    <contour>
      <point x="236" y="154" type="line"/>
      <point x="184" y="160"/>
      <point x="156" y="201"/>
      <point x="156" y="281" type="curve" smooth="yes"/>
      <point x="156" y="415" type="line" smooth="yes"/>
      <point x="156" y="495"/>
      <point x="184" y="536"/>
      <point x="236" y="542" type="curve"/>
    </contour>
    <contour>
      <point x="364" y="154" type="curve"/>
      <point x="364" y="542" type="line"/>
      <point x="416" y="536"/>
      <point x="444" y="495"/>
      <point x="444" y="415" type="curve" smooth="yes"/>
      <point x="444" y="281" type="line" smooth="yes"/>
      <point x="444" y="201"/>
      <point x="416" y="160"/>
    </contour>
  </outline>
</glyph>
<glyph name="uni0426" format="2">
  <advance width="600"/>
  <unicode hex="0426"/>
  <outline>
    <contour>
      <point x="441" y="-150" type="line"/>
      <point x="583" y="-150" type="line"/>
      <point x="583" y="123" type="line"/>
      <point x="506" y="123" type="line"/>
      <point x="506" y="698" type="line"/>
      <point x="355" y="698" type="line"/>
      <point x="355" y="123" type="line"/>
      <point x="197" y="123" type="line"/>
      <point x="197" y="698" type="line"/>
      <point x="46" y="698" type="line"/>
      <point x="46" y="0" type="line"/>
      <point x="441" y="0" type="line"/>
    </contour>
  </outline>
</glyph>
<glyph name="uni0427" format="2">
  <advance width="600"/>
  <unicode hex="0427"/>
  <anchor x="288.0" y="698.0" name="top"/>
  <outline>
    <contour>
      <point x="388" y="0" type="line"/>
      <point x="539" y="0" type="line"/>
      <point x="539" y="698" type="line"/>
      <point x="388" y="698" type="line"/>
      <point x="388" y="362" type="line"/>
      <point x="360" y="352"/>
      <point x="328" y="345"/>
      <point x="288" y="345" type="curve" smooth="yes"/>
      <point x="216" y="345"/>
      <point x="188" y="375"/>
      <point x="188" y="471" type="curve" smooth="yes"/>
      <point x="188" y="698" type="line"/>
      <point x="37" y="698" type="line"/>
      <point x="37" y="475" type="line" smooth="yes"/>
      <point x="37" y="291"/>
      <point x="105" y="224"/>
      <point x="263" y="224" type="curve" smooth="yes"/>
      <point x="311" y="224"/>
      <point x="353" y="234"/>
      <point x="383" y="246" type="curve"/>
      <point x="388" y="246" type="line"/>
    </contour>
  </outline>
</glyph>
<glyph name="uni0428" format="2">
  <advance width="600"/>
  <unicode hex="0428"/>
  <outline>
    <contour>
      <point x="28" y="0" type="line"/>
      <point x="572" y="0" type="line"/>
      <point x="572" y="698" type="line"/>
      <point x="444" y="698" type="line"/>
      <point x="444" y="113" type="line"/>
      <point x="364" y="113" type="line"/>
      <point x="364" y="698" type="line"/>
      <point x="236" y="698" type="line"/>
      <point x="236" y="113" type="line"/>
      <point x="156" y="113" type="line"/>
      <point x="156" y="698" type="line"/>
      <point x="28" y="698" type="line"/>
    </contour>
  </outline>
</glyph>
<glyph name="uni0429" format="2">
  <advance width="600"/>
  <unicode hex="0429"/>
  <outline>
    <contour>
      <point x="481" y="-150" type="line"/>
      <point x="591" y="-150" type="line"/>
      <point x="591" y="113" type="line"/>
      <point x="534" y="113" type="line"/>
      <point x="534" y="698" type="line"/>
      <point x="414" y="698" type="line"/>
      <point x="414" y="113" type="line"/>
      <point x="341" y="113" type="line"/>
      <point x="341" y="698" type="line"/>
      <point x="221" y="698" type="line"/>
      <point x="221" y="113" type="line"/>
      <point x="148" y="113" type="line"/>
      <point x="148" y="698" type="line"/>
      <point x="28" y="698" type="line"/>
      <point x="28" y="0" type="line"/>
      <point x="481" y="0" type="line"/>
    </contour>
  </outline>
</glyph>
<glyph name="uni042A" format="2">
  <advance width="600"/>
  <unicode hex="042A"/>
  <outline>
    <contour>
      <point x="121" y="0" type="line"/>
      <point x="378" y="0" type="line" smooth="yes"/>
      <point x="508" y="0"/>
      <point x="590" y="87"/>
      <point x="590" y="223" type="curve" smooth="yes"/>
      <point x="590" y="361"/>
      <point x="508" y="446"/>
      <point x="378" y="446" type="curve" smooth="yes"/>
      <point x="272" y="446" type="line"/>
      <point x="272" y="698" type="line"/>
      <point x="5" y="698" type="line"/>
      <point x="5" y="575" type="line"/>
      <point x="121" y="575" type="line"/>
    </contour>
    <contour>
      <point x="272" y="118" type="line"/>
      <point x="272" y="328" type="line"/>
      <point x="350" y="328" type="line" smooth="yes"/>
      <point x="405" y="328"/>
      <point x="433" y="304"/>
      <point x="433" y="254" type="curve" smooth="yes"/>
      <point x="433" y="192" type="line" smooth="yes"/>
      <point x="433" y="142"/>
      <point x="405" y="118"/>
      <point x="350" y="118" type="curve" smooth="yes"/>
    </contour>
  </outline>
</glyph>
<glyph name="uni042B" format="2">
  <advance width="600"/>
  <unicode hex="042B"/>
  <anchor x="300.0" y="698.0" name="top"/>
  <outline>
    <contour>
      <point x="28" y="0" type="line"/>
      <point x="200" y="0" type="line" smooth="yes"/>
      <point x="320" y="0"/>
      <point x="395" y="86"/>
      <point x="395" y="223" type="curve" smooth="yes"/>
      <point x="395" y="359"/>
      <point x="320" y="446"/>
      <point x="200" y="446" type="curve" smooth="yes"/>
      <point x="156" y="446" type="line"/>
      <point x="156" y="698" type="line"/>
      <point x="28" y="698" type="line"/>
    </contour>
    <contour>
      <point x="156" y="113" type="line"/>
      <point x="156" y="333" type="line"/>
      <point x="178" y="333" type="line" smooth="yes"/>
      <point x="233" y="333"/>
      <point x="263" y="309"/>
      <point x="263" y="259" type="curve" smooth="yes"/>
      <point x="263" y="187" type="line" smooth="yes"/>
      <point x="263" y="137"/>
      <point x="233" y="113"/>
      <point x="178" y="113" type="curve" smooth="yes"/>
    </contour>
    <contour>
      <point x="444" y="0" type="line"/>
      <point x="444" y="698" type="line"/>
      <point x="572" y="698" type="line"/>
      <point x="572" y="0" type="line"/>
    </contour>
  </outline>
</glyph>
<glyph name="uni042C" format="2">
  <advance width="600"/>
  <unicode hex="042C"/>
  <outline>
    <contour>
      <point x="68" y="0" type="line"/>
      <point x="350" y="0" type="line" smooth="yes"/>
      <point x="480" y="0"/>
      <point x="562" y="87"/>
      <point x="562" y="223" type="curve" smooth="yes"/>
      <point x="562" y="361"/>
      <point x="480" y="446"/>
      <point x="350" y="446" type="curve" smooth="yes"/>
      <point x="219" y="446" type="line"/>
      <point x="219" y="698" type="line"/>
      <point x="68" y="698" type="line"/>
    </contour>
    <contour>
      <point x="219" y="118" type="line"/>
      <point x="219" y="328" type="line"/>
      <point x="322" y="328" type="line" smooth="yes"/>
      <point x="377" y="328"/>
      <point x="405" y="304"/>
      <point x="405" y="254" type="curve" smooth="yes"/>
      <point x="405" y="192" type="line" smooth="yes"/>
      <point x="405" y="142"/>
      <point x="377" y="118"/>
      <point x="322" y="118" type="curve" smooth="yes"/>
    </contour>
  </outline>
</glyph>
<glyph name="uni042D" format="2">
  <advance width="600"/>
  <unicode hex="042D"/>
  <outline>
    <contour>
      <point x="287" y="-12" type="curve" smooth="yes"/>
      <point x="478" y="-12"/>
      <point x="566" y="120"/>
      <point x="566" y="349" type="curve" smooth="yes"/>
      <point x="566" y="578"/>
      <point x="478" y="710"/>
      <point x="287" y="710" type="curve" smooth="yes"/>
      <point x="137" y="710"/>
      <point x="62" y="631"/>
      <point x="35" y="519" type="curve"/>
      <point x="175" y="485" type="line"/>
      <point x="189" y="541"/>
      <point x="214" y="589"/>
      <point x="290" y="589" type="curve" smooth="yes"/>
      <point x="373" y="589"/>
      <point x="405" y="523"/>
      <point x="406" y="415" type="curve"/>
      <point x="223" y="415" type="line"/>
      <point x="223" y="292" type="line"/>
      <point x="406" y="292" type="line"/>
      <point x="406" y="288" type="line" smooth="yes"/>
      <point x="406" y="177"/>
      <point x="375" y="109"/>
      <point x="290" y="109" type="curve" smooth="yes"/>
      <point x="214" y="109"/>
      <point x="187" y="157"/>
      <point x="175" y="213" type="curve"/>
      <point x="35" y="179" type="line"/>
      <point x="62" y="67"/>
      <point x="137" y="-12"/>
    </contour>
  </outline>
</glyph>
<glyph name="uni042E" format="2">
  <advance width="600"/>
  <unicode hex="042E"/>
  <outline>
    <contour>
      <point x="393" y="-12" type="curve" smooth="yes"/>
      <point x="517" y="-12"/>
      <point x="576" y="63"/>
      <point x="576" y="349" type="curve" smooth="yes"/>
      <point x="576" y="639"/>
      <point x="521" y="710"/>
      <point x="393" y="710" type="curve" smooth="yes"/>
      <point x="268" y="710"/>
      <point x="217" y="637"/>
      <point x="211" y="410" type="curve"/>
      <point x="156" y="410" type="line"/>
      <point x="156" y="698" type="line"/>
      <point x="28" y="698" type="line"/>
      <point x="28" y="0" type="line"/>
      <point x="156" y="0" type="line"/>
      <point x="156" y="297" type="line"/>
      <point x="211" y="297" type="line"/>
      <point x="218" y="59"/>
      <point x="273" y="-12"/>
    </contour>
    <contour>
      <point x="393" y="101" type="curve" smooth="yes"/>
      <point x="359" y="101"/>
      <point x="341" y="123"/>
      <point x="341" y="225" type="curve" smooth="yes"/>
      <point x="341" y="473" type="line" smooth="yes"/>
      <point x="341" y="575"/>
      <point x="359" y="597"/>
      <point x="393" y="597" type="curve" smooth="yes"/>
      <point x="427" y="597"/>
      <point x="445" y="575"/>
      <point x="445" y="473" type="curve" smooth="yes"/>
      <point x="445" y="225" type="line" smooth="yes"/>
      <point x="445" y="123"/>
      <point x="427" y="101"/>
    </contour>
  </outline>
</glyph>
<glyph name="uni0431" format="2">
  <advance width="600"/>
  <unicode hex="0431"/>
  <outline>
    <contour>
      <point x="301" y="-12" type="curve" smooth="yes"/>
      <point x="457" y="-12"/>
      <point x="553" y="91"/>
      <point x="553" y="258" type="curve" smooth="yes"/>
      <point x="553" y="417"/>
      <point x="471" y="502"/>
      <point x="351" y="502" type="curve" smooth="yes"/>
      <point x="279" y="502"/>
      <point x="233" y="465"/>
      <point x="211" y="399" type="curve"/>
      <point x="204" y="399" type="line"/>
      <point x="210" y="543"/>
      <point x="243" y="602"/>
      <point x="380" y="607" type="curve" smooth="yes"/>
      <point x="520" y="612" type="line"/>
      <point x="520" y="746" type="line"/>
      <point x="365" y="739" type="line" smooth="yes"/>
      <point x="132" y="728"/>
      <point x="48" y="594"/>
      <point x="48" y="279" type="curve" smooth="yes"/>
      <point x="48" y="91"/>
      <point x="145" y="-12"/>
    </contour>
    <contour>
      <point x="301" y="98" type="curve" smooth="yes"/>
      <point x="240" y="98"/>
      <point x="202" y="141"/>
      <point x="202" y="217" type="curve" smooth="yes"/>
      <point x="202" y="273" type="line" smooth="yes"/>
      <point x="202" y="349"/>
      <point x="240" y="392"/>
      <point x="301" y="392" type="curve" smooth="yes"/>
      <point x="363" y="392"/>
      <point x="400" y="357"/>
      <point x="400" y="289" type="curve" smooth="yes"/>
      <point x="400" y="211" type="line" smooth="yes"/>
      <point x="400" y="143"/>
      <point x="361" y="98"/>
    </contour>
  </outline>
</glyph>
<glyph name="uni0432" format="2">
  <advance width="600"/>
  <unicode hex="0432"/>
  <outline>
    <contour>
      <point x="80" y="0" type="line"/>
      <point x="377" y="0" type="line" smooth="yes"/>
      <point x="481" y="0"/>
      <point x="543" y="59"/>
      <point x="543" y="152" type="curve" smooth="yes"/>
      <point x="543" y="219"/>
      <point x="496" y="260"/>
      <point x="414" y="266" type="curve"/>
      <point x="414" y="271" type="line"/>
      <point x="491" y="286"/>
      <point x="523" y="326"/>
      <point x="523" y="384" type="curve" smooth="yes"/>
      <point x="523" y="463"/>
      <point x="471" y="516"/>
      <point x="375" y="516" type="curve" smooth="yes"/>
      <point x="80" y="516" type="line"/>
    </contour>
    <contour>
      <point x="224" y="105" type="line"/>
      <point x="224" y="214" type="line"/>
      <point x="351" y="214" type="line" smooth="yes"/>
      <point x="378" y="214"/>
      <point x="395" y="200"/>
      <point x="395" y="171" type="curve" smooth="yes"/>
      <point x="395" y="147" type="line" smooth="yes"/>
      <point x="395" y="120"/>
      <point x="380" y="105"/>
      <point x="351" y="105" type="curve" smooth="yes"/>
    </contour>
    <contour>
      <point x="224" y="302" type="line"/>
      <point x="224" y="411" type="line"/>
      <point x="333" y="411" type="line" smooth="yes"/>
      <point x="359" y="411"/>
      <point x="375" y="395"/>
      <point x="375" y="367" type="curve" smooth="yes"/>
      <point x="375" y="346" type="line" smooth="yes"/>
      <point x="375" y="318"/>
      <point x="359" y="302"/>
      <point x="333" y="302" type="curve" smooth="yes"/>
    </contour>
  </outline>
</glyph>
<glyph name="uni0433" format="2">
  <advance width="600"/>
  <unicode hex="0433"/>
  <anchor x="317.0" y="516.0" name="top"/>
  <outline>
    <contour>
      <point x="122" y="0" type="line"/>
      <point x="270" y="0" type="line"/>
      <point x="270" y="401" type="line"/>
      <point x="512" y="401" type="line"/>
      <point x="512" y="516" type="line"/>
      <point x="122" y="516" type="line"/>
    </contour>
  </outline>
</glyph>
<glyph name="uni0434" format="2">
  <advance width="600"/>
  <unicode hex="0434"/>
  <outline>
    <contour>
      <point x="10" y="-140" type="line"/>
      <point x="144" y="-140" type="line"/>
      <point x="144" y="0" type="line"/>
      <point x="449" y="0" type="line"/>
      <point x="449" y="-140" type="line"/>
      <point x="583" y="-140" type="line"/>
      <point x="583" y="115" type="line"/>
      <point x="503" y="115" type="line"/>
      <point x="503" y="516" type="line"/>
      <point x="126" y="516" type="line"/>
      <point x="126" y="358" type="line" smooth="yes"/>
      <point x="126" y="248"/>
      <point x="104" y="167"/>
      <point x="70" y="115" type="curve"/>
      <point x="10" y="115" type="line"/>
    </contour>
    <contour>
      <point x="217" y="115" type="line"/>
      <point x="243" y="167"/>
      <point x="259" y="250"/>
      <point x="259" y="354" type="curve" smooth="yes"/>
      <point x="259" y="401" type="line"/>
      <point x="360" y="401" type="line"/>
      <point x="360" y="115" type="line"/>
    </contour>
  </outline>
</glyph>
<glyph name="uni0436" format="2">
  <advance width="600"/>
  <unicode hex="0436"/>
  <anchor x="300.0" y="516.0" name="top"/>
  <outline>
    <contour>
      <point x="241" y="0" type="line"/>
      <point x="359" y="0" type="line"/>
      <point x="359" y="210" type="line"/>
      <point x="408" y="210" type="line"/>
      <point x="458" y="0" type="line"/>
      <point x="586" y="0" type="line"/>
      <point x="544" y="170" type="line" smooth="yes"/>
      <point x="531" y="223"/>
      <point x="511" y="250"/>
      <point x="463" y="262" type="curve"/>
      <point x="463" y="269" type="line"/>
      <point x="501" y="281"/>
      <point x="523" y="305"/>
      <point x="535" y="351" type="curve" smooth="yes"/>
      <point x="578" y="516" type="line"/>
      <point x="457" y="516" type="line"/>
      <point x="404" y="313" type="line"/>
      <point x="359" y="313" type="line"/>
      <point x="359" y="516" type="line"/>
      <point x="241" y="516" type="line"/>
      <point x="241" y="313" type="line"/>
      <point x="196" y="313" type="line"/>
      <point x="144" y="516" type="line"/>
      <point x="22" y="516" type="line"/>
      <point x="65" y="351" type="line" smooth="yes"/>
      <point x="77" y="305"/>
      <point x="99" y="281"/>
      <point x="137" y="269" type="curve"/>
      <point x="137" y="262" type="line"/>
      <point x="89" y="250"/>
      <point x="69" y="223"/>
      <point x="56" y="170" type="curve" smooth="yes"/>
      <point x="14" y="0" type="line"/>
      <point x="141" y="0" type="line"/>
      <point x="192" y="210" type="line"/>
      <point x="241" y="210" type="line"/>
    </contour>
  </outline>
</glyph>
<glyph name="uni0437" format="2">
  <advance width="600"/>
  <unicode hex="0437"/>
  <anchor x="299.0" y="516.0" name="top"/>
  <outline>
    <contour>
      <point x="289" y="-12" type="curve" smooth="yes"/>
      <point x="449" y="-12"/>
      <point x="536" y="51"/>
      <point x="536" y="144" type="curve" smooth="yes"/>
      <point x="536" y="212"/>
      <point x="487" y="257"/>
      <point x="419" y="267" type="curve"/>
      <point x="419" y="272" type="line"/>
      <point x="483" y="284"/>
      <point x="526" y="324"/>
      <point x="526" y="388" type="curve" smooth="yes"/>
      <point x="526" y="468"/>
      <point x="443" y="528"/>
      <point x="299" y="528" type="curve" smooth="yes"/>
      <point x="188" y="528"/>
      <point x="119" y="493"/>
      <point x="65" y="435" type="curve"/>
      <point x="147" y="359" type="line"/>
      <point x="185" y="399"/>
      <point x="227" y="418"/>
      <point x="286" y="418" type="curve" smooth="yes"/>
      <point x="347" y="418"/>
      <point x="377" y="393"/>
      <point x="377" y="363" type="curve" smooth="yes"/>
      <point x="377" y="357" type="line" smooth="yes"/>
      <point x="377" y="326"/>
      <point x="360" y="307"/>
      <point x="318" y="307" type="curve" smooth="yes"/>
      <point x="210" y="307" type="line"/>
      <point x="210" y="209" type="line"/>
      <point x="331" y="209" type="line" smooth="yes"/>
      <point x="370" y="209"/>
      <point x="387" y="192"/>
      <point x="387" y="163" type="curve" smooth="yes"/>
      <point x="387" y="157" type="line" smooth="yes"/>
      <point x="387" y="121"/>
      <point x="354" y="98"/>
      <point x="293" y="98" type="curve" smooth="yes"/>
      <point x="220" y="98"/>
      <point x="176" y="119"/>
      <point x="136" y="163" type="curve"/>
      <point x="51" y="84" type="line"/>
      <point x="95" y="26"/>
      <point x="181" y="-12"/>
    </contour>
  </outline>
</glyph>
<glyph name="uni0438" format="2">
  <advance width="600"/>
  <unicode hex="0438"/>
  <anchor x="302.0" y="516.0" name="top"/>
  <outline>
    <contour>
      <point x="68" y="0" type="line"/>
      <point x="207" y="0" type="line"/>
      <point x="394" y="318" type="line"/>
      <point x="400" y="318" type="line"/>
      <point x="388" y="166" type="line"/>
      <point x="388" y="0" type="line"/>
      <point x="532" y="0" type="line"/>
      <point x="532" y="516" type="line"/>
      <point x="393" y="516" type="line"/>
      <point x="206" y="198" type="line"/>
      <point x="200" y="198" type="line"/>
      <point x="212" y="350" type="line"/>
      <point x="212" y="516" type="line"/>
      <point x="68" y="516" type="line"/>
    </contour>
  </outline>
</glyph>
<glyph name="uni043A" format="2">
  <advance width="600"/>
  <unicode hex="043A"/>
  <anchor x="300.0" y="516.0" name="top"/>
  <outline>
    <contour>
      <point x="71" y="0" type="line"/>
      <point x="219" y="0" type="line"/>
      <point x="219" y="205" type="line"/>
      <point x="295" y="205" type="line"/>
      <point x="363" y="75" type="line" smooth="yes"/>
      <point x="391" y="21"/>
      <point x="429" y="0"/>
      <point x="485" y="0" type="curve" smooth="yes"/>
      <point x="554" y="0" type="line"/>
      <point x="554" y="115" type="line"/>
      <point x="499" y="115" type="line"/>
      <point x="460" y="192" type="line" smooth="yes"/>
      <point x="435" y="241"/>
      <point x="414" y="258"/>
      <point x="375" y="266" type="curve"/>
      <point x="375" y="272" type="line"/>
      <point x="408" y="278"/>
      <point x="433" y="296"/>
      <point x="456" y="338" type="curve" smooth="yes"/>
      <point x="556" y="516" type="line"/>
      <point x="399" y="516" type="line"/>
      <point x="295" y="318" type="line"/>
      <point x="219" y="318" type="line"/>
      <point x="219" y="516" type="line"/>
      <point x="71" y="516" type="line"/>
    </contour>
  </outline>
</glyph>
<glyph name="uni043B" format="2">
  <advance width="600"/>
  <unicode hex="043B"/>
  <outline>
    <contour>
      <point x="22" y="-6" type="line"/>
      <point x="63" y="-6" type="line" smooth="yes"/>
      <point x="127" y="-6"/>
      <point x="167" y="8"/>
      <point x="205" y="46" type="curve" smooth="yes"/>
      <point x="243" y="84"/>
      <point x="271" y="163"/>
      <point x="271" y="331" type="curve" smooth="yes"/>
      <point x="271" y="401" type="line"/>
      <point x="384" y="401" type="line"/>
      <point x="384" y="0" type="line"/>
      <point x="532" y="0" type="line"/>
      <point x="532" y="516" type="line"/>
      <point x="138" y="516" type="line"/>
      <point x="138" y="335" type="line" smooth="yes"/>
      <point x="138" y="211"/>
      <point x="122" y="151"/>
      <point x="92" y="115" type="curve"/>
      <point x="22" y="115" type="line"/>
    </contour>
  </outline>
</glyph>
<glyph name="uni043C" format="2">
  <advance width="600"/>
  <unicode hex="043C"/>
  <outline>
    <contour>
      <point x="50" y="0" type="line"/>
      <point x="170" y="0" type="line"/>
      <point x="170" y="247" type="line"/>
      <point x="165" y="338" type="line"/>
      <point x="173" y="338" type="line"/>
      <point x="300" y="71" type="line"/>
      <point x="427" y="338" type="line"/>
      <point x="435" y="338" type="line"/>
      <point x="430" y="247" type="line"/>
      <point x="430" y="0" type="line"/>
      <point x="550" y="0" type="line"/>
      <point x="550" y="516" type="line"/>
      <point x="414" y="516" type="line"/>
      <point x="311" y="299" type="line"/>
      <point x="303" y="299" type="line"/>
      <point x="200" y="516" type="line"/>
      <point x="50" y="516" type="line"/>
    </contour>
  </outline>
</glyph>
<glyph name="uni043D" format="2">
  <advance width="600"/>
  <unicode hex="043D"/>
  <outline>
    <contour>
      <point x="68" y="0" type="line"/>
      <point x="216" y="0" type="line"/>
      <point x="216" y="204" type="line"/>
      <point x="384" y="204" type="line"/>
      <point x="384" y="0" type="line"/>
      <point x="532" y="0" type="line"/>
      <point x="532" y="516" type="line"/>
      <point x="384" y="516" type="line"/>
      <point x="384" y="319" type="line"/>
      <point x="216" y="319" type="line"/>
      <point x="216" y="516" type="line"/>
      <point x="68" y="516" type="line"/>
    </contour>
  </outline>
</glyph>
<glyph name="uni043F" format="2">
  <advance width="600"/>
  <unicode hex="043F"/>
  <outline>
    <contour>
      <point x="68" y="0" type="line"/>
      <point x="216" y="0" type="line"/>
      <point x="216" y="401" type="line"/>
      <point x="384" y="401" type="line"/>
      <point x="384" y="0" type="line"/>
      <point x="532" y="0" type="line"/>
      <point x="532" y="516" type="line"/>
      <point x="68" y="516" type="line"/>
    </contour>
  </outline>
</glyph>
<glyph name="uni0442" format="2">
  <advance width="600"/>
  <unicode hex="0442"/>
  <outline>
    <contour>
      <point x="227" y="0" type="line"/>
      <point x="373" y="0" type="line"/>
      <point x="373" y="401" type="line"/>
      <point x="543" y="401" type="line"/>
      <point x="543" y="516" type="line"/>
      <point x="57" y="516" type="line"/>
      <point x="57" y="401" type="line"/>
      <point x="227" y="401" type="line"/>
    </contour>
  </outline>
</glyph>
<glyph name="uni0444" format="2">
  <advance width="600"/>
  <unicode hex="0444"/>
  <outline>
    <contour>
      <point x="200" y="98" type="curve" smooth="yes"/>
      <point x="167" y="98"/>
      <point x="149" y="124"/>
      <point x="149" y="198" type="curve" smooth="yes"/>
      <point x="149" y="318" type="line" smooth="yes"/>
      <point x="149" y="392"/>
      <point x="167" y="418"/>
      <point x="200" y="418" type="curve" smooth="yes"/>
      <point x="229" y="418"/>
      <point x="242" y="401"/>
      <point x="242" y="349" type="curve" smooth="yes"/>
      <point x="242" y="167" type="line" smooth="yes"/>
      <point x="242" y="115"/>
      <point x="229" y="98"/>
    </contour>
    <contour>
      <point x="240" y="-200" type="line"/>
      <point x="360" y="-200" type="line"/>
      <point x="360" y="65" type="line"/>
      <point x="367" y="65" type="line"/>
      <point x="387" y="5"/>
      <point x="416" y="-12"/>
      <point x="456" y="-12" type="curve" smooth="yes"/>
      <point x="534" y="-12"/>
      <point x="575" y="58"/>
      <point x="575" y="258" type="curve" smooth="yes"/>
      <point x="575" y="458"/>
      <point x="534" y="528"/>
      <point x="456" y="528" type="curve" smooth="yes"/>
      <point x="416" y="528"/>
      <point x="387" y="511"/>
      <point x="367" y="451" type="curve"/>
      <point x="360" y="451" type="line"/>
      <point x="360" y="710" type="line"/>
      <point x="240" y="710" type="line"/>
      <point x="240" y="451" type="line"/>
      <point x="233" y="451" type="line"/>
      <point x="213" y="511"/>
      <point x="184" y="528"/>
      <point x="144" y="528" type="curve" smooth="yes"/>
      <point x="66" y="528"/>
      <point x="25" y="458"/>
      <point x="25" y="258" type="curve" smooth="yes"/>
      <point x="25" y="58"/>
      <point x="66" y="-12"/>
      <point x="144" y="-12" type="curve" smooth="yes"/>
      <point x="184" y="-12"/>
      <point x="213" y="5"/>
      <point x="233" y="65" type="curve"/>
      <point x="240" y="65" type="line"/>
    </contour>
    <contour>
      <point x="400" y="98" type="curve" smooth="yes"/>
      <point x="371" y="98"/>
      <point x="358" y="115"/>
      <point x="358" y="167" type="curve" smooth="yes"/>
      <point x="358" y="349" type="line" smooth="yes"/>
      <point x="358" y="401"/>
      <point x="371" y="418"/>
      <point x="400" y="418" type="curve" smooth="yes"/>
      <point x="433" y="418"/>
      <point x="451" y="392"/>
      <point x="451" y="318" type="curve" smooth="yes"/>
      <point x="451" y="198" type="line" smooth="yes"/>
      <point x="451" y="124"/>
      <point x="433" y="98"/>
    </contour>
  </outline>
</glyph>
<glyph name="uni0446" format="2">
  <advance width="600"/>
  <unicode hex="0446"/>
  <outline>
    <contour>
      <point x="449" y="-140" type="line"/>
      <point x="583" y="-140" type="line"/>
      <point x="583" y="115" type="line"/>
      <point x="503" y="115" type="line"/>
      <point x="503" y="516" type="line"/>
      <point x="355" y="516" type="line"/>
      <point x="355" y="115" type="line"/>
      <point x="203" y="115" type="line"/>
      <point x="203" y="516" type="line"/>
      <point x="55" y="516" type="line"/>
      <point x="55" y="0" type="line"/>
      <point x="449" y="0" type="line"/>
    </contour>
  </outline>
</glyph>
<glyph name="uni0447" format="2">
  <advance width="600"/>
  <unicode hex="0447"/>
  <anchor x="289.0" y="516.0" name="top"/>
  <outline>
    <contour>
      <point x="374" y="0" type="line"/>
      <point x="522" y="0" type="line"/>
      <point x="522" y="516" type="line"/>
      <point x="374" y="516" type="line"/>
      <point x="374" y="323" type="line" smooth="yes"/>
      <point x="374" y="287"/>
      <point x="345" y="266"/>
      <point x="285" y="266" type="curve" smooth="yes"/>
      <point x="227" y="266"/>
      <point x="204" y="288"/>
      <point x="204" y="340" type="curve" smooth="yes"/>
      <point x="204" y="516" type="line"/>
      <point x="56" y="516" type="line"/>
      <point x="56" y="333" type="line" smooth="yes"/>
      <point x="56" y="207"/>
      <point x="108" y="146"/>
      <point x="226" y="146" type="curve" smooth="yes"/>
      <point x="292" y="146"/>
      <point x="337" y="173"/>
      <point x="369" y="215" type="curve"/>
      <point x="374" y="215" type="line"/>
    </contour>
  </outline>
</glyph>
<glyph name="uni0448" format="2">
  <advance width="600"/>
  <unicode hex="0448"/>
  <outline>
    <contour>
      <point x="30" y="0" type="line"/>
      <point x="569" y="0" type="line"/>
      <point x="569" y="516" type="line"/>
      <point x="450" y="516" type="line"/>
      <point x="450" y="108" type="line"/>
      <point x="359" y="108" type="line"/>
      <point x="359" y="516" type="line"/>
      <point x="240" y="516" type="line"/>
      <point x="240" y="108" type="line"/>
      <point x="149" y="108" type="line"/>
      <point x="149" y="516" type="line"/>
      <point x="30" y="516" type="line"/>
    </contour>
  </outline>
</glyph>
<glyph name="uni0449" format="2">
  <advance width="600"/>
  <unicode hex="0449"/>
  <outline>
    <contour>
      <point x="491" y="-140" type="line"/>
      <point x="597" y="-140" type="line"/>
      <point x="597" y="108" type="line"/>
      <point x="534" y="108" type="line"/>
      <point x="534" y="516" type="line"/>
      <point x="416" y="516" type="line"/>
      <point x="416" y="108" type="line"/>
      <point x="339" y="108" type="line"/>
      <point x="339" y="516" type="line"/>
      <point x="221" y="516" type="line"/>
      <point x="221" y="108" type="line"/>
      <point x="144" y="108" type="line"/>
      <point x="144" y="516" type="line"/>
      <point x="26" y="516" type="line"/>
      <point x="26" y="0" type="line"/>
      <point x="491" y="0" type="line"/>
    </contour>
  </outline>
</glyph>
<glyph name="uni044A" format="2">
  <advance width="600"/>
  <unicode hex="044A"/>
  <outline>
    <contour>
      <point x="130" y="0" type="line"/>
      <point x="385" y="0" type="line" smooth="yes"/>
      <point x="491" y="0"/>
      <point x="570" y="65"/>
      <point x="570" y="185" type="curve" smooth="yes"/>
      <point x="570" y="304"/>
      <point x="491" y="369"/>
      <point x="389" y="369" type="curve" smooth="yes"/>
      <point x="278" y="369" type="line"/>
      <point x="278" y="516" type="line"/>
      <point x="15" y="516" type="line"/>
      <point x="15" y="401" type="line"/>
      <point x="130" y="401" type="line"/>
    </contour>
    <contour>
      <point x="278" y="108" type="line"/>
      <point x="278" y="261" type="line"/>
      <point x="357" y="261" type="line" smooth="yes"/>
      <point x="396" y="261"/>
      <point x="421" y="235"/>
      <point x="421" y="196" type="curve" smooth="yes"/>
      <point x="421" y="173" type="line" smooth="yes"/>
      <point x="421" y="134"/>
      <point x="396" y="108"/>
      <point x="357" y="108" type="curve" smooth="yes"/>
    </contour>
  </outline>
</glyph>
<glyph name="uni044B" format="2">
  <advance width="600"/>
  <unicode hex="044B"/>
  <anchor x="300.0" y="516.0" name="top"/>
  <outline>
    <contour>
      <point x="30" y="0" type="line"/>
      <point x="208" y="0" type="line" smooth="yes"/>
      <point x="314" y="0"/>
      <point x="393" y="65"/>
      <point x="393" y="185" type="curve" smooth="yes"/>
      <point x="393" y="304"/>
      <point x="314" y="369"/>
      <point x="212" y="369" type="curve" smooth="yes"/>
      <point x="154" y="369" type="line"/>
      <point x="154" y="516" type="line"/>
      <point x="30" y="516" type="line"/>
    </contour>
    <contour>
      <point x="154" y="101" type="line"/>
      <point x="154" y="268" type="line"/>
      <point x="207" y="268" type="line" smooth="yes"/>
      <point x="245" y="268"/>
      <point x="268" y="246"/>
      <point x="268" y="197" type="curve" smooth="yes"/>
      <point x="268" y="172" type="line" smooth="yes"/>
      <point x="268" y="123"/>
      <point x="245" y="101"/>
      <point x="207" y="101" type="curve" smooth="yes"/>
    </contour>
    <contour>
      <point x="445" y="0" type="line"/>
      <point x="569" y="0" type="line"/>
      <point x="569" y="516" type="line"/>
      <point x="445" y="516" type="line"/>
    </contour>
  </outline>
</glyph>
<glyph name="uni044C" format="2">
  <advance width="600"/>
  <unicode hex="044C"/>
  <outline>
    <contour>
      <point x="86" y="0" type="line"/>
      <point x="362" y="0" type="line"/>
      <point x="468" y="0"/>
      <point x="547" y="65"/>
      <point x="547" y="185" type="curve" smooth="yes"/>
      <point x="547" y="304"/>
      <point x="468" y="369"/>
      <point x="366" y="369" type="curve" smooth="yes"/>
      <point x="234" y="369" type="line"/>
      <point x="234" y="516" type="line"/>
      <point x="86" y="516" type="line"/>
    </contour>
    <contour>
      <point x="234" y="108" type="line"/>
      <point x="234" y="261" type="line"/>
      <point x="334" y="261" type="line" smooth="yes"/>
      <point x="373" y="261"/>
      <point x="398" y="235"/>
      <point x="398" y="196" type="curve" smooth="yes"/>
      <point x="398" y="173" type="line" smooth="yes"/>
      <point x="398" y="134"/>
      <point x="373" y="108"/>
      <point x="334" y="108" type="curve" smooth="yes"/>
    </contour>
  </outline>
</glyph>
<glyph name="uni044E" format="2">
  <advance width="600"/>
  <unicode hex="044E"/>
  <outline>
    <contour>
      <point x="393" y="-12" type="curve" smooth="yes"/>
      <point x="513" y="-12"/>
      <point x="571" y="64"/>
      <point x="571" y="258" type="curve" smooth="yes"/>
      <point x="571" y="452"/>
      <point x="517" y="528"/>
      <point x="393" y="528" type="curve" smooth="yes"/>
      <point x="286" y="528"/>
      <point x="230" y="464"/>
      <point x="218" y="313" type="curve"/>
      <point x="154" y="313" type="line"/>
      <point x="154" y="516" type="line"/>
      <point x="30" y="516" type="line"/>
      <point x="30" y="0" type="line"/>
      <point x="154" y="0" type="line"/>
      <point x="154" y="210" type="line"/>
      <point x="218" y="210" type="line"/>
      <point x="227" y="55"/>
      <point x="280" y="-12"/>
    </contour>
    <contour>
      <point x="394" y="93" type="curve" smooth="yes"/>
      <point x="359" y="93"/>
      <point x="346" y="114"/>
      <point x="346" y="204" type="curve" smooth="yes"/>
      <point x="346" y="312" type="line" smooth="yes"/>
      <point x="346" y="402"/>
      <point x="359" y="423"/>
      <point x="394" y="423" type="curve" smooth="yes"/>
      <point x="429" y="423"/>
      <point x="442" y="402"/>
      <point x="442" y="312" type="curve" smooth="yes"/>
      <point x="442" y="204" type="line" smooth="yes"/>
      <point x="442" y="114"/>
      <point x="429" y="93"/>
    </contour>
  </outline>
</glyph>
